<svg width="24" height="18" viewBox="0 0 24 18" fill="none" xmlns="http://www.w3.org/2000/svg">
    <g clip-path="url(#clip0_180_2059)">
    <path d="M22.438 1.85341C21.0936 1.29958 19.7481 1.08887 18.4034 1.08887C14.1344 1.08853 9.86578 3.21093 5.59682 3.21093C4.5262 3.21093 3.45628 3.07749 2.38566 2.7439C2.26539 2.70646 2.14478 2.68876 2.02694 2.68876C1.43045 2.68876 0.90918 3.14217 0.90918 3.77157V14.5712C0.90918 15.0011 1.15976 15.4085 1.56216 15.574C2.90658 16.1282 4.25205 16.3389 5.59682 16.3389C9.86578 16.3389 14.1347 14.2165 18.4037 14.2165C19.4743 14.2165 20.5442 14.3499 21.6149 14.6835C21.7351 14.7209 21.8558 14.7386 21.9736 14.7386C22.5701 14.7386 23.0913 14.2852 23.0913 13.6558V2.85657C23.091 2.42631 22.8404 2.01919 22.438 1.85341ZM2.57282 4.50037C3.27016 4.67194 3.998 4.75806 4.74663 4.80435C4.54284 5.80479 3.64725 6.55878 2.57282 6.55878V4.50037ZM2.57282 14.2018V12.5754C3.76405 12.5754 4.72792 13.5037 4.78095 14.6655C4.00008 14.6038 3.27016 14.4507 2.57282 14.2018ZM12.0001 11.9817C10.4685 11.9817 9.22736 10.5183 9.22736 8.71387C9.22736 6.90906 10.4689 5.44601 12.0001 5.44601C13.5313 5.44601 14.7728 6.90906 14.7728 8.71387C14.7728 10.519 13.531 11.9817 12.0001 11.9817ZM21.4274 12.9274C20.8201 12.7779 20.1897 12.6942 19.5447 12.6401C19.7481 11.7523 20.4978 11.0783 21.4274 10.9626V12.9274ZM21.4274 4.89013C20.3567 4.75704 19.526 3.87914 19.493 2.79496C20.1703 2.86883 20.8132 3.00703 21.4274 3.22591V4.89013Z" fill="#B7C1DA"/>
    </g>
    <defs>
    <clipPath id="clip0_180_2059">
    <rect width="22.1818" height="17.4286" fill="#B7C1DA" transform="translate(0.90918)"/>
    </clipPath>
    </defs>
    </svg>
    