<svg width="24" height="24" viewBox="0 0 24 24" fill="none" xmlns="http://www.w3.org/2000/svg">
    <g clip-path="url(#clip0_214_7785)">
    <path d="M24 11.906V16.0778C23.9505 17.3216 22.1741 17.3207 22.1251 16.0778V14.2258L19.1415 17.2094C18.9657 17.3852 18.7272 17.484 18.4786 17.484H13.7479L7.50706 23.7249C7.14098 24.091 6.54736 24.091 6.18128 23.7249C5.81515 23.3587 5.81515 22.7652 6.18128 22.3991L12.6968 15.8836C12.8725 15.7078 13.111 15.609 13.3596 15.609H18.0903L20.8558 12.8435H18.8439C17.6 12.794 17.601 11.0176 18.8439 10.9685H23.0625C23.5803 10.9685 24 11.3882 24 11.906ZM23.0625 18.8902C22.5448 18.8902 22.1251 19.3099 22.1251 19.8277V23.062C22.1746 24.3058 23.9509 24.3049 24 23.062V19.8277C24 19.3099 23.5803 18.8902 23.0625 18.8902ZM19.3126 18.8902C18.7949 18.8902 18.3752 19.3099 18.3752 19.8277V23.062C18.4246 24.3058 20.201 24.3049 20.2501 23.062V19.8277C20.2501 19.3099 19.8304 18.8902 19.3126 18.8902ZM15.5627 18.8902C15.0449 18.8902 14.6252 19.3099 14.6252 19.8277V23.062C14.6747 24.3058 16.4511 24.3049 16.5002 23.062V19.8277C16.5002 19.3099 16.0805 18.8902 15.5627 18.8902ZM11.8128 21.7495C11.295 21.7495 10.8753 22.1692 10.8753 22.687V23.062C10.9248 24.3058 12.7012 24.3049 12.7503 23.062V22.687C12.7503 22.1692 12.3306 21.7495 11.8128 21.7495ZM9.89097 15.8903C10.4087 15.8903 10.8285 15.4705 10.8285 14.9528V14.377C13.7673 13.2891 13.0576 8.966 9.89093 8.90605C8.64446 8.85519 8.6505 7.08926 9.89097 7.03779C10.2674 7.03779 10.5679 7.23719 10.7155 7.58495C10.9178 8.06152 11.4682 8.2838 11.9448 8.08153C12.4214 7.87923 12.6437 7.32883 12.4414 6.85222C12.1276 6.11297 11.5445 5.57237 10.8285 5.32061V4.68735C10.779 3.4435 9.00257 3.44444 8.9535 4.68735V5.32343C6.01891 6.41123 6.71878 10.7208 9.89102 10.781C11.1305 10.8323 11.1384 12.611 9.89097 12.6626C9.52639 12.6626 9.1648 12.4247 9.01171 12.0841C8.79947 11.6118 8.24453 11.4011 7.77232 11.6133C7.30007 11.8256 7.08927 12.3805 7.30157 12.8527C7.62153 13.5646 8.23473 14.1115 8.9535 14.3712V14.9527C8.9535 15.4705 9.3732 15.8903 9.89097 15.8903ZM6.65649 19.0999C7.03345 19.0999 7.38899 18.8709 7.532 18.4978C7.71738 18.0144 7.4757 17.4722 6.99224 17.2869C-1.17005 13.9909 1.0221 2.02172 9.84424 1.87496C13.724 1.87496 17.0249 4.64371 17.6929 8.4584C17.7822 8.96834 18.268 9.3094 18.778 9.2201C19.288 9.13081 19.6291 8.64496 19.5397 8.13497C19.1451 5.88174 17.9622 3.82163 16.2087 2.33418C9.88901 -3.06738 -0.0276844 1.52045 0.000627474 9.84362C-0.0466214 13.845 2.57911 17.6475 6.32106 19.0376C6.43149 19.0799 6.54488 19.0999 6.65649 19.0999Z" fill="#FCA311"/>
    </g>
    <defs>
    <clipPath id="clip0_214_7785">
    <rect width="24" height="24" fill="white"/>
    </clipPath>
    </defs>
    </svg>
    