<svg width="24" height="25" viewBox="0 0 24 25" fill="none" xmlns="http://www.w3.org/2000/svg">
    <path d="M19.3125 6.875H4.6875C2.10277 6.875 0 8.97781 0 11.5625V19.0625C0 21.6472 2.10277 23.75 4.6875 23.75H19.3125C21.8972 23.75 24 21.6472 24 19.0625V11.5625C24 8.97781 21.8972 6.875 19.3125 6.875ZM22.125 19.0625C22.125 20.6133 20.8633 21.875 19.3125 21.875H4.6875C3.13669 21.875 1.875 20.6133 1.875 19.0625V11.5625C1.875 10.0117 3.13669 8.75 4.6875 8.75H19.3125C20.8633 8.75 22.125 10.0117 22.125 11.5625V19.0625Z" fill="#FCA311"/>
    <path d="M8.25 5C8.76778 5 9.1875 4.58028 9.1875 4.0625C9.1875 3.54556 9.60806 3.125 10.125 3.125H13.875C14.3919 3.125 14.8125 3.54556 14.8125 4.0625C14.8125 4.58028 15.2322 5 15.75 5C16.2678 5 16.6875 4.58028 16.6875 4.0625C16.6875 2.51169 15.4258 1.25 13.875 1.25H10.125C8.57419 1.25 7.3125 2.51169 7.3125 4.0625C7.3125 4.58028 7.73222 5 8.25 5Z" fill="#FCA311"/>
    <path d="M10.125 16.25H11.0625V17.1875C11.0625 17.7053 11.4822 18.125 12 18.125C12.5178 18.125 12.9375 17.7053 12.9375 17.1875V16.25H13.875C14.3928 16.25 14.8125 15.8303 14.8125 15.3125C14.8125 14.7947 14.3928 14.375 13.875 14.375H12.9375V13.4375C12.9375 12.9197 12.5178 12.5 12 12.5C11.4822 12.5 11.0625 12.9197 11.0625 13.4375V14.375H10.125C9.60722 14.375 9.1875 14.7947 9.1875 15.3125C9.1875 15.8303 9.60722 16.25 10.125 16.25Z" fill="#FCA311"/>
    </svg>
    