<svg width="24" height="24" viewBox="0 0 24 24" fill="none" xmlns="http://www.w3.org/2000/svg">
    <g clip-path="url(#clip0_214_7693)">
    <path d="M23.1719 12.0866C23.1543 12.0689 23.1358 12.052 23.1167 12.0357L16.8106 6.66615C15.9189 5.90681 14.784 5.48933 13.6132 5.48933C13.6075 5.48933 13.6018 5.48933 13.5962 5.48933C12.2853 5.49391 11.0528 6.00679 10.1258 6.93385L9.27523 7.78438C8.91652 8.14308 8.32784 8.14894 7.96272 7.79738C7.78749 7.62892 7.68971 7.39638 7.68733 7.14314C7.68477 6.87727 7.78987 6.61818 7.97554 6.43232C7.98268 6.42518 7.98982 6.41786 7.99678 6.41054L9.84121 4.44196C11.2676 2.91962 13.2528 2.01435 15.3307 1.92847L22.4224 7.71059C22.8236 8.0378 23.4143 7.97774 23.7413 7.57655C24.0685 7.17519 24.0085 6.58467 23.6073 6.25746L16.2484 0.25763C16.0811 0.121399 15.872 0.046875 15.6561 0.046875C13.8922 0.046875 12.1679 0.527528 10.6677 1.4079C9.15438 0.516541 7.43648 0.046875 5.6739 0.046875C5.42524 0.046875 5.18684 0.145569 5.01106 0.321168L0.227967 5.10224C-0.138245 5.46846 -0.138428 6.0619 0.227601 6.42811C0.410706 6.6114 0.650575 6.70296 0.890627 6.70296C1.1305 6.70296 1.37036 6.6114 1.55329 6.42848L6.05311 1.93085C7.07356 1.97901 8.06911 2.2229 8.99233 2.64625C8.81343 2.81067 8.64003 2.9817 8.47304 3.15986L6.63777 5.11872C6.10585 5.65724 5.80519 6.40065 5.81251 7.16109C5.81965 7.92189 6.12159 8.62776 6.66249 9.14833C7.19569 9.6614 7.89735 9.94008 8.63765 9.93367C9.37923 9.92708 10.0765 9.63466 10.6009 9.11006L11.4516 8.25954C12.026 7.68495 12.7901 7.36708 13.6026 7.36415H13.6132C14.3388 7.36415 15.0423 7.62306 15.5951 8.09364L21.8672 13.4343C22.1565 13.7463 22.1496 14.2359 21.846 14.5393C21.6969 14.6886 21.4968 14.7706 21.2826 14.7706C21.0683 14.7706 20.8682 14.6886 20.7192 14.5393L20.5269 14.3469C20.1607 13.9809 19.5671 13.9807 19.201 14.3469C18.835 14.7129 18.8348 15.3065 19.201 15.6728L19.3935 15.865C19.4501 15.9218 19.5092 15.9753 19.57 16.026C19.5969 16.0622 19.6257 16.0974 19.6584 16.1302C19.9692 16.4409 19.9692 16.9464 19.6584 17.2572C19.3479 17.5679 18.8423 17.5679 18.5316 17.2572C18.5292 17.2548 18.5266 17.2522 18.5243 17.2499L18.2135 16.9413C17.8473 16.5753 17.2539 16.5753 16.8879 16.9415C16.5216 17.3075 16.5216 17.9012 16.8879 18.2672L17.1019 18.4812L17.1021 18.4814C17.2643 18.6437 17.3623 18.8749 17.3705 19.1157C17.3749 19.247 17.3548 19.4945 17.1693 19.68C16.8759 19.9736 16.368 19.9432 16.0373 19.6125C16.0197 19.5949 16.0016 19.578 15.9826 19.5619L15.842 19.442C15.4591 19.1155 14.8865 19.1498 14.5452 19.5194C14.2037 19.8891 14.2151 20.4624 14.5708 20.8184C14.7272 20.9748 14.8147 21.1795 14.8173 21.3946C14.8197 21.6032 14.7408 21.7982 14.5952 21.9438C14.2845 22.2545 13.7727 22.2481 13.4511 21.9267L13.3186 21.7953C13.7014 20.8191 13.4997 19.6645 12.7119 18.8767V18.8766C12.3593 18.5241 11.9295 18.2771 11.4639 18.1533C11.5796 17.348 11.3282 16.4997 10.71 15.8813C10.2468 15.4181 9.65425 15.1615 9.04744 15.1103C9.00167 14.5071 8.74385 13.9153 8.27254 13.444C7.80653 12.978 7.20979 12.7211 6.59932 12.672C6.55024 12.0615 6.29335 11.4648 5.82734 10.9988C4.78785 9.95931 3.0976 9.95711 2.05536 10.9922L0.745241 12.2571C0.741396 12.2609 0.737367 12.2648 0.733522 12.2686C0.230347 12.7718 -0.046875 13.4429 -0.046875 14.1579C-0.046875 14.8728 0.230347 15.5439 0.733522 16.047C1.13178 16.4455 1.6258 16.6908 2.14197 16.7846C2.1178 17.4989 2.37708 18.221 2.92109 18.7651C3.40632 19.2503 4.05378 19.5154 4.74977 19.5154C4.76295 19.5154 4.77632 19.5152 4.7895 19.5151C4.86531 20.0722 5.11579 20.6089 5.54206 21.035C6.06044 21.5534 6.74196 21.8123 7.42531 21.8123C7.4828 21.8123 7.54012 21.8097 7.59761 21.8061C7.69685 22.3517 7.95723 22.8536 8.35549 23.2519C8.88558 23.7818 9.58156 24.0467 10.2779 24.0467C10.9576 24.0467 11.6373 23.7931 12.1624 23.2878C12.6852 23.7931 13.362 24.0467 14.0376 24.0467C14.721 24.0467 15.4027 23.7878 15.9209 23.2696C16.3356 22.8547 16.5945 22.327 16.6694 21.7548C17.3368 21.7537 17.9958 21.505 18.495 21.0057C18.9335 20.5672 19.1911 19.9911 19.2378 19.3594C19.899 19.325 20.5146 19.0525 20.9843 18.5829C21.5283 18.0389 21.7876 17.3165 21.7634 16.602C22.2948 16.5064 22.7833 16.2536 23.1719 15.865C24.2135 14.8233 24.2135 13.1283 23.1719 12.0866ZM3.19794 14.7098C3.1941 14.7137 3.19007 14.7175 3.18622 14.7213C3.03718 14.8706 2.83704 14.9526 2.62281 14.9526C2.40857 14.9526 2.20844 14.8706 2.05939 14.7213C1.91016 14.5721 1.82813 14.3722 1.82813 14.1579C1.82813 13.9459 1.90851 13.748 2.05463 13.5993L3.36292 12.336C3.36695 12.3322 3.3708 12.3283 3.37464 12.3245C3.52387 12.1754 3.72401 12.0932 3.93824 12.0932C4.15229 12.0932 4.35243 12.1754 4.50166 12.3245C4.65071 12.4737 4.73292 12.6739 4.73292 12.8881C4.73292 13.0661 4.67561 13.234 4.57069 13.3715C4.54615 13.394 4.52162 13.4167 4.49781 13.4405L3.53614 14.3833L3.19794 14.7098ZM5.35182 17.4022C5.02387 17.7049 4.52967 17.7221 4.24696 17.4394C3.93714 17.1296 3.93623 16.6258 4.24421 16.3149L4.84461 15.7262L5.81562 14.7889C5.81965 14.7851 5.8235 14.7812 5.82734 14.7774C5.85261 14.7521 5.8766 14.7265 5.9004 14.7005C6.2126 14.4621 6.66157 14.4846 6.94685 14.7699C7.25557 15.0786 7.2574 15.5254 6.9518 15.8337L5.35182 17.4022ZM8.01216 19.6919C8.01106 19.693 8.00978 19.6943 8.00868 19.6954C7.69026 20.0138 7.17848 20.0201 6.86775 19.7093C6.55757 19.3991 6.56343 18.8885 6.88038 18.5699L8.25386 17.2107C8.25514 17.2096 8.25624 17.2083 8.25734 17.2072C8.40657 17.058 8.60671 16.9759 8.82094 16.9759C9.03499 16.9759 9.23513 17.058 9.38436 17.2072C9.69454 17.5174 9.69509 18.0218 9.38582 18.3327L8.01216 19.6919ZM11.3863 21.3957C11.3822 21.3996 11.3782 21.4036 11.3744 21.4078L10.8695 21.931C10.5403 22.255 10.0086 22.2534 9.68135 21.9262C9.51967 21.7645 9.4294 21.5477 9.42702 21.3159C9.42464 21.0888 9.50832 20.879 9.66249 20.7247L10.225 20.1621C10.3751 20.012 10.57 19.9377 10.7692 19.9377C10.9871 19.9377 11.2103 20.0267 11.3861 20.2024C11.7151 20.5315 11.7151 21.0667 11.3863 21.3957Z" fill="#FCA311"/>
    </g>
    <defs>
    <clipPath id="clip0_214_7693">
    <rect width="24" height="24" fill="white"/>
    </clipPath>
    </defs>
    </svg>
    