<svg width="25" height="25" viewBox="0 0 25 25" fill="none" xmlns="http://www.w3.org/2000/svg">
    <g clip-path="url(#clip0_214_7622)">
    <path d="M19.0338 1.8932C17.2368 0.994828 14.872 0.5 12.3749 0.5C9.87759 0.5 7.5127 0.994828 5.71582 1.89327C3.6786 2.91188 2.55664 4.35425 2.55664 5.9546V10.3182V14.6817V19.0453C2.55664 20.6458 3.6786 22.0881 5.71582 23.1067C7.5127 24.0052 9.87752 24.4999 12.3749 24.4999C14.872 24.4999 17.2368 24.0051 19.0337 23.1067C21.0711 22.0881 22.1931 20.6458 22.1931 19.0453V14.6817V10.3182V5.9546C22.1932 4.35425 21.0711 2.91188 19.0338 1.8932ZM20.0111 14.6818C20.0111 16.2266 16.7454 17.9543 12.3749 17.9543C8.00448 17.9543 4.73882 16.2266 4.73882 14.6818V13.8115C5.03638 14.0126 5.36195 14.2027 5.71589 14.3796C7.51278 15.2781 9.87767 15.7728 12.3749 15.7728C14.8721 15.7728 17.2369 15.278 19.0338 14.3796C19.3878 14.2027 19.7134 14.0126 20.0111 13.8114V14.6818ZM20.0111 10.3182C20.0111 11.8629 16.7454 13.5907 12.3749 13.5907C8.00448 13.5907 4.73882 11.8629 4.73882 10.3182V9.44786C5.03638 9.64905 5.36195 9.83904 5.71589 10.0159C7.51278 10.9144 9.87767 11.4092 12.3749 11.4092C14.8721 11.4092 17.2369 10.9144 19.0338 10.0159C19.3879 9.83889 19.7135 9.6489 20.0111 9.44771V10.3182ZM12.3749 2.6821C16.7453 2.6821 20.011 4.40982 20.011 5.9546C20.011 7.49946 16.7453 9.22717 12.3749 9.22717C8.00441 9.22717 4.73874 7.49946 4.73874 5.9546C4.73874 4.40982 8.00441 2.6821 12.3749 2.6821ZM12.3749 22.3179C8.00441 22.3179 4.73874 20.5902 4.73874 19.0454V18.175C5.03631 18.3762 5.36188 18.5662 5.71582 18.7432C7.5127 19.6417 9.87759 20.1365 12.3749 20.1365C14.872 20.1365 17.2368 19.6416 19.0337 18.7432C19.3877 18.5661 19.7133 18.3761 20.011 18.175V19.0454C20.0111 20.5902 16.7454 22.3179 12.3749 22.3179Z" fill="#FCA311"/>
    </g>
    <defs>
    <clipPath id="clip0_214_7622">
    <rect width="24" height="24" fill="white" transform="translate(0.375 0.5)"/>
    </clipPath>
    </defs>
    </svg>
    