<svg width="24" height="25" viewBox="0 0 24 25" fill="none" xmlns="http://www.w3.org/2000/svg">
    <g clip-path="url(#clip0_214_7601)">
    <path d="M24 6.07812V0.5H18.375V2.375H20.8929L12.3047 10.9633L5.75798 4.41655L1.875 8.48187V0.5H0V24.5H24V22.625H1.875V16.7183L5.49539 12.911L9.25195 16.6676L12.3047 13.6149L17.2031 18.5133L22.125 13.5914V15.875H24V10.2969H18.375V12.1719H20.8929L17.2031 15.8617L13.6305 12.2891L22.125 3.79456V6.07812H24ZM9.25195 14.016L5.46164 10.2257L1.875 13.9974V11.1965L5.78878 7.09892L10.9789 12.2891L9.25195 14.016Z" fill="#FCA311"/>
    </g>
    <defs>
    <clipPath id="clip0_214_7601">
    <rect width="24" height="24" fill="white" transform="translate(0 0.5)"/>
    </clipPath>
    </defs>
    </svg>
    