<svg width="24" height="24" viewBox="0 0 24 24" fill="none" xmlns="http://www.w3.org/2000/svg">
    <g clip-path="url(#clip0_214_7817)">
    <path d="M14.5711 11.8282C14.863 11.4498 15.0367 10.9757 15.0367 10.4621C15.0367 9.47168 14.3907 8.62994 13.4983 8.33441L13.5025 7.53552C13.5047 7.14734 13.1916 6.83075 12.8032 6.82874C12.8019 6.82874 12.8007 6.82874 12.7994 6.82874C12.4128 6.82874 12.0984 7.14093 12.0963 7.52802L12.0926 8.22089H11.6238L11.6275 7.52289C11.6297 7.13452 11.3166 6.81812 10.9282 6.81592C10.9269 6.81592 10.9257 6.81592 10.9244 6.81592C10.5378 6.81592 10.2234 7.1283 10.2213 7.5152L10.2174 8.23663C9.69116 8.32526 9.28906 8.78375 9.28906 9.3349V14.6651C9.28906 15.2175 9.69318 15.6769 10.2214 15.7639L10.2176 16.4643C10.2154 16.8527 10.5287 17.1693 10.9169 17.1713H10.9207C11.3073 17.1713 11.6216 16.8589 11.6238 16.472L11.6275 15.7789H12.0963L12.0926 16.4771C12.0904 16.8653 12.4035 17.1819 12.7919 17.1841H12.7957C13.1823 17.1841 13.4966 16.8717 13.4988 16.4848L13.5027 15.7463C14.5585 15.5656 15.3649 14.6444 15.3649 13.5379C15.3649 12.8535 15.0563 12.2395 14.5711 11.8282ZM12.7955 11.2969H10.6951V9.62732H12.7955C13.2559 9.62732 13.6305 10.0018 13.6305 10.4621C13.6305 10.9224 13.256 11.2969 12.7955 11.2969ZM13.1237 14.3727H10.6951V12.7031H13.1237C13.584 12.7031 13.9586 13.0776 13.9586 13.5379C13.9586 13.9984 13.5842 14.3727 13.1237 14.3727Z" fill="#FCA311"/>
    <path d="M20.4853 3.51471C18.2188 1.24823 15.2053 0 12 0C8.79474 0 5.78119 1.24823 3.51471 3.51471C1.24823 5.78119 0 8.79474 0 12C0 15.2053 1.24823 18.2188 3.51471 20.4853C5.78119 22.7518 8.79474 24 12 24C15.2053 24 18.2188 22.7518 20.4853 20.4853C22.7518 18.2188 24 15.2053 24 12C24 8.79474 22.7518 5.78119 20.4853 3.51471ZM19.4908 19.4908C17.4901 21.4918 14.8297 22.5938 12 22.5938C9.17029 22.5938 6.50995 21.4918 4.50916 19.4908C2.50818 17.4901 1.40625 14.8297 1.40625 12C1.40625 9.17029 2.50818 6.50995 4.50916 4.50916C6.50995 2.50818 9.17029 1.40625 12 1.40625C14.8297 1.40625 17.4901 2.50818 19.4908 4.50916C21.4918 6.50995 22.5938 9.17029 22.5938 12C22.5938 14.8297 21.4918 17.4901 19.4908 19.4908Z" fill="#FCA311"/>
    <path d="M11.9995 2.7251C6.88513 2.7251 2.72461 6.8858 2.72461 11.9999C2.72461 17.1141 6.88513 21.2748 11.9995 21.2748C17.1138 21.2748 21.2743 17.1141 21.2743 11.9999C21.2743 6.8858 17.1138 2.7251 11.9995 2.7251ZM11.9995 19.8685C7.66058 19.8685 4.13086 16.3388 4.13086 11.9999C4.13086 7.66107 7.66058 4.13135 11.9995 4.13135C16.3383 4.13135 19.868 7.66107 19.868 11.9999C19.868 16.3388 16.3383 19.8685 11.9995 19.8685Z" fill="#FCA311"/>
    </g>
    <defs>
    <clipPath id="clip0_214_7817">
    <rect width="24" height="24" fill="white"/>
    </clipPath>
    </defs>
    </svg>
    