<svg width="24" height="25" viewBox="0 0 24 25" fill="none" xmlns="http://www.w3.org/2000/svg">
    <g clip-path="url(#clip0_214_7723)">
    <path d="M12 15.3594C11.6123 15.3594 11.2969 15.044 11.2969 14.6562C11.2969 14.373 11.4654 14.1187 11.7262 14.0082C12.0411 13.8749 12.4178 13.9887 12.7602 14.3203C13.0391 14.5905 13.4842 14.5835 13.7544 14.3046C14.0247 14.0257 14.0176 13.5806 13.7387 13.3104C13.4213 13.0029 13.0684 12.7855 12.7031 12.6628V11.8438C12.7031 11.4554 12.3883 11.1406 12 11.1406C11.6117 11.1406 11.2969 11.4554 11.2969 11.8438V12.6674C11.257 12.6816 11.2172 12.6966 11.1778 12.7133C10.3959 13.0445 9.89062 13.8071 9.89062 14.6562C9.89062 15.8194 10.8369 16.7656 12 16.7656C12.3877 16.7656 12.7031 17.081 12.7031 17.4688C12.7031 17.7634 12.5173 18.0291 12.2407 18.1298C11.8795 18.2613 11.4591 18.083 11.0872 17.6402C10.8375 17.3428 10.394 17.3043 10.0966 17.554C9.79926 17.8038 9.76069 18.2473 10.0104 18.5446C10.3905 18.9972 10.833 19.3076 11.2969 19.4637V20.2812C11.2969 20.6696 11.6117 20.9844 12 20.9844C12.3884 20.9844 12.7032 20.6696 12.7032 20.2812V19.4575C12.7095 19.4553 12.7157 19.4534 12.722 19.4511C13.5518 19.1489 14.1094 18.3522 14.1094 17.4688C14.1094 16.3056 13.1631 15.3594 12 15.3594Z" fill="#FCA311"/>
    <path d="M18.5118 11.059C17.6761 10.0309 16.7208 9.21181 15.6721 8.62278C15.8439 8.41958 15.9794 8.18131 16.0669 7.91577C16.4103 6.87003 15.9087 5.62784 14.6284 5.22317L16.4232 2.09356C16.6497 1.69859 16.4462 1.19553 16.0096 1.06859C14.7119 0.691297 13.3629 0.5 12 0.5C10.6371 0.5 9.28809 0.691297 7.99041 1.06859C7.55325 1.19567 7.35061 1.69906 7.57678 2.09356L9.37158 5.22322C8.09634 5.62583 7.58841 6.86619 7.93327 7.91633C8.0205 8.18117 8.15597 8.4193 8.32823 8.62259C7.27941 9.21163 6.324 10.0308 5.48822 11.059C3.81755 13.1143 2.85938 15.7069 2.85938 18.1719C2.85938 23.2855 6.9397 24.5 12 24.5C17.0639 24.5 21.1406 23.2835 21.1406 18.1719C21.1406 15.7069 20.1825 13.1143 18.5118 11.059ZM9.25763 2.19772C10.1547 2.00408 11.0737 1.90625 12 1.90625C12.9263 1.90625 13.8453 2.00408 14.7424 2.19772L13.194 4.89781C12.4009 4.78709 11.5994 4.78714 10.8061 4.89786L9.25763 2.19772ZM9.717 6.58887C10.9271 6.19194 12.1931 6.1167 13.4239 6.36275C13.4253 6.36303 13.4268 6.36331 13.4283 6.36359C13.7152 6.42116 14.0001 6.49606 14.282 6.58855C14.6505 6.71 14.8519 7.10858 14.7311 7.47641C14.6433 7.7428 14.4115 7.92627 14.1388 7.95598C13.4377 7.73647 12.7227 7.625 12 7.625C11.2788 7.625 10.5651 7.736 9.86541 7.95463C9.58852 7.92613 9.35616 7.74134 9.26911 7.47706C9.14812 7.10858 9.3495 6.70995 9.717 6.58887ZM12 23.1031C6.50644 23.1031 4.26562 21.6678 4.26562 18.1719C4.26562 16.0558 5.13061 13.7285 6.57938 11.946C8.10727 10.0664 10.0323 9.03125 12 9.03125C14.1659 9.03125 16.0604 10.2726 17.4206 11.946C18.8694 13.7285 19.7344 16.0558 19.7344 18.1719C19.7344 21.6678 17.4936 23.1031 12 23.1031Z" fill="#FCA311"/>
    </g>
    <defs>
    <clipPath id="clip0_214_7723">
    <rect width="24" height="24" fill="white" transform="translate(0 0.5)"/>
    </clipPath>
    </defs>
    </svg>
    