<svg width="24" height="24" viewBox="0 0 24 24" fill="none" xmlns="http://www.w3.org/2000/svg">
    <g clip-path="url(#clip0_214_7660)">
    <path d="M17.584 14.6821H15.5059C14.9881 14.6821 14.5684 15.1018 14.5684 15.6196C14.5684 16.1374 14.9881 16.5571 15.5059 16.5571H17.584C18.1018 16.5571 18.5215 16.1374 18.5215 15.6196C18.5215 15.1018 18.1018 14.6821 17.584 14.6821Z" fill="#FCA311"/>
    <path d="M17.584 6.67236H15.5059C14.9881 6.67236 14.5684 7.09208 14.5684 7.60986C14.5684 8.12764 14.9881 8.54736 15.5059 8.54736H17.584C18.1018 8.54736 18.5215 8.12764 18.5215 7.60986C18.5215 7.09208 18.1018 6.67236 17.584 6.67236Z" fill="#FCA311"/>
    <path d="M17.584 10.6772H15.5059C14.9881 10.6772 14.5684 11.097 14.5684 11.6147C14.5684 12.1325 14.9881 12.5522 15.5059 12.5522H17.584C18.1018 12.5522 18.5215 12.1325 18.5215 11.6147C18.5215 11.097 18.1018 10.6772 17.584 10.6772Z" fill="#FCA311"/>
    <path d="M23.0625 21.7068H17.482V19.7511C17.482 19.2333 17.0623 18.8136 16.5445 18.8136C16.0267 18.8136 15.607 19.2333 15.607 19.7511V21.7068H12.4642V3.17324C12.4642 2.7351 12.7513 2.50719 12.8746 2.42957C12.9977 2.35213 13.3264 2.19247 13.7197 2.38119L19.5448 5.17635C20.2008 5.49116 20.6247 6.16523 20.6247 6.89362V21.9568C20.6247 22.4746 21.0444 22.8943 21.5622 22.8943C22.08 22.8943 22.4997 22.4746 22.4997 21.9568V6.89357C22.4997 5.44837 21.6582 4.11079 20.3559 3.4859L14.5309 0.690741C13.6735 0.279272 12.681 0.336038 11.876 0.842616C11.0703 1.34962 10.5893 2.22088 10.5893 3.17324V3.95094L3.50981 7.70174C2.2703 8.35851 1.50028 9.63824 1.50028 11.0417V21.7068H0.9375C0.419719 21.7068 0 22.1265 0 22.6443C0 23.1621 0.419719 23.5818 0.9375 23.5818H23.0625C23.5803 23.5818 24 23.1621 24 22.6443C24 22.1265 23.5803 21.7068 23.0625 21.7068ZM3.37528 11.0417C3.37528 10.3343 3.76317 9.68938 4.38764 9.35858L10.5893 6.07283V11.7515H9.34959C7.26637 11.7515 5.57152 13.4463 5.57152 15.5296V21.7068H3.37528V11.0417ZM7.44656 15.5295C7.44656 14.4802 8.30025 13.6265 9.34964 13.6265H10.5893V21.7067H7.44656V15.5295Z" fill="#FCA311"/>
    </g>
    <defs>
    <clipPath id="clip0_214_7660">
    <rect width="24" height="24" fill="white"/>
    </clipPath>
    </defs>
    </svg>
    