<svg width="40" height="30" viewBox="0 0 40 30" fill="none" xmlns="http://www.w3.org/2000/svg">
    <g clip-path="url(#clip0_137_6897)">
    <path fill-rule="evenodd" clip-rule="evenodd" d="M0 0H40V30H0V0Z" fill="#F7FCFF"/>
    <path fill-rule="evenodd" clip-rule="evenodd" d="M0 18.3337V20.8337H40V18.3337H0ZM0 22.9163V25.4163H40V22.9163H0ZM0 9.16625V11.6663H40V9.16625H0ZM0 27.5V30H40V27.5H0ZM0 13.75V16.25H40V13.75H0ZM0 0V2.5H40V0H0ZM0 4.58375V7.08375H40V4.58375H0Z" fill="#E31D1C"/>
    <path d="M0 0H25V16.25H0V0Z" fill="#2E42A5"/>
    <path fill-rule="evenodd" clip-rule="evenodd" d="M2.15262 3.67391L1.24512 4.31016L1.55137 3.17766L0.745117 2.46016H1.79887L2.15137 1.53516L2.56512 2.46016H3.46262L2.75762 3.17766L3.03012 4.31016L2.15262 3.67391ZM7.15262 3.67391L6.24512 4.31016L6.55137 3.17766L5.74637 2.46016H6.79887L7.15137 1.53516L7.56512 2.46016H8.46262L7.75762 3.17766L8.03012 4.31016L7.15262 3.67391ZM11.2451 4.31016L12.1526 3.67266L13.0301 4.31016L12.7576 3.17766L13.4626 2.46016H12.5651L12.1514 1.53516L11.7989 2.46016H10.7464L11.5514 3.17766L11.2451 4.31016ZM17.1526 3.67266L16.2451 4.31016L16.5514 3.17766L15.7464 2.46016H16.7989L17.1514 1.53516L17.5651 2.46016H18.4626L17.7576 3.17766L18.0301 4.31016L17.1526 3.67266ZM1.24512 9.31141L2.15262 8.67391L3.03012 9.31141L2.75762 8.17891L3.46262 7.46141H2.56512L2.15137 6.53641L1.79887 7.46141H0.745117L1.55137 8.17891L1.24512 9.31141ZM7.15262 8.67391L6.24512 9.31141L6.55137 8.17891L5.74637 7.46141H6.79887L7.15137 6.53641L7.56512 7.46141H8.46262L7.75762 8.17891L8.03012 9.31141L7.15262 8.67391ZM11.2451 9.31141L12.1526 8.67391L13.0301 9.31141L12.7576 8.17891L13.4626 7.46141H12.5651L12.1514 6.53641L11.7989 7.46141H10.7464L11.5514 8.17891L11.2451 9.31141ZM17.1526 8.67391L16.2451 9.31141L16.5514 8.17891L15.7464 7.46141H16.7989L17.1514 6.53641L17.5651 7.46141H18.4626L17.7576 8.17891L18.0301 9.31141L17.1526 8.67391ZM1.24512 14.3114L2.15262 13.6739L3.03012 14.3114L2.75762 13.1789L3.46262 12.4614H2.56512L2.15137 11.5364L1.79887 12.4614H0.745117L1.55137 13.1789L1.24512 14.3114ZM7.15262 13.6739L6.24512 14.3114L6.55137 13.1789L5.74637 12.4614H6.79887L7.15137 11.5364L7.56512 12.4614H8.46262L7.75762 13.1789L8.03012 14.3114L7.15262 13.6739ZM11.2451 14.3114L12.1526 13.6739L13.0301 14.3114L12.7576 13.1789L13.4626 12.4614H12.5651L12.1514 11.5364L11.7989 12.4614H10.7464L11.5514 13.1789L11.2451 14.3114ZM17.1526 13.6739L16.2451 14.3114L16.5514 13.1789L15.7464 12.4614H16.7989L17.1514 11.5364L17.5651 12.4614H18.4626L17.7576 13.1789L18.0301 14.3114L17.1526 13.6739ZM21.2451 4.31141L22.1526 3.67391L23.0301 4.31141L22.7576 3.17891L23.4626 2.46141H22.5651L22.1514 1.53641L21.7989 2.46141H20.7451L21.5514 3.17891L21.2451 4.31141ZM22.1526 8.67391L21.2451 9.31141L21.5514 8.17891L20.7451 7.46141H21.7989L22.1514 6.53641L22.5651 7.46141H23.4626L22.7576 8.17891L23.0301 9.31141L22.1526 8.67391ZM21.2451 14.3114L22.1526 13.6739L23.0301 14.3114L22.7576 13.1789L23.4626 12.4614H22.5651L22.1514 11.5364L21.7989 12.4614H20.7451L21.5514 13.1789L21.2451 14.3114ZM4.65262 6.17266L3.74512 6.81016L4.05137 5.67766L3.24512 4.96016H4.29887L4.65137 4.03516L5.06512 4.96016H5.96262L5.25762 5.67766L5.53012 6.81016L4.65262 6.17266ZM8.74512 6.81016L9.65262 6.17266L10.5301 6.81016L10.2576 5.67766L10.9626 4.96016H10.0651L9.65137 4.03516L9.29887 4.96016H8.24512L9.05137 5.67766L8.74512 6.81016ZM14.6526 6.17266L13.7451 6.81016L14.0514 5.67766L13.2464 4.96016H14.2989L14.6514 4.03516L15.0651 4.96016H15.9626L15.2576 5.67766L15.5301 6.81016L14.6526 6.17266ZM3.74512 11.8102L4.65262 11.1727L5.53012 11.8102L5.25762 10.6777L5.96262 9.96016H5.06512L4.65137 9.03516L4.29887 9.96016H3.24512L4.05137 10.6777L3.74512 11.8102ZM9.65262 11.1727L8.74512 11.8102L9.05137 10.6777L8.24637 9.96016H9.29887L9.65137 9.03516L10.0651 9.96016H10.9626L10.2576 10.6777L10.5301 11.8102L9.65262 11.1727ZM13.7451 11.8102L14.6526 11.1727L15.5301 11.8102L15.2576 10.6777L15.9626 9.96016H15.0651L14.6514 9.03516L14.2989 9.96016H13.2464L14.0514 10.6777L13.7451 11.8102ZM19.6526 6.17266L18.7451 6.81016L19.0514 5.67766L18.2464 4.96016H19.2989L19.6514 4.03516L20.0651 4.96016H20.9626L20.2576 5.67766L20.5301 6.81016L19.6526 6.17266ZM18.7451 11.8102L19.6526 11.1727L20.5301 11.8102L20.2576 10.6777L20.9626 9.96016H20.0651L19.6514 9.03516L19.2989 9.96016H18.2464L19.0514 10.6777L18.7451 11.8102Z" fill="#F7FCFF"/>
    </g>
    <defs>
    <clipPath id="clip0_137_6897">
    <rect width="40" height="30" fill="white"/>
    </clipPath>
    </defs>
    </svg>
    