<svg width="182" height="67" viewBox="0 0 182 67" fill="none" xmlns="http://www.w3.org/2000/svg">
<g opacity="0.7" clip-path="url(#clip0_6_3617)">
<path d="M0.934283 41.5917C10.8408 27.071 54.9436 12.0914 84.8268 12.53C117.126 12.9322 134.934 18.9418 169.829 41.5095C169.677 38.9823 169.331 36.929 169.341 35.051C169.261 32.9098 169.198 30.6457 169.616 28.5744C169.702 27.9601 170.977 27.0116 171.741 26.9936C172.505 26.9756 173.629 28.0104 173.791 28.6597C175.202 34.872 176.365 41.0494 177.635 47.367C177.981 49.4203 177.027 50.7899 174.825 51.1071C166.461 51.9369 158.08 52.8896 149.609 53.5791C147.69 53.6856 145.52 52.8795 143.031 52.53C145.764 47.5263 150.157 48.7698 153.582 47.8727C157.149 46.8701 160.878 46.5169 165.44 45.6542C156.079 37.3229 146.231 31.5544 135.537 27.2958C96.3878 11.5228 57.8854 14.6345 20.2774 32.1553C15.3837 34.4749 10.7943 37.3385 6.0078 39.7985C4.55279 40.2206 3.22218 40.6601 0.934283 41.5917Z" fill="#FCA311"/>
</g>
<defs>
<clipPath id="clip0_6_3617">
<rect width="176" height="42" fill="white" transform="translate(6.77637) rotate(7.99562)"/>
</clipPath>
</defs>
</svg>
