<svg width="182" height="67" viewBox="0 0 182 67" fill="none" xmlns="http://www.w3.org/2000/svg">
<g clip-path="url(#clip0_6_3621)">
<path opacity="0.7" d="M0.934283 24.4812C10.8408 39.0019 54.9436 53.9815 84.8268 53.5428C117.126 53.1407 134.934 47.1311 169.829 24.5633C169.677 27.0906 169.331 29.1439 169.341 31.0219C169.261 33.1631 169.198 35.4271 169.616 37.4984C169.702 38.1128 170.977 39.0613 171.741 39.0793C172.505 39.0973 173.629 38.0624 173.791 37.4131C175.202 31.2009 176.365 25.0235 177.635 18.7058C177.981 16.6526 177.027 15.283 174.825 14.9658C166.461 14.1359 158.08 13.1832 149.609 12.4937C147.69 12.3873 145.52 13.1934 143.031 13.5429C145.764 18.5466 150.157 17.3031 153.582 18.2002C157.149 19.2027 160.878 19.556 165.44 20.4187C156.079 28.75 146.231 34.5185 135.537 38.7771C96.3878 54.5501 57.8854 51.4383 20.2774 33.9176C15.3837 31.5979 10.7943 28.7344 6.0078 26.2744C4.55279 25.8523 3.22218 25.4127 0.934283 24.4812Z" fill="#FCA311"/>
</g>
<defs>
<clipPath id="clip0_6_3621">
<rect width="176" height="42" fill="white" transform="matrix(0.990279 -0.139097 -0.139097 -0.990279 6.77637 66.0729)"/>
</clipPath>
</defs>
</svg>
