<svg width="46" height="17" viewBox="0 0 46 17" fill="none" xmlns="http://www.w3.org/2000/svg">
    <path d="M1 4.59307V12.9769L6.77778 16.0909M1 4.59307L6.77778 7.70707M1 4.59307L6.77778 1L13 4.59307M6.77778 16.0909L13 12.9769V11.0606M6.77778 16.0909V7.70707M6.77778 7.70707L13 4.59307M13 4.59307V6.98846" stroke="white"/>
    <path d="M10.5554 9.14441H19.4443" stroke="white"/>
    <path d="M19.2222 9.14441H19.8888" stroke="white"/>
    <path d="M17.8889 6.74903V4.35365M17.8889 4.35365L23.4445 1.47919L28.7778 4.35365M17.8889 4.35365L23.4445 6.74903M28.7778 4.35365L23.4445 6.74903M28.7778 4.35365V6.74903M23.4445 6.74903V15.3724M23.4445 15.3724L17.8889 13.2166V10.8212M23.4445 15.3724L28.7778 13.2166V10.8212" stroke="white"/>
    <path d="M27 8.90491H35.8889" stroke="white"/>
    <path d="M34.1111 6.98857V4.59318M34.1111 4.59318L39.8889 1.47919L45 4.59318M34.1111 4.59318L39.8889 6.98857M45 4.59318L39.8889 6.98857M45 4.59318V12.977L39.8889 15.8515M39.8889 6.98857V15.8515M39.8889 15.8515L34.1111 12.977V10.5816" stroke="white"/>
    </svg>
    