<svg width="33" height="34" viewBox="0 0 33 34" fill="none" xmlns="http://www.w3.org/2000/svg">
    <path d="M24.8333 34H24.8007C24.5668 33.9936 24.3403 33.9177 24.1505 33.7823C23.9608 33.6469 23.8166 33.4583 23.7367 33.2408L20.078 23.2891L17.7388 28.6855C17.6489 28.893 17.4994 29.0699 17.3088 29.1942C17.1182 29.3184 16.8949 29.3847 16.6667 29.3847H12V27.0771H15.8967L19.0933 19.6996C19.2835 19.2646 19.7338 18.9888 20.1993 19.0003C20.4332 19.0068 20.6597 19.0826 20.8495 19.218C21.0392 19.3534 21.1834 19.5421 21.2633 19.7596L24.922 29.7124L27.2612 24.3148C27.3511 24.1073 27.5006 23.9305 27.6912 23.8062C27.8818 23.6819 28.105 23.6157 28.3333 23.6156H33V25.9233H29.1033L25.9067 33.3008C25.8166 33.5085 25.6669 33.6854 25.4761 33.8097C25.2853 33.934 25.0618 34.0002 24.8333 34Z" fill="#F0B90B"/>
    <path d="M8.25 26.68H2.35714V9.28H30.6429V19.72H33V9.28C33 8.00052 31.9428 6.96 30.6429 6.96H23.5714V2.32C23.5714 1.04052 22.5142 0 21.2143 0H11.7857C10.4858 0 9.42857 1.04052 9.42857 2.32V6.96H2.35714C1.05718 6.96 0 8.00052 0 9.28V26.68C0 27.9595 1.05718 29 2.35714 29H8.25V26.68ZM11.7857 2.32H21.2143V6.96H11.7857V2.32Z" fill="#F0B90B"/>
    </svg>
    