<svg width="100%" height="100%" viewBox="0 0 100% 100%" fill="none" xmlns="http://www.w3.org/2000/svg">
    <path d="M533.237 31.5572L525.99 1L521.032 31.5572L514.167 16.5904L508.064 31.5572L501.199 23.4502L496.622 31.5572L487.087 42.7823L479.458 31.5572L468.397 53.3838L461.151 31.5572L450.853 16.5904L439.792 31.5572L426.824 125.723L409.279 103.897L393.641 115.122L379.91 103.897L368.087 115.122L361.984 78.3284L355.881 41.5351L342.913 63.3616L328.801 41.5351L320.41 85.8118L310.875 41.5351L301.34 52.7601L288.372 41.5351L278.837 26.5683L268.538 41.5351L255.57 52.7601L248.324 41.5351L238.026 85.1882L226.965 93.2952L213.234 115.122L203.317 125.723L186.154 117.616L177.763 125.723L168.228 170L158.311 125.723L148.394 85.1882L140.385 125.723H122.077L115.212 147.55L104.913 125.723L90.0385 95.166L77.4519 125.723L67.9167 170L58 125.723" stroke="#FFCC4D" stroke-width="2" stroke-linecap="round"/>
    <path d="M534 99.6125L526.753 79L521.795 99.6125L514.929 89.5166L508.827 99.6125L501.962 94.1439L497.385 99.6125L487.849 107.185L480.221 99.6125L469.16 114.336L461.913 99.6125L451.615 89.5166L440.554 99.6125L427.587 163.133L410.042 148.41L394.404 155.982L380.673 148.41L368.849 155.982L356.644 106.343L343.676 121.066L329.564 106.343L321.173 136.21L311.638 106.343L302.103 113.915L289.135 106.343L279.599 96.2472L269.301 106.343L256.333 113.915L249.087 106.343L238.788 135.79L227.728 141.258L213.997 155.982L204.08 163.133L186.917 157.664L178.526 163.133L168.99 193L159.074 163.133L149.157 135.79L141.147 163.133H122.84L115.974 177.856L105.676 163.133L90.8013 142.52L78.2148 163.133L68.6795 193L58.7628 163.133" stroke="#F83AF0" stroke-width="2" stroke-linecap="round"/>
    <path d="M103.752 257.108C103.248 257.108 102.796 257.024 102.396 256.856C101.996 256.68 101.68 256.44 101.448 256.136C101.216 255.824 101.088 255.468 101.064 255.068H102.192C102.224 255.396 102.376 255.664 102.648 255.872C102.928 256.08 103.292 256.184 103.74 256.184C104.156 256.184 104.484 256.092 104.724 255.908C104.964 255.724 105.084 255.492 105.084 255.212C105.084 254.924 104.956 254.712 104.7 254.576C104.444 254.432 104.048 254.292 103.512 254.156C103.024 254.028 102.624 253.9 102.312 253.772C102.008 253.636 101.744 253.44 101.52 253.184C101.304 252.92 101.196 252.576 101.196 252.152C101.196 251.816 101.296 251.508 101.496 251.228C101.696 250.948 101.98 250.728 102.348 250.568C102.716 250.4 103.136 250.316 103.608 250.316C104.336 250.316 104.924 250.5 105.372 250.868C105.82 251.236 106.06 251.74 106.092 252.38H105C104.976 252.036 104.836 251.76 104.58 251.552C104.332 251.344 103.996 251.24 103.572 251.24C103.18 251.24 102.868 251.324 102.636 251.492C102.404 251.66 102.288 251.88 102.288 252.152C102.288 252.368 102.356 252.548 102.492 252.692C102.636 252.828 102.812 252.94 103.02 253.028C103.236 253.108 103.532 253.2 103.908 253.304C104.38 253.432 104.764 253.56 105.06 253.688C105.356 253.808 105.608 253.992 105.816 254.24C106.032 254.488 106.144 254.812 106.152 255.212C106.152 255.572 106.052 255.896 105.852 256.184C105.652 256.472 105.368 256.7 105 256.868C104.64 257.028 104.224 257.108 103.752 257.108ZM113.526 250.424V257H112.434V256.028C112.226 256.364 111.934 256.628 111.558 256.82C111.19 257.004 110.782 257.096 110.334 257.096C109.822 257.096 109.362 256.992 108.954 256.784C108.546 256.568 108.222 256.248 107.982 255.824C107.75 255.4 107.634 254.884 107.634 254.276V250.424H108.714V254.132C108.714 254.78 108.878 255.28 109.206 255.632C109.534 255.976 109.982 256.148 110.55 256.148C111.134 256.148 111.594 255.968 111.93 255.608C112.266 255.248 112.434 254.724 112.434 254.036V250.424H113.526ZM118.573 250.304C119.373 250.304 120.021 250.548 120.517 251.036C121.013 251.516 121.261 252.212 121.261 253.124V257H120.181V253.28C120.181 252.624 120.017 252.124 119.689 251.78C119.361 251.428 118.913 251.252 118.345 251.252C117.769 251.252 117.309 251.432 116.965 251.792C116.629 252.152 116.461 252.676 116.461 253.364V257H115.369V250.424H116.461V251.36C116.677 251.024 116.969 250.764 117.337 250.58C117.713 250.396 118.125 250.304 118.573 250.304Z" fill="#9E9E9E"/>
    <path d="M181.908 248.696V257H180.816V250.808L178.056 257H177.288L174.516 250.796V257H173.424V248.696H174.6L177.672 255.56L180.744 248.696H181.908ZM186.628 257.108C186.012 257.108 185.452 256.968 184.948 256.688C184.452 256.408 184.06 256.012 183.772 255.5C183.492 254.98 183.352 254.38 183.352 253.7C183.352 253.028 183.496 252.436 183.784 251.924C184.08 251.404 184.48 251.008 184.984 250.736C185.488 250.456 186.052 250.316 186.676 250.316C187.3 250.316 187.864 250.456 188.368 250.736C188.872 251.008 189.268 251.4 189.556 251.912C189.852 252.424 190 253.02 190 253.7C190 254.38 189.848 254.98 189.544 255.5C189.248 256.012 188.844 256.408 188.332 256.688C187.82 256.968 187.252 257.108 186.628 257.108ZM186.628 256.148C187.02 256.148 187.388 256.056 187.732 255.872C188.076 255.688 188.352 255.412 188.56 255.044C188.776 254.676 188.884 254.228 188.884 253.7C188.884 253.172 188.78 252.724 188.572 252.356C188.364 251.988 188.092 251.716 187.756 251.54C187.42 251.356 187.056 251.264 186.664 251.264C186.264 251.264 185.896 251.356 185.56 251.54C185.232 251.716 184.968 251.988 184.768 252.356C184.568 252.724 184.468 253.172 184.468 253.7C184.468 254.236 184.564 254.688 184.756 255.056C184.956 255.424 185.22 255.7 185.548 255.884C185.876 256.06 186.236 256.148 186.628 256.148ZM194.64 250.304C195.44 250.304 196.088 250.548 196.584 251.036C197.08 251.516 197.328 252.212 197.328 253.124V257H196.248V253.28C196.248 252.624 196.084 252.124 195.756 251.78C195.428 251.428 194.98 251.252 194.412 251.252C193.836 251.252 193.376 251.432 193.032 251.792C192.696 252.152 192.528 252.676 192.528 253.364V257H191.436V250.424H192.528V251.36C192.744 251.024 193.036 250.764 193.404 250.58C193.78 250.396 194.192 250.304 194.64 250.304Z" fill="#9E9E9E"/>
    <path d="M254.572 248.636V249.524H252.292V257H251.2V249.524H248.908V248.636H254.572ZM261.748 250.424V257H260.656V256.028C260.448 256.364 260.156 256.628 259.78 256.82C259.412 257.004 259.004 257.096 258.556 257.096C258.044 257.096 257.584 256.992 257.176 256.784C256.768 256.568 256.444 256.248 256.204 255.824C255.972 255.4 255.856 254.884 255.856 254.276V250.424H256.936V254.132C256.936 254.78 257.1 255.28 257.428 255.632C257.756 255.976 258.204 256.148 258.772 256.148C259.356 256.148 259.816 255.968 260.152 255.608C260.488 255.248 260.656 254.724 260.656 254.036V250.424H261.748ZM269.592 253.46C269.592 253.668 269.58 253.888 269.556 254.12H264.3C264.34 254.768 264.56 255.276 264.96 255.644C265.368 256.004 265.86 256.184 266.436 256.184C266.908 256.184 267.3 256.076 267.612 255.86C267.932 255.636 268.156 255.34 268.284 254.972H269.46C269.284 255.604 268.932 256.12 268.404 256.52C267.876 256.912 267.22 257.108 266.436 257.108C265.812 257.108 265.252 256.968 264.756 256.688C264.268 256.408 263.884 256.012 263.604 255.5C263.324 254.98 263.184 254.38 263.184 253.7C263.184 253.02 263.32 252.424 263.592 251.912C263.864 251.4 264.244 251.008 264.732 250.736C265.228 250.456 265.796 250.316 266.436 250.316C267.06 250.316 267.612 250.452 268.092 250.724C268.572 250.996 268.94 251.372 269.196 251.852C269.46 252.324 269.592 252.86 269.592 253.46ZM268.464 253.232C268.464 252.816 268.372 252.46 268.188 252.164C268.004 251.86 267.752 251.632 267.432 251.48C267.12 251.32 266.772 251.24 266.388 251.24C265.836 251.24 265.364 251.416 264.972 251.768C264.588 252.12 264.368 252.608 264.312 253.232H268.464Z" fill="#9E9E9E"/>
    <path d="M331.936 248.636L329.512 257H328.288L326.344 250.268L324.328 257L323.116 257.012L320.776 248.636H321.94L323.764 255.728L325.78 248.636H327.004L328.924 255.704L330.76 248.636H331.936ZM339.131 253.46C339.131 253.668 339.119 253.888 339.095 254.12H333.839C333.879 254.768 334.099 255.276 334.499 255.644C334.907 256.004 335.399 256.184 335.975 256.184C336.447 256.184 336.839 256.076 337.151 255.86C337.471 255.636 337.695 255.34 337.823 254.972H338.999C338.823 255.604 338.471 256.12 337.943 256.52C337.415 256.912 336.759 257.108 335.975 257.108C335.351 257.108 334.791 256.968 334.295 256.688C333.807 256.408 333.423 256.012 333.143 255.5C332.863 254.98 332.723 254.38 332.723 253.7C332.723 253.02 332.859 252.424 333.131 251.912C333.403 251.4 333.783 251.008 334.271 250.736C334.767 250.456 335.335 250.316 335.975 250.316C336.599 250.316 337.151 250.452 337.631 250.724C338.111 250.996 338.479 251.372 338.735 251.852C338.999 252.324 339.131 252.86 339.131 253.46ZM338.003 253.232C338.003 252.816 337.911 252.46 337.727 252.164C337.543 251.86 337.291 251.632 336.971 251.48C336.659 251.32 336.311 251.24 335.927 251.24C335.375 251.24 334.903 251.416 334.511 251.768C334.127 252.12 333.907 252.608 333.851 253.232H338.003ZM340.164 253.688C340.164 253.016 340.3 252.428 340.572 251.924C340.844 251.412 341.216 251.016 341.688 250.736C342.168 250.456 342.704 250.316 343.296 250.316C343.808 250.316 344.284 250.436 344.724 250.676C345.164 250.908 345.5 251.216 345.732 251.6V248.12H346.836V257H345.732V255.764C345.516 256.156 345.196 256.48 344.772 256.736C344.348 256.984 343.852 257.108 343.284 257.108C342.7 257.108 342.168 256.964 341.688 256.676C341.216 256.388 340.844 255.984 340.572 255.464C340.3 254.944 340.164 254.352 340.164 253.688ZM345.732 253.7C345.732 253.204 345.632 252.772 345.432 252.404C345.232 252.036 344.96 251.756 344.616 251.564C344.28 251.364 343.908 251.264 343.5 251.264C343.092 251.264 342.72 251.36 342.384 251.552C342.048 251.744 341.78 252.024 341.58 252.392C341.38 252.76 341.28 253.192 341.28 253.688C341.28 254.192 341.38 254.632 341.58 255.008C341.78 255.376 342.048 255.66 342.384 255.86C342.72 256.052 343.092 256.148 343.5 256.148C343.908 256.148 344.28 256.052 344.616 255.86C344.96 255.66 345.232 255.376 345.432 255.008C345.632 254.632 345.732 254.196 345.732 253.7Z" fill="#9E9E9E"/>
    <path d="M404.572 248.636V249.524H402.292V257H401.2V249.524H398.908V248.636H404.572ZM409.18 250.304C409.676 250.304 410.124 250.412 410.524 250.628C410.924 250.836 411.236 251.152 411.46 251.576C411.692 252 411.808 252.516 411.808 253.124V257H410.728V253.28C410.728 252.624 410.564 252.124 410.236 251.78C409.908 251.428 409.46 251.252 408.892 251.252C408.316 251.252 407.856 251.432 407.512 251.792C407.176 252.152 407.008 252.676 407.008 253.364V257H405.916V248.12H407.008V251.36C407.224 251.024 407.52 250.764 407.896 250.58C408.28 250.396 408.708 250.304 409.18 250.304ZM419.424 250.424V257H418.332V256.028C418.124 256.364 417.832 256.628 417.456 256.82C417.088 257.004 416.68 257.096 416.232 257.096C415.72 257.096 415.26 256.992 414.852 256.784C414.444 256.568 414.12 256.248 413.88 255.824C413.648 255.4 413.532 254.884 413.532 254.276V250.424H414.612V254.132C414.612 254.78 414.776 255.28 415.104 255.632C415.432 255.976 415.88 256.148 416.448 256.148C417.032 256.148 417.492 255.968 417.828 255.608C418.164 255.248 418.332 254.724 418.332 254.036V250.424H419.424Z" fill="#9E9E9E"/>
    <path d="M476.152 248.636V249.524H472.516V252.344H475.468V253.232H472.516V257H471.424V248.636H476.152ZM478.563 251.492C478.755 251.116 479.027 250.824 479.379 250.616C479.739 250.408 480.175 250.304 480.687 250.304V251.432H480.399C479.175 251.432 478.563 252.096 478.563 253.424V257H477.471V250.424H478.563V251.492ZM482.511 249.356C482.303 249.356 482.127 249.284 481.983 249.14C481.839 248.996 481.767 248.82 481.767 248.612C481.767 248.404 481.839 248.228 481.983 248.084C482.127 247.94 482.303 247.868 482.511 247.868C482.711 247.868 482.879 247.94 483.015 248.084C483.159 248.228 483.231 248.404 483.231 248.612C483.231 248.82 483.159 248.996 483.015 249.14C482.879 249.284 482.711 249.356 482.511 249.356ZM483.039 250.424V257H481.947V250.424H483.039Z" fill="#9E9E9E"/>
    <path d="M0.456 15.32V14.324H2.712V23H1.608V15.32H0.456ZM4.58775 18.572C4.58775 17.196 4.81175 16.124 5.25975 15.356C5.70775 14.58 6.49175 14.192 7.61175 14.192C8.72375 14.192 9.50375 14.58 9.95175 15.356C10.3997 16.124 10.6237 17.196 10.6237 18.572C10.6237 19.972 10.3997 21.06 9.95175 21.836C9.50375 22.612 8.72375 23 7.61175 23C6.49175 23 5.70775 22.612 5.25975 21.836C4.81175 21.06 4.58775 19.972 4.58775 18.572ZM9.54375 18.572C9.54375 17.876 9.49575 17.288 9.39975 16.808C9.31175 16.32 9.12375 15.928 8.83575 15.632C8.55575 15.336 8.14775 15.188 7.61175 15.188C7.06775 15.188 6.65175 15.336 6.36375 15.632C6.08375 15.928 5.89575 16.32 5.79975 16.808C5.71175 17.288 5.66775 17.876 5.66775 18.572C5.66775 19.292 5.71175 19.896 5.79975 20.384C5.89575 20.872 6.08375 21.264 6.36375 21.56C6.65175 21.856 7.06775 22.004 7.61175 22.004C8.14775 22.004 8.55575 21.856 8.83575 21.56C9.12375 21.264 9.31175 20.872 9.39975 20.384C9.49575 19.896 9.54375 19.292 9.54375 18.572Z" fill="#9E9E9E"/>
    <path d="M2.328 69.488C1.88 69.312 1.536 69.056 1.296 68.72C1.056 68.384 0.936 67.976 0.936 67.496C0.936 67.064 1.044 66.676 1.26 66.332C1.476 65.98 1.796 65.704 2.22 65.504C2.652 65.296 3.172 65.192 3.78 65.192C4.388 65.192 4.904 65.296 5.328 65.504C5.76 65.704 6.084 65.98 6.3 66.332C6.524 66.676 6.636 67.064 6.636 67.496C6.636 67.96 6.512 68.368 6.264 68.72C6.016 69.064 5.676 69.32 5.244 69.488C5.74 69.64 6.132 69.908 6.42 70.292C6.716 70.668 6.864 71.124 6.864 71.66C6.864 72.18 6.736 72.636 6.48 73.028C6.224 73.412 5.86 73.712 5.388 73.928C4.924 74.136 4.388 74.24 3.78 74.24C3.172 74.24 2.636 74.136 2.172 73.928C1.716 73.712 1.36 73.412 1.104 73.028C0.848 72.636 0.72 72.18 0.72 71.66C0.72 71.124 0.864 70.664 1.152 70.28C1.44 69.896 1.832 69.632 2.328 69.488ZM5.58 67.628C5.58 67.14 5.42 66.764 5.1 66.5C4.78 66.236 4.34 66.104 3.78 66.104C3.228 66.104 2.792 66.236 2.472 66.5C2.152 66.764 1.992 67.144 1.992 67.64C1.992 68.088 2.156 68.448 2.484 68.72C2.82 68.992 3.252 69.128 3.78 69.128C4.316 69.128 4.748 68.992 5.076 68.72C5.412 68.44 5.58 68.076 5.58 67.628ZM3.78 69.968C3.188 69.968 2.704 70.108 2.328 70.388C1.952 70.66 1.764 71.072 1.764 71.624C1.764 72.136 1.944 72.548 2.304 72.86C2.672 73.172 3.164 73.328 3.78 73.328C4.396 73.328 4.884 73.172 5.244 72.86C5.604 72.548 5.784 72.136 5.784 71.624C5.784 71.088 5.6 70.68 5.232 70.4C4.864 70.112 4.38 69.968 3.78 69.968Z" fill="#9E9E9E"/>
    <path d="M5.58 118.388C5.404 117.5 4.856 117.056 3.936 117.056C3.224 117.056 2.692 117.332 2.34 117.884C1.988 118.428 1.816 119.328 1.824 120.584C2.008 120.168 2.312 119.844 2.736 119.612C3.168 119.372 3.648 119.252 4.176 119.252C5 119.252 5.656 119.508 6.144 120.02C6.64 120.532 6.888 121.24 6.888 122.144C6.888 122.688 6.78 123.176 6.564 123.608C6.356 124.04 6.036 124.384 5.604 124.64C5.18 124.896 4.664 125.024 4.056 125.024C3.232 125.024 2.588 124.84 2.124 124.472C1.66 124.104 1.336 123.596 1.152 122.948C0.968 122.3 0.876 121.5 0.876 120.548C0.876 117.612 1.9 116.144 3.948 116.144C4.732 116.144 5.348 116.356 5.796 116.78C6.244 117.204 6.508 117.74 6.588 118.388H5.58ZM3.948 120.176C3.604 120.176 3.28 120.248 2.976 120.392C2.672 120.528 2.424 120.74 2.232 121.028C2.048 121.308 1.956 121.652 1.956 122.06C1.956 122.668 2.132 123.164 2.484 123.548C2.836 123.924 3.34 124.112 3.996 124.112C4.556 124.112 5 123.94 5.328 123.596C5.664 123.244 5.832 122.772 5.832 122.18C5.832 121.556 5.672 121.068 5.352 120.716C5.032 120.356 4.564 120.176 3.948 120.176Z" fill="#9E9E9E"/>
    <path d="M0.48 174.068V173.24L4.692 167.408H6V173.12H7.2V174.068H6V176H4.92V174.068H0.48ZM4.968 168.548L1.74 173.12H4.968V168.548Z" fill="#9E9E9E"/>
    <path d="M0.612 226.124C1.628 225.308 2.424 224.64 3 224.12C3.576 223.592 4.06 223.044 4.452 222.476C4.852 221.9 5.052 221.336 5.052 220.784C5.052 220.264 4.924 219.856 4.668 219.56C4.42 219.256 4.016 219.104 3.456 219.104C2.912 219.104 2.488 219.276 2.184 219.62C1.888 219.956 1.728 220.408 1.704 220.976H0.648C0.68 220.08 0.952 219.388 1.464 218.9C1.976 218.412 2.636 218.168 3.444 218.168C4.268 218.168 4.92 218.396 5.4 218.852C5.888 219.308 6.132 219.936 6.132 220.736C6.132 221.4 5.932 222.048 5.532 222.68C5.14 223.304 4.692 223.856 4.188 224.336C3.684 224.808 3.04 225.36 2.256 225.992H6.384V226.904H0.612V226.124Z" fill="#9E9E9E"/>
    <g opacity="0.1">
    <rect x="58" y="207" width="8" height="16" fill="#3A6FF8"/>
    <rect x="71" y="201" width="8" height="22" fill="#3A6FF8"/>
    <rect x="84" y="191" width="8" height="32" fill="#3A6FF8"/>
    <rect x="97" y="206" width="8" height="17" fill="#3A6FF8"/>
    <rect x="110" y="213" width="8" height="10" fill="#3A6FF8"/>
    <rect x="123" y="210" width="8" height="13" fill="#3A6FF8"/>
    <rect x="136" y="199" width="8" height="24" fill="#3A6FF8"/>
    <rect x="149" y="209" width="8" height="14" fill="#3A6FF8"/>
    <rect x="162" y="215" width="8" height="8" fill="#3A6FF8"/>
    <rect x="175" y="207" width="8" height="16" fill="#3A6FF8"/>
    <rect x="188" y="201" width="8" height="22" fill="#3A6FF8"/>
    <rect x="201" y="191" width="8" height="32" fill="#3A6FF8"/>
    <rect x="214" y="206" width="8" height="17" fill="#3A6FF8"/>
    <rect x="227" y="213" width="8" height="10" fill="#3A6FF8"/>
    <rect x="240" y="209" width="8" height="14" fill="#3A6FF8"/>
    <rect x="253" y="215" width="8" height="8" fill="#3A6FF8"/>
    <rect x="266" y="191" width="8" height="32" fill="#3A6FF8"/>
    <rect x="279" y="206" width="8" height="17" fill="#3A6FF8"/>
    <rect x="292" y="213" width="8" height="10" fill="#3A6FF8"/>
    <rect x="305" y="210" width="8" height="13" fill="#3A6FF8"/>
    <rect x="318" y="199" width="8" height="24" fill="#3A6FF8"/>
    <rect x="331" y="207" width="8" height="16" fill="#3A6FF8"/>
    <rect x="344" y="209" width="8" height="14" fill="#3A6FF8"/>
    <rect x="357" y="215" width="8" height="8" fill="#3A6FF8"/>
    <rect x="370" y="191" width="8" height="32" fill="#3A6FF8"/>
    <rect x="383" y="206" width="8" height="17" fill="#3A6FF8"/>
    <rect x="396" y="213" width="8" height="10" fill="#3A6FF8"/>
    <rect x="409" y="209" width="8" height="14" fill="#3A6FF8"/>
    <rect x="422" y="215" width="8" height="8" fill="#3A6FF8"/>
    <rect x="435" y="191" width="8" height="32" fill="#3A6FF8"/>
    <rect x="448" y="206" width="8" height="17" fill="#3A6FF8"/>
    <rect x="461" y="213" width="8" height="10" fill="#3A6FF8"/>
    <rect x="474" y="199" width="8" height="24" fill="#3A6FF8"/>
    <rect x="487" y="209" width="8" height="14" fill="#3A6FF8"/>
    <rect x="500" y="215" width="8" height="8" fill="#3A6FF8"/>
    <rect x="513" y="207" width="8" height="16" fill="#3A6FF8"/>
    <rect x="526" y="201" width="8" height="22" fill="#3A6FF8"/>
    </g>
    </svg>
    