<svg width="31" height="31" viewBox="0 0 31 31" fill="none" xmlns="http://www.w3.org/2000/svg">
    <circle cx="15.5" cy="15.5" r="15.5" fill="white"/>
    <path d="M25.1618 18.4959C24.5814 20.3906 23.4182 22.0541 21.8376 23.2495C20.45 24.2939 18.7987 24.9309 17.0691 25.0889C15.3395 25.247 13.6001 24.9198 12.0462 24.1442C10.4922 23.3687 9.18513 22.1753 8.2717 20.6981C7.35827 19.221 6.87462 17.5184 6.87504 15.7817C6.86886 13.7545 7.52787 11.7813 8.75098 10.1646C9.94639 8.5841 11.6098 7.42085 13.5046 6.84042C13.6295 6.80197 13.7625 6.79829 13.8893 6.82977C14.0161 6.86126 14.132 6.92672 14.2244 7.01911C14.3168 7.11151 14.3822 7.22734 14.4137 7.35416C14.4452 7.48098 14.4415 7.61398 14.4031 7.73886C13.9887 9.10936 13.954 10.5666 14.3025 11.9553C14.6511 13.344 15.3699 14.6121 16.3823 15.6245C17.3947 16.6369 18.6628 17.3557 20.0515 17.7042C21.4402 18.0528 22.8974 18.018 24.2679 17.6037C24.3928 17.5653 24.5258 17.5616 24.6526 17.5931C24.7794 17.6245 24.8952 17.69 24.9876 17.7824C25.08 17.8748 25.1455 17.9906 25.177 18.1174C25.2085 18.2443 25.2048 18.3773 25.1663 18.5021L25.1618 18.4959Z" fill="#0D0E10"/>
    </svg>
    