<svg width="27" height="27" viewBox="0 0 27 27" fill="none" xmlns="http://www.w3.org/2000/svg">
    <path fill-rule="evenodd" clip-rule="evenodd" d="M26.6667 13.3333C26.6667 20.6973 20.6973 26.6667 13.3333 26.6667C5.96933 26.6667 0 20.6973 0 13.3333C0 5.96933 5.96933 0 13.3333 0C20.6973 0 26.6667 5.96933 26.6667 13.3333ZM13.3333 4.33333C13.5985 4.33333 13.8529 4.43869 14.0404 4.62623C14.228 4.81376 14.3333 5.06812 14.3333 5.33333V5.756C16.5067 6.14533 18.3333 7.77867 18.3333 10C18.3333 10.2652 18.228 10.5196 18.0404 10.7071C17.8529 10.8946 17.5986 11 17.3333 11C17.0681 11 16.8138 10.8946 16.6262 10.7071C16.4387 10.5196 16.3333 10.2652 16.3333 10C16.3333 9.096 15.5813 8.13733 14.3333 7.796V12.4227C16.5067 12.812 18.3333 14.4453 18.3333 16.6667C18.3333 18.888 16.5067 20.5213 14.3333 20.9107V21.3333C14.3333 21.5986 14.228 21.8529 14.0404 22.0404C13.8529 22.228 13.5985 22.3333 13.3333 22.3333C13.0681 22.3333 12.8138 22.228 12.6262 22.0404C12.4387 21.8529 12.3333 21.5986 12.3333 21.3333V20.9107C10.16 20.5213 8.33333 18.888 8.33333 16.6667C8.33333 16.4015 8.43869 16.1471 8.62623 15.9596C8.81376 15.772 9.06812 15.6667 9.33333 15.6667C9.59855 15.6667 9.8529 15.772 10.0404 15.9596C10.228 16.1471 10.3333 16.4015 10.3333 16.6667C10.3333 17.5707 11.0853 18.5293 12.3333 18.8693V14.244C10.16 13.8547 8.33333 12.2213 8.33333 10C8.33333 7.77867 10.16 6.14533 12.3333 5.756V5.33333C12.3333 5.06812 12.4387 4.81376 12.6262 4.62623C12.8138 4.43869 13.0681 4.33333 13.3333 4.33333Z" fill="#56AD95"/>
    <path d="M12 8C10.752 8.34133 10 9.3 10 10.204C10 11.108 10.752 12.0667 12 12.4067V8ZM14 14.668V19.0733C15.248 18.7333 16 17.7747 16 16.8707C16 15.9667 15.248 15.008 14 14.668Z" fill="#56AD95"/>
    </svg>
    