<svg width="16" height="16" viewBox="0 0 16 16" fill="none" xmlns="http://www.w3.org/2000/svg">
<g clip-path="url(#clip0_120_385)">
<path d="M11.8428 8.64406L9.9552 10.5316L9.17712 9.75356C8.99414 9.57057 8.69727 9.57057 8.51428 9.75368C8.33118 9.93666 8.33118 10.2335 8.51428 10.4166L9.6239 11.526C9.71533 11.6176 9.83533 11.6633 9.95532 11.6633C10.0753 11.6633 10.1952 11.6176 10.2867 11.526L12.5057 9.30702C12.6888 9.12404 12.6888 8.82716 12.5057 8.64418C12.3226 8.46107 12.0259 8.46107 11.8428 8.64406Z" fill="#718096"/>
<path d="M13.9623 5.73938H10.9791V2.03772C10.9791 0.914185 10.0649 0 8.94128 0H2.0376C0.914062 0 0 0.914185 0 2.03772V6.65381C0 7.61609 0.670654 8.42419 1.56885 8.63647V9.79187C1.56885 9.98145 1.68311 10.1523 1.85828 10.225C1.91626 10.249 1.97717 10.2606 2.0376 10.2606C2.15955 10.2606 2.27942 10.213 2.36914 10.1233L3.8009 8.69165H5.021V12.3932C5.021 13.5168 5.93506 14.4309 7.05859 14.4309H12.1991L13.6307 15.8627C13.7205 15.9524 13.8403 16 13.9624 16C14.0227 16 14.0836 15.9884 14.1416 15.9644C14.3168 15.8917 14.431 15.7208 14.431 15.5312V14.3766C15.3295 14.1643 16 13.3556 16 12.3932V7.7771C16 6.65344 15.0858 5.73938 13.9623 5.73938ZM3.60669 7.75415C3.4823 7.75415 3.36304 7.80347 3.27527 7.89136L2.50635 8.66016V8.2229C2.50635 7.96399 2.29651 7.75415 2.0376 7.75415C1.43103 7.75415 0.9375 7.2605 0.9375 6.65381V2.03772C0.9375 1.43103 1.43103 0.9375 2.0376 0.9375H8.94128C9.54797 0.9375 10.0416 1.43103 10.0416 2.03772V5.73938H7.05859C5.94275 5.73938 5.03394 6.64111 5.02148 7.75415H3.60669ZM15.0625 12.3932C15.0625 12.9999 14.569 13.4934 13.9623 13.4934C13.7034 13.4934 13.4935 13.7034 13.4935 13.9622V14.3995L12.7247 13.6307C12.6368 13.5427 12.5176 13.4934 12.3932 13.4934H7.05859C6.45203 13.4934 5.9585 12.9999 5.9585 12.3932V7.7771C5.9585 7.17041 6.45203 6.67688 7.05859 6.67688H13.9623C14.569 6.67688 15.0625 7.17041 15.0625 7.7771V12.3932Z" fill="#718096"/>
</g>
<defs>
<clipPath id="clip0_120_385">
<rect width="16" height="16" fill="white"/>
</clipPath>
</defs>
</svg>
