<svg width="28" height="34" viewBox="0 0 28 34" fill="none" xmlns="http://www.w3.org/2000/svg">
    <path d="M18.1999 18.5C22.5077 18.5 25.9999 17.1569 25.9999 15.5C25.9999 13.8431 22.5077 12.5 18.1999 12.5C13.8921 12.5 10.3999 13.8431 10.3999 15.5C10.3999 17.1569 13.8921 18.5 18.1999 18.5Z" stroke="#F0B90B" stroke-width="3.3125" stroke-linecap="round" stroke-linejoin="round"/>
    <path d="M25.9999 22.25C25.9999 23.9075 22.5079 25.25 18.1999 25.25C13.8919 25.25 10.3999 23.9075 10.3999 22.25" stroke="#F0B90B" stroke-width="3.3125" stroke-linecap="round" stroke-linejoin="round"/>
    <path d="M25.9999 15.5V28.7C25.9999 30.5225 22.5079 32 18.1999 32C13.8919 32 10.3999 30.5225 10.3999 28.7V15.5" stroke="#F0B90B" stroke-width="3.3125" stroke-linecap="round" stroke-linejoin="round"/>
    <path d="M9.79999 8C14.1078 8 17.6 6.65685 17.6 5C17.6 3.34315 14.1078 2 9.79999 2C5.49218 2 2 3.34315 2 5C2 6.65685 5.49218 8 9.79999 8Z" stroke="#F0B90B" stroke-width="3.3125" stroke-linecap="round" stroke-linejoin="round"/>
    <path d="M6.8 15.5C4.5296 15.155 2.444 14.2625 2 12.5M6.8 23C4.5296 22.655 2.444 21.7625 2 20" stroke="#F0B90B" stroke-width="3.3125" stroke-linecap="round" stroke-linejoin="round"/>
    <path d="M6.8 30.5C4.5296 30.155 2.444 29.261 2 27.5V5M17.6 8V5" stroke="#F0B90B" stroke-width="3.3125" stroke-linecap="round" stroke-linejoin="round"/>
    </svg>
    