<svg width="17" height="17" viewBox="0 0 17 17" fill="none" xmlns="http://www.w3.org/2000/svg">
    <path d="M8.125 0.5C3.71366 0.5 0.125 4.08884 0.125 8.5C0.125 12.9112 3.71366 16.5 8.125 16.5C12.5363 16.5 16.125 12.9112 16.125 8.5C16.125 4.08884 12.5363 0.5 8.125 0.5ZM11.8825 7.60941L8.16712 11.3247C7.75953 11.7323 7.09919 11.7323 6.69156 11.3247L4.54144 9.17459C4.13381 8.76716 4.13381 8.1065 4.54144 7.69903C4.94906 7.29141 5.60938 7.29141 6.017 7.69903L7.42934 9.11122L10.4069 6.13378C10.8145 5.72616 11.4748 5.72616 11.8825 6.13378C12.2901 6.54128 12.2901 7.20194 11.8825 7.60941Z" fill="#187302"/>
    </svg>
    