<svg width="16" height="17" viewBox="0 0 16 17" fill="none" xmlns="http://www.w3.org/2000/svg">
<path d="M9.06904 11.7729C8.90548 11.7881 8.74126 11.7512 8.59995 11.6674C8.4967 11.5614 8.4472 11.4142 8.46542 11.2674C8.46923 11.1452 8.48382 11.0235 8.50904 10.9038C8.53345 10.7665 8.56498 10.6305 8.60358 10.4965L9.03267 9.02012C9.07692 8.87441 9.10617 8.72453 9.11995 8.57284C9.11995 8.40922 9.14176 8.29647 9.14176 8.23103C9.15089 7.93937 9.02636 7.6595 8.80358 7.47103C8.52954 7.26066 8.18829 7.15725 7.84358 7.18012C7.59654 7.18384 7.35142 7.22428 7.11629 7.30012C6.85933 7.38012 6.58901 7.47587 6.30539 7.58741L6.18176 8.06741C6.26539 8.03831 6.36723 8.00559 6.48358 7.96922C6.59458 7.93634 6.70964 7.91919 6.82539 7.91831C6.98776 7.90072 7.1512 7.94059 7.2872 8.03103C7.37958 8.14125 7.42292 8.28444 7.4072 8.42741C7.40679 8.54969 7.39339 8.67159 7.3672 8.79103C7.34173 8.91831 7.30901 9.05284 7.26901 9.19466L6.83629 10.6783C6.80142 10.8162 6.77351 10.9557 6.75267 11.0965C6.73567 11.2169 6.72717 11.3384 6.7272 11.4601C6.72542 11.7537 6.8597 12.0317 7.09083 12.2128C7.36908 12.4265 7.7152 12.5324 8.06536 12.511C8.31192 12.5161 8.55764 12.4804 8.79264 12.4055C8.9987 12.3352 9.27386 12.2346 9.61811 12.1037L9.73448 11.6455C9.64123 11.6842 9.5452 11.7158 9.4472 11.7401C9.32326 11.7684 9.19601 11.7794 9.06904 11.7729Z" fill="black"/>
<path d="M9.52358 4.77256C9.32567 4.59081 9.06492 4.49303 8.79629 4.49985C8.52783 4.49378 8.26733 4.59147 8.06901 4.77256C7.70551 5.086 7.66492 5.63478 7.97839 5.99831C8.00633 6.03072 8.03661 6.061 8.06901 6.08894C8.48314 6.45935 9.10945 6.45935 9.52354 6.08894C9.88704 5.77241 9.92514 5.22116 9.60861 4.85766C9.58229 4.82738 9.55386 4.79894 9.52358 4.77256Z" fill="black"/>
<path d="M8 0.5C3.58172 0.5 0 4.08172 0 8.5C0 12.9183 3.58172 16.5 8 16.5C12.4183 16.5 16 12.9183 16 8.5C16 4.08172 12.4183 0.5 8 0.5ZM8 15.7727C3.98338 15.7727 0.727281 12.5166 0.727281 8.5C0.727281 4.48338 3.98338 1.22728 8 1.22728C12.0166 1.22728 15.2727 4.48338 15.2727 8.5C15.2727 12.5166 12.0166 15.7727 8 15.7727Z" fill="black"/>
</svg>
