<svg width="32" height="33" viewBox="0 0 32 33" fill="none" xmlns="http://www.w3.org/2000/svg">
<circle cx="16" cy="16.5" r="16" fill="#E2E8F0"/>
<g clip-path="url(#clip0_8_1071)">
<path d="M19.5844 8.5H12.4153C9.98071 8.5 8 10.4808 8 12.9154V20.0845C8 22.5192 9.98071 24.4999 12.4153 24.4999H19.5844C22.0192 24.4999 23.9999 22.5191 23.9999 20.0845V12.9154C24 10.4808 22.0192 8.5 19.5844 8.5ZM22.5804 20.0845C22.5804 21.7364 21.2364 23.0803 19.5845 23.0803H12.4153C10.7635 23.0804 9.41959 21.7364 9.41959 20.0845V12.9154C9.41959 11.2636 10.7635 9.91959 12.4153 9.91959H19.5844C21.2363 9.91959 22.5803 11.2636 22.5803 12.9154V20.0845H22.5804Z" fill="black"/>
<path d="M16 12.3774C13.7266 12.3774 11.8772 14.2269 11.8772 16.5002C11.8772 18.7734 13.7266 20.6228 16 20.6228C18.2733 20.6228 20.1227 18.7734 20.1227 16.5002C20.1227 14.2269 18.2733 12.3774 16 12.3774ZM16 19.2031C14.5095 19.2031 13.2968 17.9906 13.2968 16.5001C13.2968 15.0095 14.5094 13.7969 16 13.7969C17.4905 13.7969 18.7031 15.0095 18.7031 16.5001C18.7031 17.9906 17.4904 19.2031 16 19.2031Z" fill="black"/>
<path d="M20.2957 11.1736C20.0222 11.1736 19.7535 11.2843 19.5603 11.4783C19.3662 11.6714 19.2546 11.9402 19.2546 12.2146C19.2546 12.4882 19.3663 12.7569 19.5603 12.9509C19.7534 13.144 20.0222 13.2556 20.2957 13.2556C20.5701 13.2556 20.838 13.144 21.032 12.9509C21.226 12.7569 21.3367 12.4881 21.3367 12.2146C21.3367 11.9402 21.226 11.6714 21.032 11.4783C20.8389 11.2843 20.5701 11.1736 20.2957 11.1736Z" fill="black"/>
</g>
<defs>
<clipPath id="clip0_8_1071">
<rect width="16" height="16" fill="white" transform="translate(8 8.5)"/>
</clipPath>
</defs>
</svg>
