<svg width="100%" height="100%" viewBox="0 0 100% 100%" fill="none" xmlns="http://www.w3.org/2000/svg">
    <rect width="364" height="191" fill="#121315"/>
    <path d="M16.4372 25.746L16.6052 24.78L22.7232 17.976H24.2492L23.0872 24.64H24.4872L24.2772 25.746H22.8772L22.4852 28H21.2252L21.6312 25.746H16.4372ZM22.8212 19.306L18.1172 24.64H21.8832L22.8212 19.306ZM26.0679 22.918C26.3479 21.3313 26.8239 20.09 27.4959 19.194C28.1772 18.298 29.1712 17.85 30.4779 17.85C31.4859 17.85 32.2046 18.1253 32.6339 18.676C33.0726 19.2173 33.2919 19.978 33.2919 20.958C33.2919 21.5367 33.2266 22.19 33.0959 22.918C32.8159 24.514 32.3352 25.76 31.6539 26.656C30.9819 27.552 29.9926 28 28.6859 28C27.6779 28 26.9546 27.7293 26.5159 27.188C26.0866 26.6373 25.8719 25.8673 25.8719 24.878C25.8719 24.2993 25.9372 23.646 26.0679 22.918ZM31.8499 22.918C31.9806 22.1527 32.0459 21.5413 32.0459 21.084C32.0459 20.4213 31.9106 19.9127 31.6399 19.558C31.3786 19.194 30.9259 19.012 30.2819 19.012C29.6472 19.012 29.1339 19.1847 28.7419 19.53C28.3499 19.866 28.0466 20.314 27.8319 20.874C27.6266 21.434 27.4539 22.1153 27.3139 22.918C27.1832 23.6833 27.1179 24.2993 27.1179 24.766C27.1179 25.4287 27.2486 25.942 27.5099 26.306C27.7806 26.6607 28.2379 26.838 28.8819 26.838C29.5166 26.838 30.0299 26.67 30.4219 26.334C30.8139 25.9887 31.1126 25.536 31.3179 24.976C31.5232 24.416 31.7006 23.73 31.8499 22.918ZM37.2389 24.164L40.1789 28H38.4429L36.0349 24.626L35.4329 28H34.1589L35.9929 17.64H37.2669L36.1889 23.716L39.7449 20.328H41.5089L37.2389 24.164Z" fill="#767676"/>
    <path d="M49 23.5H344" stroke="#313131"/>
    <path d="M18.2158 56.426C18.4304 55.5673 18.8831 54.8953 19.5738 54.41C20.2644 53.9247 21.0858 53.682 22.0378 53.682C22.8871 53.682 23.5358 53.878 23.9838 54.27C24.4318 54.6527 24.6558 55.1613 24.6558 55.796C24.6558 55.9547 24.6418 56.118 24.6138 56.286C24.5111 56.8647 24.2591 57.364 23.8578 57.784C23.4564 58.204 22.9758 58.4747 22.4158 58.596V58.666C22.9104 58.7873 23.2931 59.0207 23.5638 59.366C23.8438 59.702 23.9838 60.1407 23.9838 60.682C23.9838 60.794 23.9651 60.99 23.9278 61.27C23.7784 62.0913 23.3771 62.7633 22.7238 63.286C22.0798 63.8087 21.2491 64.07 20.2318 64.07C19.3171 64.07 18.5891 63.846 18.0478 63.398C17.5064 62.95 17.2358 62.3107 17.2358 61.48C17.2358 61.312 17.2404 61.1813 17.2498 61.088H18.4818C18.4444 61.648 18.5891 62.1053 18.9158 62.46C19.2518 62.8147 19.7464 62.992 20.3998 62.992C21.0438 62.992 21.5711 62.824 21.9818 62.488C22.3924 62.1427 22.6444 61.6993 22.7378 61.158C22.7658 60.9993 22.7798 60.8593 22.7798 60.738C22.7798 60.1967 22.5698 59.8047 22.1498 59.562C21.7298 59.31 21.0998 59.184 20.2598 59.184H19.9238L20.1198 58.12H20.4698C21.3284 58.1107 22.0004 57.9707 22.4858 57.7C22.9711 57.42 23.2651 56.9907 23.3678 56.412C23.3864 56.2627 23.3958 56.1507 23.3958 56.076C23.3958 55.6747 23.2604 55.3573 22.9898 55.124C22.7191 54.8907 22.3224 54.774 21.7998 54.774C21.2211 54.774 20.7264 54.9233 20.3158 55.222C19.9051 55.5207 19.6204 55.922 19.4618 56.426H18.2158ZM26.0679 58.918C26.3479 57.3313 26.8239 56.09 27.4959 55.194C28.1772 54.298 29.1712 53.85 30.4779 53.85C31.4859 53.85 32.2046 54.1253 32.6339 54.676C33.0726 55.2173 33.2919 55.978 33.2919 56.958C33.2919 57.5367 33.2266 58.19 33.0959 58.918C32.8159 60.514 32.3352 61.76 31.6539 62.656C30.9819 63.552 29.9926 64 28.6859 64C27.6779 64 26.9546 63.7293 26.5159 63.188C26.0866 62.6373 25.8719 61.8673 25.8719 60.878C25.8719 60.2993 25.9372 59.646 26.0679 58.918ZM31.8499 58.918C31.9806 58.1527 32.0459 57.5413 32.0459 57.084C32.0459 56.4213 31.9106 55.9127 31.6399 55.558C31.3786 55.194 30.9259 55.012 30.2819 55.012C29.6472 55.012 29.1339 55.1847 28.7419 55.53C28.3499 55.866 28.0466 56.314 27.8319 56.874C27.6266 57.434 27.4539 58.1153 27.3139 58.918C27.1832 59.6833 27.1179 60.2993 27.1179 60.766C27.1179 61.4287 27.2486 61.942 27.5099 62.306C27.7806 62.6607 28.2379 62.838 28.8819 62.838C29.5166 62.838 30.0299 62.67 30.4219 62.334C30.8139 61.9887 31.1126 61.536 31.3179 60.976C31.5232 60.416 31.7006 59.73 31.8499 58.918ZM37.2389 60.164L40.1789 64H38.4429L36.0349 60.626L35.4329 64H34.1589L35.9929 53.64H37.2669L36.1889 59.716L39.7449 56.328H41.5089L37.2389 60.164Z" fill="#767676"/>
    <path d="M49 59.5H344" stroke="#313131"/>
    <path d="M17.1332 98.978C18.4865 98.0167 19.5552 97.2373 20.3392 96.64C21.1232 96.0333 21.7998 95.4033 22.3692 94.75C22.9478 94.0873 23.2932 93.4433 23.4052 92.818C23.4332 92.65 23.4472 92.482 23.4472 92.314C23.4472 91.8753 23.3212 91.53 23.0692 91.278C22.8172 91.026 22.4158 90.9 21.8652 90.9C21.2398 90.9 20.7172 91.1007 20.2972 91.502C19.8772 91.894 19.5925 92.4213 19.4432 93.084H18.2112C18.4352 92.0387 18.8972 91.2313 19.5972 90.662C20.2972 90.0927 21.1185 89.808 22.0612 89.808C22.9012 89.808 23.5545 90.0133 24.0212 90.424C24.4972 90.8347 24.7352 91.404 24.7352 92.132C24.7352 92.356 24.7165 92.566 24.6792 92.762C24.5485 93.5087 24.1845 94.246 23.5872 94.974C22.9992 95.702 22.3598 96.3413 21.6692 96.892C20.9785 97.4427 20.1152 98.0867 19.0792 98.824H23.8952L23.7132 99.888H16.9652L17.1332 98.978ZM26.0679 94.918C26.3479 93.3313 26.8239 92.09 27.4959 91.194C28.1772 90.298 29.1712 89.85 30.4779 89.85C31.4859 89.85 32.2046 90.1253 32.6339 90.676C33.0726 91.2173 33.2919 91.978 33.2919 92.958C33.2919 93.5367 33.2266 94.19 33.0959 94.918C32.8159 96.514 32.3352 97.76 31.6539 98.656C30.9819 99.552 29.9926 100 28.6859 100C27.6779 100 26.9546 99.7293 26.5159 99.188C26.0866 98.6373 25.8719 97.8673 25.8719 96.878C25.8719 96.2993 25.9372 95.646 26.0679 94.918ZM31.8499 94.918C31.9806 94.1527 32.0459 93.5413 32.0459 93.084C32.0459 92.4213 31.9106 91.9127 31.6399 91.558C31.3786 91.194 30.9259 91.012 30.2819 91.012C29.6472 91.012 29.1339 91.1847 28.7419 91.53C28.3499 91.866 28.0466 92.314 27.8319 92.874C27.6266 93.434 27.4539 94.1153 27.3139 94.918C27.1832 95.6833 27.1179 96.2993 27.1179 96.766C27.1179 97.4287 27.2486 97.942 27.5099 98.306C27.7806 98.6607 28.2379 98.838 28.8819 98.838C29.5166 98.838 30.0299 98.67 30.4219 98.334C30.8139 97.9887 31.1126 97.536 31.3179 96.976C31.5232 96.416 31.7006 95.73 31.8499 94.918ZM37.2389 96.164L40.1789 100H38.4429L36.0349 96.626L35.4329 100H34.1589L35.9929 89.64H37.2669L36.1889 95.716L39.7449 92.328H41.5089L37.2389 96.164Z" fill="#767676"/>
    <path d="M49 95.5H344" stroke="#313131"/>
    <path d="M21.8775 127.236L22.0875 126.074H24.7195L22.9695 136H21.6815L23.2215 127.236H21.8775ZM26.0679 130.918C26.3479 129.331 26.8239 128.09 27.4959 127.194C28.1772 126.298 29.1712 125.85 30.4779 125.85C31.4859 125.85 32.2046 126.125 32.6339 126.676C33.0726 127.217 33.2919 127.978 33.2919 128.958C33.2919 129.537 33.2266 130.19 33.0959 130.918C32.8159 132.514 32.3352 133.76 31.6539 134.656C30.9819 135.552 29.9926 136 28.6859 136C27.6779 136 26.9546 135.729 26.5159 135.188C26.0866 134.637 25.8719 133.867 25.8719 132.878C25.8719 132.299 25.9372 131.646 26.0679 130.918ZM31.8499 130.918C31.9806 130.153 32.0459 129.541 32.0459 129.084C32.0459 128.421 31.9106 127.913 31.6399 127.558C31.3786 127.194 30.9259 127.012 30.2819 127.012C29.6472 127.012 29.1339 127.185 28.7419 127.53C28.3499 127.866 28.0466 128.314 27.8319 128.874C27.6266 129.434 27.4539 130.115 27.3139 130.918C27.1832 131.683 27.1179 132.299 27.1179 132.766C27.1179 133.429 27.2486 133.942 27.5099 134.306C27.7806 134.661 28.2379 134.838 28.8819 134.838C29.5166 134.838 30.0299 134.67 30.4219 134.334C30.8139 133.989 31.1126 133.536 31.3179 132.976C31.5232 132.416 31.7006 131.73 31.8499 130.918ZM37.2389 132.164L40.1789 136H38.4429L36.0349 132.626L35.4329 136H34.1589L35.9929 125.64H37.2669L36.1889 131.716L39.7449 128.328H41.5089L37.2389 132.164Z" fill="#767676"/>
    <path d="M49 131.5H344" stroke="#313131"/>
    <path d="M26.0679 166.918C26.3479 165.331 26.8239 164.09 27.4959 163.194C28.1772 162.298 29.1712 161.85 30.4779 161.85C31.4859 161.85 32.2046 162.125 32.6339 162.676C33.0726 163.217 33.2919 163.978 33.2919 164.958C33.2919 165.537 33.2266 166.19 33.0959 166.918C32.8159 168.514 32.3352 169.76 31.6539 170.656C30.9819 171.552 29.9926 172 28.6859 172C27.6779 172 26.9546 171.729 26.5159 171.188C26.0866 170.637 25.8719 169.867 25.8719 168.878C25.8719 168.299 25.9372 167.646 26.0679 166.918ZM31.8499 166.918C31.9806 166.153 32.0459 165.541 32.0459 165.084C32.0459 164.421 31.9106 163.913 31.6399 163.558C31.3786 163.194 30.9259 163.012 30.2819 163.012C29.6472 163.012 29.1339 163.185 28.7419 163.53C28.3499 163.866 28.0466 164.314 27.8319 164.874C27.6266 165.434 27.4539 166.115 27.3139 166.918C27.1832 167.683 27.1179 168.299 27.1179 168.766C27.1179 169.429 27.2486 169.942 27.5099 170.306C27.7806 170.661 28.2379 170.838 28.8819 170.838C29.5166 170.838 30.0299 170.67 30.4219 170.334C30.8139 169.989 31.1126 169.536 31.3179 168.976C31.5232 168.416 31.7006 167.73 31.8499 166.918ZM37.2389 168.164L40.1789 172H38.4429L36.0349 168.626L35.4329 172H34.1589L35.9929 161.64H37.2669L36.1889 167.716L39.7449 164.328H41.5089L37.2389 168.164Z" fill="#767676"/>
    <path d="M49 167.5H344" stroke="#313131"/>
    <path d="M63.992 178.242V185.452C63.992 186.255 63.7447 186.899 63.25 187.384C62.7553 187.86 62.102 188.098 61.29 188.098C60.4687 188.098 59.8107 187.855 59.316 187.37C58.8213 186.875 58.574 186.203 58.574 185.354H59.848C59.8573 185.83 59.9787 186.217 60.212 186.516C60.4547 186.815 60.814 186.964 61.29 186.964C61.766 186.964 62.1207 186.824 62.354 186.544C62.5873 186.255 62.704 185.891 62.704 185.452V178.242H63.992ZM72.2698 185.83H68.0138L67.2298 188H65.8858L69.4138 178.298H70.8838L74.3978 188H73.0538L72.2698 185.83ZM71.9058 184.794L70.1418 179.866L68.3778 184.794H71.9058ZM83.6074 188H82.3334L77.2094 180.23V188H75.9354V178.228H77.2094L82.3334 185.984V178.228H83.6074V188Z" fill="#767676"/>
    <path d="M128.594 178.242V179.278H124.352V182.568H127.796V183.604H124.352V188H123.078V178.242H128.594ZM131.407 179.278V182.54H134.963V183.59H131.407V186.95H135.383V188H130.133V178.228H135.383V179.278H131.407ZM142.196 182.974C142.551 183.03 142.873 183.175 143.162 183.408C143.461 183.641 143.694 183.931 143.862 184.276C144.04 184.621 144.128 184.99 144.128 185.382C144.128 185.877 144.002 186.325 143.75 186.726C143.498 187.118 143.13 187.431 142.644 187.664C142.168 187.888 141.604 188 140.95 188H137.31V178.242H140.81C141.473 178.242 142.038 178.354 142.504 178.578C142.971 178.793 143.321 179.087 143.554 179.46C143.788 179.833 143.904 180.253 143.904 180.72C143.904 181.299 143.746 181.779 143.428 182.162C143.12 182.535 142.71 182.806 142.196 182.974ZM138.584 182.456H140.726C141.324 182.456 141.786 182.316 142.112 182.036C142.439 181.756 142.602 181.369 142.602 180.874C142.602 180.379 142.439 179.992 142.112 179.712C141.786 179.432 141.314 179.292 140.698 179.292H138.584V182.456ZM140.838 186.95C141.473 186.95 141.968 186.801 142.322 186.502C142.677 186.203 142.854 185.788 142.854 185.256C142.854 184.715 142.668 184.29 142.294 183.982C141.921 183.665 141.422 183.506 140.796 183.506H138.584V186.95H140.838Z" fill="#767676"/>
    <path d="M190.976 178.312V188H189.702V180.776L186.482 188H185.586L182.352 180.762V188H181.078V178.312H182.45L186.034 186.32L189.618 178.312H190.976ZM198.905 185.83H194.649L193.865 188H192.521L196.049 178.298H197.519L201.033 188H199.689L198.905 185.83ZM198.541 184.794L196.777 179.866L195.013 184.794H198.541ZM207.708 188L205.384 184.01H203.844V188H202.57V178.242H205.72C206.458 178.242 207.078 178.368 207.582 178.62C208.096 178.872 208.478 179.213 208.73 179.642C208.982 180.071 209.108 180.561 209.108 181.112C209.108 181.784 208.912 182.377 208.52 182.89C208.138 183.403 207.559 183.744 206.784 183.912L209.234 188H207.708ZM203.844 182.988H205.72C206.411 182.988 206.929 182.82 207.274 182.484C207.62 182.139 207.792 181.681 207.792 181.112C207.792 180.533 207.62 180.085 207.274 179.768C206.938 179.451 206.42 179.292 205.72 179.292H203.844V182.988Z" fill="#767676"/>
    <path d="M250.846 185.83H246.59L245.806 188H244.462L247.99 178.298H249.46L252.974 188H251.63L250.846 185.83ZM250.482 184.794L248.718 179.866L246.954 184.794H250.482ZM261.036 181.098C261.036 181.91 260.756 182.587 260.196 183.128C259.645 183.66 258.8 183.926 257.662 183.926H255.786V188H254.512V178.242H257.662C258.763 178.242 259.598 178.508 260.168 179.04C260.746 179.572 261.036 180.258 261.036 181.098ZM257.662 182.876C258.371 182.876 258.894 182.722 259.23 182.414C259.566 182.106 259.734 181.667 259.734 181.098C259.734 179.894 259.043 179.292 257.662 179.292H255.786V182.876H257.662ZM267.757 188L265.433 184.01H263.893V188H262.619V178.242H265.769C266.506 178.242 267.127 178.368 267.631 178.62C268.144 178.872 268.527 179.213 268.779 179.642C269.031 180.071 269.157 180.561 269.157 181.112C269.157 181.784 268.961 182.377 268.569 182.89C268.186 183.403 267.608 183.744 266.833 183.912L269.283 188H267.757ZM263.893 182.988H265.769C266.46 182.988 266.978 182.82 267.323 182.484C267.668 182.139 267.841 181.681 267.841 181.112C267.841 180.533 267.668 180.085 267.323 179.768C266.987 179.451 266.469 179.292 265.769 179.292H263.893V182.988Z" fill="#767676"/>
    <path d="M315.476 178.312V188H314.202V180.776L310.982 188H310.086L306.852 180.762V188H305.578V178.312H306.95L310.534 186.32L314.118 178.312H315.476ZM323.405 185.83H319.149L318.365 188H317.021L320.549 178.298H322.019L325.533 188H324.189L323.405 185.83ZM323.041 184.794L321.277 179.866L319.513 184.794H323.041ZM333.902 178.242L330.724 184.318V188H329.45V184.318L326.258 178.242H327.672L330.08 183.184L332.488 178.242H333.902Z" fill="#767676"/>
    <rect x="60.5" y="63.5" width="6" height="104" fill="#F83DEB"/>
    <rect width="6" height="81" transform="matrix(-1 0 0 1 117.66 86.5)" fill="#F83DEB"/>
    <rect x="162.82" y="30.5" width="6" height="39" fill="#F83DEB"/>
    <rect x="162.82" y="69.5" width="6" height="98" fill="#F83DEB"/>
    <rect width="6" height="81" transform="matrix(-1 0 0 1 219.98 86.5)" fill="#F83DEB"/>
    <rect x="266.14" y="63.5" width="6" height="104" fill="#F83DEB"/>
    <rect width="6" height="81" transform="matrix(-1 0 0 1 323.3 86.5)" fill="#F83DEB"/>
    <rect x="64" y="120" width="6" height="44" fill="#FFCC4C"/>
    <rect x="115" y="134" width="6" height="30" fill="#FFCC4C"/>
    <rect x="166" y="107" width="6" height="57" fill="#FFCC4C"/>
    <rect x="217" y="134" width="6" height="30" fill="#FFCC4C"/>
    <rect x="269" y="128" width="6" height="36" fill="#FFCC4C"/>
    <rect x="321" y="132" width="6" height="32" fill="#FFCC4C"/>
    </svg>
    