<svg width="32" height="40" viewBox="0 0 32 40" fill="none" xmlns="http://www.w3.org/2000/svg">
<path d="M16.1519 1C11.3706 1 8.2719 4.838 4.60619 6.2345C3.11641 6.8045 2.36985 7.0876 2.06955 7.4885C1.76757 7.8875 1.67865 8.4746 1.50249 9.645C-0.388244 22.1774 3.74386 33.7636 13.5968 38.2742C14.6554 38.7587 15.1856 39 16.157 39C17.1283 39 17.6602 38.7587 18.7188 38.2742C28.5717 33.7636 32.6988 22.1774 30.8081 9.645C30.6302 8.4746 30.543 7.8894 30.241 7.4885C29.939 7.0876 29.1942 6.8045 27.7044 6.2345C24.037 4.838 20.9333 1 16.1519 1Z" stroke="#F0B90B" stroke-width="1.5" stroke-linecap="round" stroke-linejoin="round"/>
<path d="M15.8751 20.3175C17.6451 22.322 19.977 24.3588 19.977 24.3588L23.173 20.7393C23.173 20.7393 21.3745 18.0983 19.6046 16.0938C17.8347 14.0893 15.5027 12.0525 15.5027 12.0525L12.3067 15.672C12.3067 15.672 14.1052 18.313 15.8751 20.3175ZM15.8751 20.3175L10.2834 26.6502M23.7048 20.1351L19.4435 24.9611M16.0379 11.4502L11.7766 16.2762" stroke="#F0B90B" stroke-width="1.5" stroke-linecap="round" stroke-linejoin="round"/>
</svg>
