<svg width="32" height="33" viewBox="0 0 32 33" fill="none" xmlns="http://www.w3.org/2000/svg">
<circle cx="16" cy="16.5" r="16" fill="#E2E8F0"/>
<g clip-path="url(#clip0_8_1063)">
<path d="M9.92306 8.51367C8.86035 8.51367 8.00017 9.3754 8 10.4357C8 11.497 8.86018 12.3586 9.92323 12.3586C10.9834 12.3586 11.8447 11.497 11.8447 10.4357C11.8447 9.37522 10.9832 8.51367 9.92306 8.51367Z" fill="black"/>
<path d="M8.2644 13.8171H11.5805V24.4862H8.2644V13.8171Z" fill="black"/>
<path d="M20.0223 13.5518C18.4092 13.5518 17.3276 14.4362 16.8848 15.2749H16.8405V13.817H13.6601H13.6599V24.486H16.973V19.208C16.973 17.8165 17.238 16.4688 18.9632 16.4688C20.6636 16.4688 20.6863 18.0602 20.6863 19.2972V24.4858H23.9999V18.6339C23.9999 15.7614 23.3801 13.5518 20.0223 13.5518Z" fill="black"/>
</g>
<defs>
<clipPath id="clip0_8_1063">
<rect width="16" height="16" fill="white" transform="translate(8 8.5)"/>
</clipPath>
</defs>
</svg>
