<svg width="25" height="24" viewBox="0 0 25 24" fill="none" xmlns="http://www.w3.org/2000/svg">
    <g clip-path="url(#clip0_193_2084)">
    <path fill-rule="evenodd" clip-rule="evenodd" d="M0.5 2.57143C0.5 1.88944 0.770918 1.23539 1.25315 0.753154C1.73539 0.270918 2.38944 0 3.07143 0L15.0714 0C15.7534 0 16.4075 0.270918 16.8897 0.753154C17.3719 1.23539 17.6429 1.88944 17.6429 2.57143V5.89543C16.9473 6.45257 16.496 7.25865 16.3846 8.14286H10.3571C9.85062 8.14286 9.34905 8.24263 8.88108 8.43646C8.41311 8.6303 7.9879 8.91442 7.62973 9.27259C7.27156 9.63076 6.98745 10.056 6.79361 10.5239C6.59977 10.9919 6.5 11.4935 6.5 12C6.5 12.5065 6.59977 13.0081 6.79361 13.4761C6.98745 13.944 7.27156 14.3692 7.62973 14.7274C7.9879 15.0856 8.41311 15.3697 8.88108 15.5635C9.34905 15.7574 9.85062 15.8571 10.3571 15.8571H16.3846C16.496 16.7413 16.9473 17.5474 17.6429 18.1046V21.4286C17.6429 22.1106 17.3719 22.7646 16.8897 23.2468C16.4075 23.7291 15.7534 24 15.0714 24H3.07143C2.38944 24 1.73539 23.7291 1.25315 23.2468C0.770918 22.7646 0.5 22.1106 0.5 21.4286L0.5 2.57143ZM19.2937 7.38343C19.0588 7.48075 18.8579 7.64556 18.7166 7.85703C18.5754 8.06849 18.5 8.31711 18.5 8.57143V10.2857H10.3571C9.90249 10.2857 9.46645 10.4663 9.14496 10.7878C8.82347 11.1093 8.64286 11.5453 8.64286 12C8.64286 12.4547 8.82347 12.8907 9.14496 13.2122C9.46645 13.5337 9.90249 13.7143 10.3571 13.7143H18.5V15.4286C18.5002 15.6827 18.5758 15.9311 18.717 16.1423C18.8583 16.3535 19.059 16.5181 19.2938 16.6154C19.5286 16.7126 19.787 16.738 20.0362 16.6885C20.2855 16.639 20.5145 16.5167 20.6943 16.3371L24.1229 12.9086C24.3636 12.6675 24.4989 12.3407 24.4989 12C24.4989 11.6593 24.3636 11.3325 24.1229 11.0914L20.6943 7.66286C20.5146 7.48304 20.2857 7.36053 20.0364 7.31079C19.7871 7.26106 19.5286 7.28633 19.2937 7.38343Z" fill="#C92E2E"/>
    </g>
    <defs>
    <clipPath id="clip0_193_2084">
    <rect width="24" height="24" fill="white" transform="translate(0.5)"/>
    </clipPath>
    </defs>
    </svg>
    