<svg width="48" height="48" viewBox="0 0 48 48" fill="none" xmlns="http://www.w3.org/2000/svg">
<circle cx="24" cy="24" r="24" fill="#E2E8F0"/>
<g clip-path="url(#clip0_65_1107)">
<path d="M35.4 22.392C35.3993 22.3914 35.3988 22.3907 35.3982 22.3902L25.6081 12.6004C25.1908 12.1829 24.636 11.9531 24.0458 11.9531C23.4557 11.9531 22.9009 12.1829 22.4834 12.6004L12.6984 22.3852C12.6951 22.3885 12.6916 22.392 12.6885 22.3953C11.8316 23.2572 11.833 24.6555 12.6927 25.5152C13.0855 25.9082 13.604 26.1356 14.1587 26.1596C14.1814 26.1618 14.2041 26.1629 14.227 26.1629H14.617V33.3674C14.617 34.7932 15.7771 35.9532 17.203 35.9532H21.0332C21.4216 35.9532 21.7363 35.6382 21.7363 35.25V29.6016C21.7363 28.951 22.2657 28.4218 22.9162 28.4218H25.1754C25.826 28.4218 26.3552 28.951 26.3552 29.6016V35.25C26.3552 35.6382 26.6699 35.9532 27.0583 35.9532H30.8885C32.3145 35.9532 33.4745 34.7932 33.4745 33.3674V26.1629H33.8363C34.4263 26.1629 34.9811 25.9331 35.3988 25.5154C36.2593 24.6544 36.2597 23.2535 35.4 22.392ZM34.4043 24.5211C34.2525 24.6729 34.0507 24.7566 33.8363 24.7566H32.7714C32.383 24.7566 32.0682 25.0714 32.0682 25.4597V33.3674C32.0682 34.0177 31.5391 34.5469 30.8885 34.5469H27.7614V29.6016C27.7614 28.1758 26.6014 27.0156 25.1754 27.0156H22.9162C21.4902 27.0156 20.3301 28.1758 20.3301 29.6016V34.5469H17.203C16.5526 34.5469 16.0232 34.0177 16.0232 33.3674V25.4597C16.0232 25.0714 15.7085 24.7566 15.3201 24.7566H14.2735C14.2625 24.7559 14.2517 24.7553 14.2405 24.7552C14.031 24.7515 13.8346 24.6684 13.6873 24.521C13.3742 24.2078 13.3742 23.6983 13.6873 23.385C13.6875 23.385 13.6875 23.3848 13.6877 23.3846L13.6883 23.3841L23.478 13.5947C23.6296 13.4429 23.8312 13.3594 24.0458 13.3594C24.2602 13.3594 24.4618 13.4429 24.6136 13.5947L34.4012 23.382C34.4027 23.3835 34.4043 23.385 34.4058 23.3864C34.7172 23.7001 34.7167 24.2086 34.4043 24.5211Z" fill="black"/>
</g>
<defs>
<clipPath id="clip0_65_1107">
<rect width="24" height="24" fill="white" transform="translate(12 12)"/>
</clipPath>
</defs>
</svg>
