<svg width="48" height="48" viewBox="0 0 48 48" fill="none" xmlns="http://www.w3.org/2000/svg">
<circle cx="24" cy="24" r="24" fill="#E2E8F0"/>
<g clip-path="url(#clip0_65_1149)">
<path d="M35.5698 26.2422C35.0027 25.5463 34.2326 25.0853 33.3676 24.9134V20.9073L35.4699 22.0085V16.8538L31.5758 14.8141V12.7755H30.1683V14.0768L26.2035 12L16.9372 16.8538V22.0086L19.0395 20.9073V25.0211H17.2786L16.2334 25.9544V25.0211H12.0107V36H16.2334V34.9171L19.4758 32.9972H29.1748L35.9893 26.7571L35.5698 26.2422ZM14.8258 34.5925H13.4183V26.4287H14.8258V34.5925ZM18.3447 19.6823V17.7055L26.2035 13.589L34.0623 17.7055V19.6823L26.2035 15.5658L18.3447 19.6823ZM23.5996 21.8776V25.1495C23.2849 25.0661 22.9548 25.0211 22.6143 25.0211H20.447V20.1701L26.2035 17.1548L31.96 20.1701V24.8925C31.259 25.0126 30.6051 25.328 30.061 25.8185L28.8075 26.9483V21.8776H23.5996ZM27.3999 23.2852V28.1647H26.3959C26.2236 27.2368 25.7176 26.4253 25.0071 25.8591V23.2852H27.3999ZM28.6278 31.5897H19.0903L16.2334 33.2813V27.8413L17.8156 26.4287H22.6143C23.7149 26.4287 24.6478 27.1614 24.9506 28.1647H20.8783V29.5722H27.9987L31.0034 26.864C31.8019 26.1164 33.1113 26.0423 33.9922 26.6774L28.6278 31.5897Z" fill="black"/>
</g>
<defs>
<clipPath id="clip0_65_1149">
<rect width="24" height="24" fill="white" transform="translate(12 12)"/>
</clipPath>
</defs>
</svg>
