<svg width="48" height="48" viewBox="0 0 48 48" fill="none" xmlns="http://www.w3.org/2000/svg">
<circle cx="24" cy="24" r="24" fill="#E2E8F0"/>
<g clip-path="url(#clip0_65_650)">
<path d="M35.7679 23.9171C35.5851 24.0978 35.3469 24.1879 35.1087 24.1879C34.867 24.1879 34.6255 24.095 34.442 23.9096L33.7024 23.1616V27.516C33.7024 28.0336 33.2827 28.4535 32.7649 28.4535C32.2473 28.4535 31.8276 28.0336 31.8276 27.516V21.3287C31.8276 21.3084 31.8293 21.2884 31.8305 21.2684L24.6969 14.0535C24.3472 13.7543 23.8325 13.7534 23.4815 14.0515L16.2642 21.2547C16.2644 21.2637 16.2655 21.2727 16.2655 21.2818V27.6098C16.2655 28.1274 15.8458 28.5471 15.328 28.5471C14.8103 28.5471 14.3906 28.1274 14.3906 27.6098V23.1246L13.6465 23.8671C13.2803 24.2327 12.6867 24.2322 12.3208 23.8658C11.955 23.4994 11.9557 22.9058 12.3221 22.5399L22.179 12.7024C22.1917 12.6898 22.2047 12.6777 22.218 12.6658C23.2887 11.7125 24.9005 11.716 25.9669 12.6737C25.9809 12.6861 25.9942 12.6989 26.0072 12.7121L35.7752 22.5912C36.1394 22.9594 36.1359 23.5531 35.7679 23.9171ZM32.7649 31.2658C32.2473 31.2658 31.8276 31.6855 31.8276 32.2033C31.8276 33.2371 30.9864 34.0781 29.9526 34.0781H18.1405C17.6226 34.0781 17.203 34.4978 17.203 35.0156C17.203 35.5335 17.6226 35.9531 18.1405 35.9531H29.9526C32.0202 35.9531 33.7024 34.2709 33.7024 32.2033C33.7024 31.6855 33.2827 31.2658 32.7649 31.2658ZM19.0045 30.4217H19.0077C19.1649 30.4217 19.3129 30.4829 19.4242 30.5942L20.524 31.6947C20.9898 32.1605 21.6079 32.4165 22.2662 32.4165H22.2787C22.9415 32.4132 23.5622 32.1508 24.0235 31.6802L28.1714 27.4856V29.3439C28.1714 29.8618 28.5912 30.2814 29.1089 30.2814C29.6267 30.2814 30.0464 29.8618 30.0464 29.3439V26.5785C30.0464 25.2861 28.995 24.2348 27.7028 24.2348H24.8903C24.3725 24.2348 23.9528 24.6544 23.9528 25.1723C23.9528 25.6899 24.3725 26.1098 24.8903 26.1098H26.8953L22.6873 30.3648C22.5764 30.4779 22.4281 30.5407 22.2693 30.5415C22.2684 30.5415 22.2673 30.5415 22.2664 30.5415C22.1091 30.5415 21.9611 30.4803 21.85 30.369L20.7501 29.2685C20.2843 28.8027 19.6661 28.5467 19.008 28.5467C19.0034 28.5467 18.999 28.5467 18.9947 28.5467C18.3316 28.5502 17.7109 28.8129 17.2445 29.2892L12.3122 34.3621C11.9513 34.7335 11.9597 35.3269 12.3307 35.6878C12.5131 35.8649 12.7487 35.9531 12.9842 35.9531C13.2287 35.9531 13.4727 35.8583 13.6564 35.6691L18.5865 30.5986C18.6975 30.4854 18.846 30.4224 19.0045 30.4217Z" fill="black"/>
</g>
<defs>
<clipPath id="clip0_65_650">
<rect width="24" height="24" fill="white" transform="translate(12 12)"/>
</clipPath>
</defs>
</svg>
