<svg width="48" height="48" viewBox="0 0 48 48" fill="none" xmlns="http://www.w3.org/2000/svg">
<circle cx="24" cy="24" r="24" fill="#E2E8F0"/>
<path d="M29.2933 13.8874C27.3119 12.2773 24.7222 11.6576 22.1876 12.1872C19.0202 12.849 16.4361 15.4444 15.7573 18.6454C15.1851 21.3446 15.8903 24.0544 17.6923 26.0801C18.586 27.0848 19.0782 28.3417 19.0782 29.6228V31.029C19.0782 31.9457 19.666 32.7272 20.4844 33.0175V33.8884C20.4844 35.0515 21.4307 35.9978 22.5938 35.9978H25.4063C26.5694 35.9978 27.5157 35.0515 27.5157 33.8884V33.0175C28.3341 32.7272 28.9219 31.9457 28.9219 31.029V29.6228C28.9219 28.3581 29.4287 27.0834 30.3489 26.0336C31.6958 24.497 32.4375 22.5255 32.4375 20.4822C32.4375 17.915 31.2915 15.5112 29.2933 13.8874ZM26.1094 33.8884C26.1094 34.2761 25.794 34.5915 25.4063 34.5915H22.5938C22.2061 34.5915 21.8907 34.2761 21.8907 33.8884V33.1384H26.1094V33.8884ZM27.5157 31.029C27.5157 31.4167 27.2002 31.7322 26.8125 31.7322H21.1875C20.7998 31.7322 20.4844 31.4167 20.4844 31.029V30.3259H27.5157V31.029ZM24 23.9358C24.4748 23.9358 24.9495 23.8598 25.4063 23.7091V28.9197H22.5938V23.7091C23.0505 23.8598 23.5252 23.9358 24 23.9358ZM22.8246 22.2958L24 19.945L25.1754 22.2958C24.422 22.6058 23.5781 22.6058 22.8246 22.2958ZM29.2914 25.1067C28.3137 26.2221 27.711 27.5544 27.5557 28.9197H26.8125V22.5965C26.8125 22.5955 26.8125 22.5946 26.8125 22.5937C26.8125 22.4977 26.7918 22.392 26.745 22.2928C26.7426 22.2876 26.7408 22.2822 26.7383 22.2772L24.6289 18.0584C24.5098 17.8202 24.2663 17.6697 24 17.6697C23.7336 17.6697 23.4902 17.8202 23.3711 18.0584L21.2617 22.2772C21.2151 22.3704 21.1875 22.4839 21.1875 22.5932C21.1875 22.5945 21.1875 22.5957 21.1875 22.5969V28.9197H20.4461C20.2953 27.545 19.7038 26.2258 18.743 25.1455C17.2412 23.4573 16.6544 21.1944 17.133 18.9371C17.698 16.2727 19.8448 14.1134 22.4752 13.5637C24.5934 13.1212 26.7552 13.6369 28.4064 14.9787C30.0746 16.3343 31.0313 18.3403 31.0313 20.4822C31.0313 22.1843 30.4134 23.8267 29.2914 25.1067Z" fill="black"/>
</svg>
