<svg width="48" height="48" viewBox="0 0 48 48" fill="none" xmlns="http://www.w3.org/2000/svg">
<circle cx="24" cy="24" r="24" fill="#E2E8F0"/>
<g clip-path="url(#clip0_65_1348)">
<path d="M12.3915 33.8177L16.6571 35.9271C16.7474 35.9716 16.8591 35.9996 16.9671 36H16.9687H16.9704C17.0801 35.9996 17.1932 35.9709 17.2833 35.9258L21.5021 33.8165C21.7401 33.6973 21.8906 33.4539 21.8906 33.1875V30.375H26.1094V33.1875C26.1094 33.4539 26.2599 33.6973 26.4981 33.8165L30.7168 35.9258C30.919 36.0269 31.1537 36.0207 31.3429 35.9271L35.6085 33.8177C35.8482 33.6993 36 33.455 36 33.1875V27.5625C36 27.3054 35.8575 27.0588 35.6147 26.9357C35.6125 26.9346 35.6107 26.9333 35.6085 26.9322L31.3429 24.8229C31.1455 24.7253 30.9139 24.7258 30.7168 24.8243L29.4871 25.439L27.4144 21.6727L28.5331 21.1133C28.7714 20.9941 28.9219 20.7508 28.9219 20.4844V14.8125C28.9219 14.5474 28.7706 14.3024 28.5331 14.1835L24.3144 12.0742C24.1164 11.9753 23.8835 11.9753 23.6856 12.0742L19.4669 14.1835C19.2297 14.3022 19.0781 14.5472 19.0781 14.8125V20.4844C19.0781 20.7508 19.2286 20.9941 19.4669 21.1133L20.5856 21.6727L18.5129 25.439L17.2831 24.8242C17.0863 24.7256 16.8545 24.7253 16.6571 24.8229L12.3915 26.9322C12.1487 27.0524 12 27.3001 12 27.5625V33.1875C12 33.455 12.1516 33.6993 12.3915 33.8177ZM13.4062 28.6946L16.2656 30.1086V34.1647L13.4062 32.7508V28.6946ZM20.4844 32.753L17.6719 34.1592V30.1064L20.4844 28.7001V32.753ZM27.5156 28.7001L30.3281 30.1064V34.1592L27.5156 32.753V28.7001ZM34.5937 32.7508L31.7344 34.1647V30.1086L34.5937 28.6946V32.7508ZM31.0331 26.2385L33.7106 27.5625L31.0331 28.8867L28.3848 27.5625L31.0331 26.2385ZM27.5156 20.0499L24.7031 21.4561V17.3564L27.5156 15.9501V20.0499ZM24 13.4892L26.6466 14.8125L24 16.1358L21.3536 14.8125L24 13.4892ZM20.4844 15.9501L23.2969 17.3564V21.4561L20.4844 20.0499V15.9501ZM21.8445 22.3021L23.6856 23.2227C23.7757 23.2676 23.8888 23.2965 23.9983 23.2969H24H24.0016C24.1128 23.2965 24.2247 23.2676 24.3146 23.2227L26.1555 22.3021L28.2284 26.0685L26.4981 26.9335C26.2542 27.0555 26.1094 27.3036 26.1094 27.5625V28.9687H21.8906V27.5625C21.8906 27.2908 21.733 27.0485 21.5019 26.9335L19.7717 26.0685L21.8445 22.3021ZM16.9671 26.2385L19.6154 27.5625L16.9671 28.8867L14.2894 27.5625L16.9671 26.2385Z" fill="black"/>
</g>
<defs>
<clipPath id="clip0_65_1348">
<rect width="24" height="24" fill="white" transform="translate(12 12)"/>
</clipPath>
</defs>
</svg>
