<svg width="48" height="48" viewBox="0 0 48 48" fill="none" xmlns="http://www.w3.org/2000/svg">
<circle cx="24" cy="24" r="24" fill="#E2E8F0"/>
<g clip-path="url(#clip0_65_744)">
<path d="M32.3088 15.7969H25.9884C25.7762 15.1986 25.3014 14.7238 24.7031 14.5116V12H23.2969V14.5116C22.6986 14.7238 22.2238 15.1986 22.0116 15.7969H15.6912L12 25.2742V25.4062C12 27.7325 13.8925 29.625 16.2188 29.625C18.545 29.625 20.4375 27.7325 20.4375 25.4062V25.2742L17.2941 17.2031H21.8906V31.7812H18.6094V34.5938H17.2031V36H30.7969V34.5938H29.3906V31.7812H26.1094V17.2031H30.7059L27.5625 25.2742V25.4062C27.5625 27.7325 29.455 29.625 31.7812 29.625C34.1075 29.625 36 27.7325 36 25.4062V25.2742L32.3088 15.7969ZM16.2188 28.2188C14.9107 28.2188 13.809 27.3209 13.4959 26.1094H18.9416C18.6285 27.3209 17.5268 28.2188 16.2188 28.2188ZM18.7059 24.7031H13.7316L16.2188 18.3171L18.7059 24.7031ZM24 15.7969C24.3877 15.7969 24.7031 16.1123 24.7031 16.5C24.7031 16.8877 24.3877 17.2031 24 17.2031C23.6123 17.2031 23.2969 16.8877 23.2969 16.5C23.2969 16.1123 23.6123 15.7969 24 15.7969ZM23.2969 18.4884C23.517 18.5665 23.7535 18.6094 24 18.6094C24.2465 18.6094 24.483 18.5665 24.7031 18.4884V31.7812H23.2969V18.4884ZM27.9844 33.1875V34.5938H20.0156V33.1875H27.9844ZM31.7812 18.3171L34.2684 24.7031H29.2941L31.7812 18.3171ZM31.7812 28.2188C30.4732 28.2188 29.3715 27.3209 29.0584 26.1094H34.5041C34.191 27.3209 33.0893 28.2188 31.7812 28.2188Z" fill="black"/>
</g>
<defs>
<clipPath id="clip0_65_744">
<rect width="24" height="24" fill="white" transform="translate(12 12)"/>
</clipPath>
</defs>
</svg>
