<svg width="38" height="38" viewBox="0 0 38 38" fill="none" xmlns="http://www.w3.org/2000/svg">
    <path d="M19.0316 32.5055C15.3425 32.5055 11.6533 31.9197 8.15412 30.748C6.82412 30.2889 5.81079 29.3547 5.36746 28.1355C4.90829 26.9164 5.06662 25.5705 5.79496 24.3672L7.61579 21.343C7.99579 20.7097 8.34412 19.443 8.34412 18.6989V14.123C8.34412 8.23305 13.1416 3.43555 19.0316 3.43555C24.9216 3.43555 29.7191 8.23305 29.7191 14.123V18.6989C29.7191 19.4272 30.0675 20.7097 30.4475 21.3589L32.2525 24.3672C32.9333 25.5072 33.06 26.8847 32.6008 28.1355C32.1416 29.3864 31.1441 30.3364 29.8933 30.748C26.41 31.9197 22.7208 32.5055 19.0316 32.5055ZM19.0316 5.81055C14.4558 5.81055 10.7191 9.53138 10.7191 14.123V18.6989C10.7191 19.8547 10.2441 21.5647 9.65829 22.5622L7.83746 25.5864C7.48912 26.1722 7.39412 26.7897 7.59996 27.3122C7.78996 27.8505 8.26496 28.2622 8.91412 28.4839C15.5325 30.7005 22.5466 30.7005 29.165 28.4839C29.735 28.2939 30.1783 27.8664 30.3841 27.2964C30.59 26.7264 30.5425 26.1089 30.2258 25.5864L28.405 22.5622C27.8033 21.533 27.3441 19.8389 27.3441 18.683V14.123C27.3441 9.53138 23.6233 5.81055 19.0316 5.81055Z" fill="#9E9E9E"/>
    <path d="M21.9768 6.23816C21.866 6.23816 21.7551 6.22233 21.6443 6.19066C21.1851 6.064 20.7418 5.969 20.3143 5.90566C18.9685 5.7315 17.6701 5.8265 16.451 6.19066C16.0076 6.33316 15.5326 6.19066 15.2318 5.85816C14.931 5.52566 14.836 5.05066 15.0101 4.62316C15.6593 2.96066 17.2426 1.86816 19.0476 1.86816C20.8526 1.86816 22.436 2.94483 23.0851 4.62316C23.2435 5.05066 23.1643 5.52566 22.8635 5.85816C22.626 6.1115 22.2935 6.23816 21.9768 6.23816Z" fill="#9E9E9E"/>
    <path d="M19.0317 36.1162C17.4642 36.1162 15.9442 35.4829 14.8359 34.3745C13.7276 33.2662 13.0942 31.7462 13.0942 30.1787H15.4692C15.4692 31.1129 15.8492 32.0312 16.5142 32.6962C17.1792 33.3612 18.0976 33.7412 19.0317 33.7412C20.9951 33.7412 22.5942 32.142 22.5942 30.1787H24.9692C24.9692 33.4562 22.3092 36.1162 19.0317 36.1162Z" fill="#9E9E9E"/>
    <circle cx="26.9165" cy="7.91699" r="3.95833" fill="#F46D22" stroke="white" stroke-width="1.58333"/>
    </svg>
    