<svg width="16" height="17" viewBox="0 0 16 17" fill="none" xmlns="http://www.w3.org/2000/svg">
<g clip-path="url(#clip0_41_1043)">
<path d="M11.5146 16.5C8.70972 16.5 5.71444 15.4693 3.3725 13.1275C1.03447 10.7894 0 7.79613 0 4.98541C0 2.50825 2.00413 0.5 4.48541 0.5C4.67709 0.5 4.84944 0.616687 4.92063 0.794656L6.92897 5.8155C7.02513 6.05587 6.90822 6.32866 6.66787 6.42481L4.46172 7.30725C4.61778 9.84531 6.65509 11.8825 9.19275 12.0383L10.0752 9.83219C10.1712 9.59222 10.4438 9.47487 10.6845 9.57106L15.7053 11.5794C15.8833 11.6506 16 11.8229 16 12.0146C16 14.4918 13.9959 16.5 11.5146 16.5ZM4.17344 1.45094C2.37819 1.60628 0.9375 3.11172 0.9375 4.98541C0.9375 7.81066 2.03769 10.4668 4.03544 12.4645C6.03316 14.4623 8.68931 15.5625 11.5146 15.5625C13.3877 15.5625 14.8936 14.1226 15.0491 12.3266L10.7716 10.6156L9.94147 12.6908C9.87031 12.8687 9.69794 12.9854 9.50625 12.9854C6.20222 12.9854 3.51459 10.2978 3.51459 6.99425C3.51459 6.80259 3.63128 6.62969 3.80925 6.55853L5.88444 5.72844L4.17344 1.45094Z" fill="black"/>
</g>
<defs>
<clipPath id="clip0_41_1043">
<rect width="16" height="16" fill="white" transform="translate(0 0.5)"/>
</clipPath>
</defs>
</svg>
