<svg width="16" height="16" viewBox="0 0 16 16" fill="none" xmlns="http://www.w3.org/2000/svg">
<g clip-path="url(#clip0_6_4133)">
<path d="M8 0C3.57841 0 0 3.578 0 8C0 12.4215 3.578 16 8 16C12.4216 16 16 12.422 16 8C16 3.57841 12.422 0 8 0ZM8 14.8837C4.20431 14.8837 1.11628 11.7957 1.11628 8C1.11628 4.20428 4.20431 1.11628 8 1.11628C11.7957 1.11628 14.8837 4.20428 14.8837 8C14.8837 11.7957 11.7957 14.8837 8 14.8837Z" fill="black"/>
<path d="M7.76329 10.1226C7.32101 10.1226 6.96298 10.4911 6.96298 10.9334C6.96298 11.3652 7.31048 11.7442 7.76329 11.7442C8.21611 11.7442 8.57411 11.3652 8.57411 10.9334C8.57411 10.4911 8.20554 10.1226 7.76329 10.1226Z" fill="black"/>
<path d="M7.90015 3.9834C6.47853 3.9834 5.82565 4.82587 5.82565 5.39449C5.82565 5.80518 6.17315 5.99474 6.45747 5.99474C7.02612 5.99474 6.79447 5.18387 7.86856 5.18387C8.39506 5.18387 8.81631 5.41555 8.81631 5.89996C8.81631 6.46859 8.22659 6.79502 7.87909 7.08987C7.57368 7.35309 7.17356 7.78487 7.17356 8.69049C7.17356 9.23806 7.321 9.39602 7.75272 9.39602C8.26868 9.39602 8.374 9.16437 8.374 8.96424C8.374 8.41668 8.38453 8.10077 8.96372 7.64796C9.24803 7.42684 10.1431 6.71074 10.1431 5.7209C10.1431 4.73105 9.24803 3.9834 7.90015 3.9834Z" fill="black"/>
</g>
<defs>
<clipPath id="clip0_6_4133">
<rect width="16" height="16" fill="white"/>
</clipPath>
</defs>
</svg>
