<svg width="17" height="17" viewBox="0 0 17 17" fill="none" xmlns="http://www.w3.org/2000/svg">
    <path d="M15.7778 0.972572C15.1479 0.343127 14.1272 0.343127 13.4975 0.972572L8.21152 6.25836L3.00248 1.0491C2.37282 0.419658 1.35212 0.419658 0.722245 1.0491C0.0925851 1.67898 0.0925851 2.69968 0.722245 3.32934L5.93129 8.53838L0.798775 13.6709C0.169116 14.3008 0.169116 15.3215 0.798775 15.9511C1.11371 16.2658 1.52625 16.4232 1.939 16.4232C2.35154 16.4232 2.76429 16.2658 3.07922 15.9511L8.21152 10.8188L13.4206 16.0279C13.7355 16.3426 14.148 16.5 14.5608 16.5C14.9733 16.5 15.3861 16.3426 15.701 16.0279C16.3307 15.398 16.3307 14.3773 15.701 13.7476L10.492 8.53859L15.7778 3.2528C16.4074 2.62293 16.4074 1.60223 15.7778 0.972572Z" fill="#770000"/>
    </svg>
    