<svg width="16" height="17" viewBox="0 0 16 17" fill="none" xmlns="http://www.w3.org/2000/svg">
<path d="M15.8178 15.4381L11.913 11.5334C12.8836 10.3662 13.4683 8.86744 13.4683 7.23438C13.4683 3.52103 10.4474 0.5 6.73421 0.5C3.02094 0.5 0 3.52103 0 7.23438C0 10.9475 3.02094 13.9683 6.73421 13.9683C8.36719 13.9683 9.86605 13.3836 11.0332 12.413L14.9381 16.3178C15.0595 16.4393 15.2188 16.5 15.3779 16.5C15.5371 16.5 15.6963 16.4393 15.8179 16.3178C16.0608 16.0748 16.0608 15.681 15.8178 15.4381ZM1.24414 7.23438C1.24414 4.20705 3.70696 1.74414 6.73421 1.74414C9.76137 1.74414 12.2241 4.20705 12.2241 7.23438C12.2241 10.2615 9.76137 12.7241 6.73421 12.7241C3.70696 12.7241 1.24414 10.2615 1.24414 7.23438Z" fill="#718096"/>
</svg>
