<svg width="48" height="48" viewBox="0 0 48 48" fill="none" xmlns="http://www.w3.org/2000/svg">
<circle cx="24" cy="24" r="24" fill="#FAFAFA"/>
<g clip-path="url(#clip0_8_1613)">
<path d="M35.5168 24.6878C34.7676 23.7235 33.3982 23.5146 32.3958 24.2105L31.0615 25.1036L30.309 15.8244C30.2795 15.4593 29.9745 15.1781 29.6083 15.1781H28.1393V14.812C28.1393 13.2614 26.8778 11.9999 25.3273 11.9999C23.7767 11.9999 22.5153 13.2614 22.5153 14.812V15.1781H21.0458C20.6786 15.1781 20.3733 15.4606 20.3448 15.8267L19.7014 24.1108C18.8513 24.5989 18.1646 25.3077 17.7047 26.1565L16.887 26.6569L16.8614 26.6126C16.6674 26.2765 16.2372 26.161 15.9009 26.3552L12.3517 28.4045C12.0154 28.5987 11.9002 29.0287 12.0943 29.365L15.7219 35.6483C15.9162 35.9848 16.3463 36.0997 16.6824 35.9056L20.2317 33.8564C20.5541 33.6703 20.6725 33.2675 20.5106 32.9381L25.7473 32.7564C27.4227 32.7538 29.0295 32.2392 30.3949 31.2675L35.0351 27.9655C35.5494 27.5994 35.8832 27.0539 35.975 26.4293C36.0668 25.8049 35.9041 25.1863 35.5168 24.6878ZM23.9215 14.812C23.9215 14.0368 24.5521 13.4062 25.3273 13.4062C26.1024 13.4062 26.733 14.0369 26.733 14.812V15.1781H23.9215V14.812ZM21.6964 16.5843H22.5153V17.7562C22.5153 18.1445 22.8301 18.4593 23.2185 18.4593C23.6068 18.4593 23.9216 18.1445 23.9216 17.7562V16.5843H26.733V17.7562C26.733 18.1445 27.0479 18.4593 27.4362 18.4593C27.8245 18.4593 28.1393 18.1445 28.1393 17.7562V16.5843H28.9599L29.7234 25.9991L29.7221 26C29.3504 25.3078 28.6196 24.836 27.7805 24.836H25.8729C24.9098 23.9325 23.6242 23.4196 22.2981 23.4196C21.9111 23.4196 21.5283 23.4626 21.1557 23.5459L21.6964 16.5843ZM16.5882 34.3363L13.6637 29.2708L15.9952 27.9247C16.199 28.2778 18.7932 32.7711 18.9196 32.9902L16.5882 34.3363ZM34.2197 26.8198L29.5795 30.1219C28.4503 30.9254 27.1208 31.3502 25.7348 31.3502C25.7267 31.3502 25.7186 31.3504 25.7104 31.3506L19.7169 31.5587L17.5903 27.8752L18.6013 27.2565C18.7172 27.1869 18.8118 27.0819 18.8696 26.9641C19.5165 25.6452 20.8302 24.8259 22.2981 24.8259C23.3588 24.8259 24.344 25.2507 25.0722 26.022C25.2024 26.1602 25.395 26.2423 25.5834 26.2423H27.7804C28.2195 26.2423 28.5766 26.5995 28.5766 27.0385C28.5766 27.4752 28.2234 27.8348 27.7804 27.8348H23.8147C23.4263 27.8348 23.1115 28.1496 23.1115 28.5379C23.1115 28.9262 23.4263 29.241 23.8147 29.241H27.7804C28.3693 29.241 28.9225 29.0117 29.3376 28.5958C29.628 28.3054 29.827 27.9482 29.9209 27.559L33.1834 25.3756C33.1874 25.3729 33.1913 25.3702 33.1952 25.3675C33.5835 25.0959 34.1155 25.1763 34.4063 25.5506C34.7168 25.9503 34.6319 26.5265 34.2197 26.8198Z" fill="black"/>
</g>
<defs>
<clipPath id="clip0_8_1613">
<rect width="24" height="24" fill="white" transform="translate(12 12)"/>
</clipPath>
</defs>
</svg>
