<svg width="48" height="48" viewBox="0 0 48 48" fill="none" xmlns="http://www.w3.org/2000/svg">
<circle cx="24" cy="24" r="24" fill="#FAFAFA"/>
<g clip-path="url(#clip0_8_2190)">
<path d="M32.9912 14.9116C32.0745 14.9116 31.293 15.4995 31.0027 16.3179H28.9716C28.6286 13.881 26.53 12 24 12C21.47 12 19.3714 13.881 19.0284 16.3179H16.9972C16.707 15.4995 15.9254 14.9116 15.0088 14.9116C13.8457 14.9116 12.8994 15.8579 12.8994 17.021C12.8994 18.1841 13.8457 19.1304 15.0088 19.1304C15.9254 19.1304 16.707 18.5425 16.9972 17.7241H19.0284C19.2508 19.3148 20.2193 20.7018 21.6476 21.4574V24.171C21.3586 24.0438 21.0394 23.9731 20.704 23.9731C19.4083 23.9731 18.3543 25.0272 18.3543 26.3229V30.7444C18.3543 32.3752 19.1469 33.9142 20.4746 34.8612L22.0711 36H32.2553V27.9121C32.2553 27.0558 31.9614 26.2155 31.4276 25.5458C30.8938 24.8762 30.1402 24.4022 29.3054 24.2113L26.3472 23.5345V21.4602C27.7771 20.7051 28.7483 19.3143 28.9715 17.7241H31.0028C31.293 18.5425 32.0746 19.1304 32.9912 19.1304C34.1543 19.1304 35.1006 18.1841 35.1006 17.021C35.1006 15.8579 34.1543 14.9116 32.9912 14.9116ZM15.0088 17.7241C14.6211 17.7241 14.3057 17.4087 14.3057 17.021C14.3057 16.6333 14.6211 16.3179 15.0088 16.3179C15.3965 16.3179 15.7119 16.6333 15.7119 17.021C15.7119 17.4087 15.3965 17.7241 15.0088 17.7241ZM28.9918 25.5821C30.0853 25.8323 30.849 26.7904 30.849 27.9121V34.5938H22.5213L21.2912 33.7163C20.3327 33.0327 19.7605 31.9217 19.7605 30.7444V26.323C19.7605 25.8027 20.1837 25.3794 20.7041 25.3794C21.2243 25.3794 21.6476 25.8027 21.6476 26.323V30.572H23.0538V19.0014C23.0538 18.4811 23.477 18.0578 23.9974 18.0578C24.5176 18.0578 24.9409 18.4811 24.9409 19.0014V24.6554L28.9918 25.5821ZM26.3471 19.7715V19.0013C26.3471 17.7056 25.293 16.6515 23.9973 16.6515C22.7016 16.6515 21.6475 17.7056 21.6475 19.0013V19.7676C20.8586 19.0933 20.3852 18.0997 20.3852 17.021C20.3852 15.0278 22.0068 13.4062 24 13.4062C25.9932 13.4062 27.6148 15.0278 27.6148 17.021C27.6148 18.0998 27.1389 19.0965 26.3471 19.7715ZM32.9912 17.7241C32.6035 17.7241 32.288 17.4087 32.288 17.021C32.288 16.6333 32.6035 16.3179 32.9912 16.3179C33.3789 16.3179 33.6943 16.6333 33.6943 17.021C33.6943 17.4087 33.3789 17.7241 32.9912 17.7241Z" fill="black"/>
</g>
<defs>
<clipPath id="clip0_8_2190">
<rect width="24" height="24" fill="white" transform="translate(12 12)"/>
</clipPath>
</defs>
</svg>
