<svg width="48" height="48" viewBox="0 0 48 48" fill="none" xmlns="http://www.w3.org/2000/svg">
<circle cx="24" cy="24" r="24" fill="#FAFAFA"/>
<g clip-path="url(#clip0_8_1348)">
<path d="M24 17.4375C21.4153 17.4375 19.3125 19.5403 19.3125 22.125C19.3125 24.7097 21.4153 26.8125 24 26.8125C26.5847 26.8125 28.6875 24.7097 28.6875 22.125C28.6875 19.5403 26.5847 17.4375 24 17.4375ZM24 24.9375C22.4492 24.9375 21.1875 23.6758 21.1875 22.125C21.1875 20.5742 22.4492 19.3125 24 19.3125C25.5508 19.3125 26.8125 20.5742 26.8125 22.125C26.8125 23.6758 25.5508 24.9375 24 24.9375ZM24 12C17.271 12 12 17.271 12 24C12 30.7524 17.295 36 24 36C30.7135 36 36 30.7427 36 24C36 17.271 30.729 12 24 12ZM24 34.125C21.7972 34.125 19.7798 33.4552 18.1352 32.3041C19.2388 30.1158 21.5144 28.6875 24 28.6875C26.4856 28.6875 28.7612 30.1158 29.8648 32.3041C28.2202 33.4552 26.2028 34.125 24 34.125ZM31.3238 31.0561C30.7141 29.9908 29.8776 29.0697 28.858 28.3506C27.4312 27.3443 25.7514 26.8125 24 26.8125C22.2487 26.8125 20.5688 27.3443 19.142 28.3506C18.1225 29.0697 17.2859 29.9908 16.6762 31.0562C14.9334 29.2455 13.875 26.7693 13.875 24C13.875 18.3225 18.3225 13.875 24 13.875C29.6775 13.875 34.125 18.3225 34.125 24C34.125 26.7692 33.0666 29.2455 31.3238 31.0561Z" fill="black"/>
</g>
<defs>
<clipPath id="clip0_8_1348">
<rect width="24" height="24" fill="white" transform="translate(12 12)"/>
</clipPath>
</defs>
</svg>
