<svg width="49" height="48" viewBox="0 0 49 48" fill="none" xmlns="http://www.w3.org/2000/svg">
<circle cx="24.5" cy="24" r="24" fill="white"/>
<g clip-path="url(#clip0_6_3685)">
<path d="M31.0338 12.8932C29.2368 11.9948 26.872 11.5 24.3749 11.5C21.8776 11.5 19.5127 11.9948 17.7158 12.8933C15.6786 13.9119 14.5566 15.3542 14.5566 16.9546V21.3182V25.6817V30.0453C14.5566 31.6458 15.6786 33.0881 17.7158 34.1067C19.5127 35.0052 21.8775 35.4999 24.3749 35.4999C26.872 35.4999 29.2368 35.0051 31.0337 34.1067C33.0711 33.0881 34.1931 31.6458 34.1931 30.0453V25.6817V21.3182V16.9546C34.1932 15.3542 33.0711 13.9119 31.0338 12.8932ZM32.0111 25.6818C32.0111 27.2266 28.7454 28.9543 24.3749 28.9543C20.0045 28.9543 16.7388 27.2266 16.7388 25.6818V24.8115C17.0364 25.0126 17.362 25.2027 17.7159 25.3796C19.5128 26.2781 21.8777 26.7728 24.3749 26.7728C26.8721 26.7728 29.2369 26.278 31.0338 25.3796C31.3878 25.2027 31.7134 25.0126 32.0111 24.8114V25.6818ZM32.0111 21.3182C32.0111 22.8629 28.7454 24.5907 24.3749 24.5907C20.0045 24.5907 16.7388 22.8629 16.7388 21.3182V20.4479C17.0364 20.649 17.362 20.839 17.7159 21.0159C19.5128 21.9144 21.8777 22.4092 24.3749 22.4092C26.8721 22.4092 29.2369 21.9144 31.0338 21.0159C31.3879 20.8389 31.7135 20.6489 32.0111 20.4477V21.3182ZM24.3749 13.6821C28.7453 13.6821 32.011 15.4098 32.011 16.9546C32.011 18.4995 28.7453 20.2272 24.3749 20.2272C20.0044 20.2272 16.7387 18.4995 16.7387 16.9546C16.7387 15.4098 20.0044 13.6821 24.3749 13.6821ZM24.3749 33.3179C20.0044 33.3179 16.7387 31.5902 16.7387 30.0454V29.175C17.0363 29.3762 17.3619 29.5662 17.7158 29.7432C19.5127 30.6417 21.8776 31.1365 24.3749 31.1365C26.872 31.1365 29.2368 30.6416 31.0337 29.7432C31.3877 29.5661 31.7133 29.3761 32.011 29.175V30.0454C32.0111 31.5902 28.7454 33.3179 24.3749 33.3179Z" fill="#FCA311"/>
</g>
<defs>
<clipPath id="clip0_6_3685">
<rect width="24" height="24" fill="white" transform="translate(12.375 11.5)"/>
</clipPath>
</defs>
</svg>
