<svg width="49" height="48" viewBox="0 0 49 48" fill="none" xmlns="http://www.w3.org/2000/svg">
<circle cx="24.125" cy="24" r="24" fill="white"/>
<path d="M31.3125 17.875H16.6875C14.1028 17.875 12 19.9778 12 22.5625V30.0625C12 32.6472 14.1028 34.75 16.6875 34.75H31.3125C33.8972 34.75 36 32.6472 36 30.0625V22.5625C36 19.9778 33.8972 17.875 31.3125 17.875ZM34.125 30.0625C34.125 31.6133 32.8633 32.875 31.3125 32.875H16.6875C15.1367 32.875 13.875 31.6133 13.875 30.0625V22.5625C13.875 21.0117 15.1367 19.75 16.6875 19.75H31.3125C32.8633 19.75 34.125 21.0117 34.125 22.5625V30.0625Z" fill="#FCA311"/>
<path d="M20.25 16C20.7678 16 21.1875 15.5803 21.1875 15.0625C21.1875 14.5456 21.6081 14.125 22.125 14.125H25.875C26.3919 14.125 26.8125 14.5456 26.8125 15.0625C26.8125 15.5803 27.2322 16 27.75 16C28.2678 16 28.6875 15.5803 28.6875 15.0625C28.6875 13.5117 27.4258 12.25 25.875 12.25H22.125C20.5742 12.25 19.3125 13.5117 19.3125 15.0625C19.3125 15.5803 19.7322 16 20.25 16Z" fill="#FCA311"/>
<path d="M22.125 27.25H23.0625V28.1875C23.0625 28.7053 23.4822 29.125 24 29.125C24.5178 29.125 24.9375 28.7053 24.9375 28.1875V27.25H25.875C26.3928 27.25 26.8125 26.8303 26.8125 26.3125C26.8125 25.7947 26.3928 25.375 25.875 25.375H24.9375V24.4375C24.9375 23.9197 24.5178 23.5 24 23.5C23.4822 23.5 23.0625 23.9197 23.0625 24.4375V25.375H22.125C21.6072 25.375 21.1875 25.7947 21.1875 26.3125C21.1875 26.8303 21.6072 27.25 22.125 27.25Z" fill="#FCA311"/>
</svg>
