<svg width="49" height="48" viewBox="0 0 49 48" fill="none" xmlns="http://www.w3.org/2000/svg">
<circle cx="24.625" cy="24" r="24" fill="white"/>
<g clip-path="url(#clip0_6_3756)">
<path d="M36.1719 24.0866C36.1543 24.0688 36.1358 24.052 36.1167 24.0357L29.8106 18.6661C28.9189 17.9068 27.784 17.4893 26.6132 17.4893C26.6075 17.4893 26.6018 17.4893 26.5962 17.4893C25.2853 17.4939 24.0528 18.0068 23.1258 18.9338L22.2752 19.7844C21.9165 20.1431 21.3278 20.1489 20.9627 19.7974C20.7875 19.6289 20.6897 19.3964 20.6873 19.1431C20.6848 18.8772 20.7899 18.6182 20.9755 18.4323C20.9827 18.4252 20.9898 18.4178 20.9968 18.4105L22.8412 16.4419C24.2676 14.9196 26.2528 14.0143 28.3307 13.9284L35.4224 19.7106C35.8236 20.0378 36.4143 19.9777 36.7413 19.5765C37.0685 19.1752 37.0085 18.5846 36.6073 18.2574L29.2484 12.2576C29.0811 12.1214 28.872 12.0469 28.6561 12.0469C26.8922 12.0469 25.1679 12.5275 23.6677 13.4079C22.1544 12.5165 20.4365 12.0469 18.6739 12.0469C18.4252 12.0469 18.1868 12.1455 18.0111 12.3211L13.228 17.1022C12.8618 17.4684 12.8616 18.0619 13.2276 18.4281C13.4107 18.6114 13.6506 18.7029 13.8906 18.7029C14.1305 18.7029 14.3704 18.6114 14.5533 18.4285L19.0531 13.9308C20.0736 13.979 21.0691 14.2229 21.9923 14.6462C21.8134 14.8107 21.64 14.9817 21.473 15.1598L19.6378 17.1187C19.1058 17.6572 18.8052 18.4006 18.8125 19.1611C18.8197 19.9219 19.1216 20.6277 19.6625 21.1483C20.1957 21.6614 20.8974 21.9401 21.6377 21.9337C22.3792 21.9271 23.0765 21.6346 23.6009 21.11L24.4516 20.2595C25.026 19.6849 25.7901 19.3671 26.6026 19.3641H26.6132C27.3388 19.3641 28.0423 19.623 28.5951 20.0936L34.8672 25.4343C35.1565 25.7463 35.1496 26.2359 34.846 26.5393C34.6969 26.6885 34.4968 26.7706 34.2826 26.7706C34.0683 26.7706 33.8682 26.6885 33.7192 26.5393L33.5269 26.3469C33.1607 25.9808 32.5671 25.9807 32.201 26.3469C31.835 26.7129 31.8348 27.3065 32.201 27.6727L32.3935 27.865C32.4501 27.9218 32.5092 27.9752 32.57 28.0259C32.5969 28.0622 32.6257 28.0974 32.6584 28.1301C32.9692 28.4409 32.9692 28.9464 32.6584 29.2572C32.3479 29.5679 31.8423 29.5679 31.5316 29.2572C31.5292 29.2548 31.5266 29.2522 31.5243 29.2498L31.2135 28.9413C30.8473 28.5753 30.2539 28.5753 29.8879 28.9415C29.5216 29.3075 29.5216 29.9011 29.8879 30.2672L30.1019 30.4812L30.1021 30.4814C30.2643 30.6436 30.3623 30.8749 30.3705 31.1157C30.3749 31.247 30.3548 31.4945 30.1693 31.68C29.8759 31.9735 29.368 31.9431 29.0373 31.6124C29.0197 31.5949 29.0016 31.578 28.9826 31.5619L28.842 31.442C28.4591 31.1155 27.8865 31.1497 27.5452 31.5194C27.2037 31.8891 27.2151 32.4624 27.5708 32.8184C27.7272 32.9748 27.8147 33.1795 27.8173 33.3946C27.8197 33.6032 27.7408 33.7982 27.5952 33.9437C27.2845 34.2545 26.7727 34.2481 26.4511 33.9267L26.3186 33.7952C26.7014 32.8191 26.4997 31.6644 25.7119 30.8767V30.8765C25.3593 30.5241 24.9295 30.2771 24.4639 30.1533C24.5796 29.348 24.3282 28.4996 23.71 27.8813C23.2468 27.418 22.6543 27.1615 22.0474 27.1102C22.0017 26.5071 21.7439 25.9153 21.2725 25.444C20.8065 24.978 20.2098 24.7211 19.5993 24.672C19.5502 24.0615 19.2933 23.4648 18.8273 22.9988C17.7879 21.9593 16.0976 21.9571 15.0554 22.9922L13.7452 24.2571C13.7414 24.2609 13.7374 24.2648 13.7335 24.2686C13.2303 24.7718 12.9531 25.4429 12.9531 26.1579C12.9531 26.8727 13.2303 27.5438 13.7335 28.047C14.1318 28.4454 14.6258 28.6908 15.142 28.7846C15.1178 29.4989 15.3771 30.221 15.9211 30.765C16.4063 31.2503 17.0538 31.5154 17.7498 31.5154C17.7629 31.5154 17.7763 31.5152 17.7895 31.515C17.8653 32.0722 18.1158 32.6089 18.5421 33.035C19.0604 33.5534 19.742 33.8123 20.4253 33.8123C20.4828 33.8123 20.5401 33.8097 20.5976 33.8061C20.6969 34.3517 20.9572 34.8536 21.3555 35.2519C21.8856 35.7818 22.5816 36.0467 23.2779 36.0467C23.9576 36.0467 24.6373 35.7931 25.1624 35.2877C25.6852 35.7931 26.362 36.0467 27.0376 36.0467C27.721 36.0467 28.4027 35.7878 28.9209 35.2696C29.3356 34.8547 29.5945 34.327 29.6694 33.7548C30.3368 33.7537 30.9958 33.505 31.495 33.0057C31.9335 32.5672 32.1911 31.9911 32.2378 31.3594C32.899 31.325 33.5146 31.0525 33.9843 30.5828C34.5283 30.0388 34.7876 29.3165 34.7634 28.602C35.2948 28.5064 35.7833 28.2535 36.1719 27.865C37.2135 26.8233 37.2135 25.1283 36.1719 24.0866ZM16.1979 26.7098C16.1941 26.7136 16.1901 26.7175 16.1862 26.7213C16.0372 26.8706 15.837 26.9526 15.6228 26.9526C15.4086 26.9526 15.2084 26.8706 15.0594 26.7213C14.9102 26.5721 14.8281 26.3721 14.8281 26.1579C14.8281 25.9459 14.9085 25.7479 15.0546 25.5992L16.3629 24.336C16.367 24.3322 16.3708 24.3283 16.3746 24.3245C16.5239 24.1754 16.724 24.0932 16.9382 24.0932C17.1523 24.0932 17.3524 24.1754 17.5017 24.3245C17.6507 24.4737 17.7329 24.6738 17.7329 24.8881C17.7329 25.066 17.6756 25.234 17.5707 25.3715C17.5462 25.394 17.5216 25.4167 17.4978 25.4405L16.5361 26.3833L16.1979 26.7098ZM18.3518 29.4022C18.0239 29.7048 17.5297 29.7221 17.247 29.4393C16.9371 29.1295 16.9362 28.6258 17.2442 28.3149L17.8446 27.7262L18.8156 26.7889C18.8197 26.785 18.8235 26.7812 18.8273 26.7774C18.8526 26.7521 18.8766 26.7264 18.9004 26.7004C19.2126 26.462 19.6616 26.4846 19.9469 26.7698C20.2556 27.0786 20.2574 27.5253 19.9518 27.8337L18.3518 29.4022ZM21.0122 31.6919C21.0111 31.693 21.0098 31.6943 21.0087 31.6954C20.6903 32.0138 20.1785 32.02 19.8678 31.7093C19.5576 31.3991 19.5634 30.8884 19.8804 30.5698L21.2539 29.2106C21.2551 29.2095 21.2562 29.2083 21.2573 29.2072C21.4066 29.0579 21.6067 28.9759 21.8209 28.9759C22.035 28.9759 22.2351 29.0579 22.3844 29.2072C22.6945 29.5173 22.6951 30.0218 22.3858 30.3327L21.0122 31.6919ZM24.3863 33.3957C24.3822 33.3996 24.3782 33.4036 24.3744 33.4078L23.8695 33.9309C23.5403 34.255 23.0086 34.2534 22.6814 33.9262C22.5197 33.7645 22.4294 33.5477 22.427 33.3159C22.4246 33.0888 22.5083 32.879 22.6625 32.7246L23.225 32.1621C23.3751 32.012 23.57 31.9376 23.7692 31.9376C23.9871 31.9376 24.2103 32.0266 24.3861 32.2024C24.7151 32.5314 24.7151 33.0667 24.3863 33.3957Z" fill="#FCA311"/>
</g>
<defs>
<clipPath id="clip0_6_3756">
<rect width="24" height="24" fill="white" transform="translate(13 12)"/>
</clipPath>
</defs>
</svg>
