<svg width="49" height="48" viewBox="0 0 49 48" fill="none" xmlns="http://www.w3.org/2000/svg">
<circle cx="24.625" cy="24" r="24" fill="white"/>
<g clip-path="url(#clip0_6_3880)">
<path d="M27.5718 23.8282C27.8637 23.4498 28.0375 22.9757 28.0375 22.4621C28.0375 21.4717 27.3915 20.6299 26.499 20.3344L26.5032 19.5355C26.5054 19.1473 26.1923 18.8307 25.804 18.8287C25.8027 18.8287 25.8014 18.8287 25.8001 18.8287C25.4136 18.8287 25.0992 19.1409 25.097 19.528L25.0933 20.2209H24.6246L24.6282 19.5229C24.6304 19.1345 24.3173 18.8181 23.929 18.8159C23.9277 18.8159 23.9264 18.8159 23.9251 18.8159C23.5386 18.8159 23.2242 19.1283 23.222 19.5152L23.2181 20.2366C22.6919 20.3253 22.2898 20.7838 22.2898 21.3349V26.6651C22.2898 27.2175 22.6939 27.6769 23.2222 27.7639L23.2183 28.4643C23.2161 28.8527 23.5294 29.1693 23.9176 29.1713H23.9214C24.308 29.1713 24.6224 28.8589 24.6246 28.472L24.6282 27.7789H25.097L25.0933 28.4771C25.0911 28.8653 25.4042 29.1819 25.7926 29.1841H25.7964C26.183 29.1841 26.4974 28.8717 26.4996 28.4848L26.5034 27.7463C27.5592 27.5656 28.3656 26.6444 28.3656 25.5379C28.3656 24.8535 28.0571 24.2395 27.5718 23.8282ZM25.7963 23.2969H23.6959V21.6273H25.7963C26.2566 21.6273 26.6312 22.0018 26.6312 22.4621C26.6312 22.9224 26.2568 23.2969 25.7963 23.2969ZM26.1244 26.3727H23.6959V24.7031H26.1244C26.5847 24.7031 26.9594 25.0776 26.9594 25.5379C26.9594 25.9984 26.5849 26.3727 26.1244 26.3727Z" fill="#FCA311"/>
<path d="M33.4853 15.5147C31.2188 13.2482 28.2053 12 25 12C21.7947 12 18.7812 13.2482 16.5147 15.5147C14.2482 17.7812 13 20.7947 13 24C13 27.2053 14.2482 30.2188 16.5147 32.4853C18.7812 34.7518 21.7947 36 25 36C28.2053 36 31.2188 34.7518 33.4853 32.4853C35.7518 30.2188 37 27.2053 37 24C37 20.7947 35.7518 17.7812 33.4853 15.5147ZM32.4908 31.4908C30.4901 33.4918 27.8297 34.5938 25 34.5938C22.1703 34.5938 19.5099 33.4918 17.5092 31.4908C15.5082 29.4901 14.4062 26.8297 14.4062 24C14.4062 21.1703 15.5082 18.5099 17.5092 16.5092C19.5099 14.5082 22.1703 13.4062 25 13.4062C27.8297 13.4062 30.4901 14.5082 32.4908 16.5092C34.4918 18.5099 35.5938 21.1703 35.5938 24C35.5938 26.8297 34.4918 29.4901 32.4908 31.4908Z" fill="#FCA311"/>
<path d="M24.9999 14.7252C19.8856 14.7252 15.7251 18.8859 15.7251 24C15.7251 29.1141 19.8856 33.2748 24.9999 33.2748C30.1143 33.2748 34.2748 29.1141 34.2748 24C34.2748 18.8859 30.1143 14.7252 24.9999 14.7252ZM24.9999 31.8686C20.6611 31.8686 17.1313 28.3389 17.1313 24C17.1313 19.6611 20.6611 16.1314 24.9999 16.1314C29.3388 16.1314 32.8685 19.6611 32.8685 24C32.8685 28.3389 29.3388 31.8686 24.9999 31.8686Z" fill="#FCA311"/>
</g>
<defs>
<clipPath id="clip0_6_3880">
<rect width="24" height="24" fill="white" transform="translate(13 12)"/>
</clipPath>
</defs>
</svg>
