<svg width="49" height="48" viewBox="0 0 49 48" fill="none" xmlns="http://www.w3.org/2000/svg">
<circle cx="24.875" cy="24" r="24" fill="white"/>
<g clip-path="url(#clip0_6_3786)">
<path d="M25 26.3594C24.6123 26.3594 24.2969 26.044 24.2969 25.6562C24.2969 25.373 24.4654 25.1187 24.7262 25.0082C25.0411 24.8749 25.4178 24.9887 25.7602 25.3203C26.0391 25.5905 26.4842 25.5835 26.7544 25.3046C27.0247 25.0257 27.0176 24.5806 26.7387 24.3104C26.4213 24.0029 26.0684 23.7855 25.7031 23.6628V22.8438C25.7031 22.4554 25.3883 22.1406 25 22.1406C24.6117 22.1406 24.2969 22.4554 24.2969 22.8438V23.6674C24.257 23.6816 24.2172 23.6966 24.1778 23.7133C23.3959 24.0445 22.8906 24.8071 22.8906 25.6562C22.8906 26.8194 23.8369 27.7656 25 27.7656C25.3877 27.7656 25.7031 28.081 25.7031 28.4688C25.7031 28.7634 25.5173 29.0291 25.2407 29.1298C24.8795 29.2613 24.4591 29.083 24.0872 28.6402C23.8375 28.3428 23.394 28.3043 23.0966 28.554C22.7993 28.8038 22.7607 29.2473 23.0104 29.5446C23.3905 29.9972 23.833 30.3076 24.2969 30.4637V31.2812C24.2969 31.6696 24.6117 31.9844 25 31.9844C25.3884 31.9844 25.7032 31.6696 25.7032 31.2812V30.4575C25.7095 30.4553 25.7157 30.4534 25.722 30.4511C26.5518 30.1489 27.1094 29.3522 27.1094 28.4688C27.1094 27.3056 26.1631 26.3594 25 26.3594Z" fill="#FCA311"/>
<path d="M31.5118 22.059C30.6761 21.0309 29.7208 20.2118 28.6721 19.6228C28.8439 19.4196 28.9794 19.1813 29.0669 18.9158C29.4103 17.87 28.9087 16.6278 27.6284 16.2232L29.4232 13.0936C29.6497 12.6986 29.4462 12.1955 29.0096 12.0686C27.7119 11.6913 26.3629 11.5 25 11.5C23.6371 11.5 22.2881 11.6913 20.9904 12.0686C20.5533 12.1957 20.3506 12.6991 20.5768 13.0936L22.3716 16.2232C21.0963 16.6258 20.5884 17.8662 20.9333 18.9163C21.0205 19.1812 21.156 19.4193 21.3282 19.6226C20.2794 20.2116 19.324 21.0308 18.4882 22.059C16.8175 24.1143 15.8594 26.7069 15.8594 29.1719C15.8594 34.2855 19.9397 35.5 25 35.5C30.0639 35.5 34.1406 34.2835 34.1406 29.1719C34.1406 26.7069 33.1825 24.1143 31.5118 22.059ZM22.2576 13.1977C23.1547 13.0041 24.0737 12.9062 25 12.9062C25.9263 12.9062 26.8453 13.0041 27.7424 13.1977L26.194 15.8978C25.4009 15.7871 24.5994 15.7871 23.8061 15.8979L22.2576 13.1977ZM22.717 17.5889C23.9271 17.1919 25.1931 17.1167 26.4239 17.3628C26.4253 17.363 26.4268 17.3633 26.4283 17.3636C26.7152 17.4212 27.0001 17.4961 27.282 17.5885C27.6505 17.71 27.8519 18.1086 27.7311 18.4764C27.6433 18.7428 27.4115 18.9263 27.1388 18.956C26.4377 18.7365 25.7227 18.625 25 18.625C24.2788 18.625 23.5651 18.736 22.8654 18.9546C22.5885 18.9261 22.3562 18.7413 22.2691 18.4771C22.1481 18.1086 22.3495 17.71 22.717 17.5889ZM25 34.1031C19.5064 34.1031 17.2656 32.6678 17.2656 29.1719C17.2656 27.0558 18.1306 24.7285 19.5794 22.946C21.1073 21.0664 23.0323 20.0312 25 20.0312C27.1659 20.0312 29.0604 21.2726 30.4206 22.946C31.8694 24.7285 32.7344 27.0558 32.7344 29.1719C32.7344 32.6678 30.4936 34.1031 25 34.1031Z" fill="#FCA311"/>
</g>
<defs>
<clipPath id="clip0_6_3786">
<rect width="24" height="24" fill="white" transform="translate(13 11.5)"/>
</clipPath>
</defs>
</svg>
