<svg width="49" height="48" viewBox="0 0 49 48" fill="none" xmlns="http://www.w3.org/2000/svg">
<circle cx="24.375" cy="24" r="24" fill="white"/>
<g clip-path="url(#clip0_6_3723)">
<path d="M29.5835 26.682H27.5054C26.9876 26.682 26.5679 27.1018 26.5679 27.6195C26.5679 28.1373 26.9876 28.557 27.5054 28.557H29.5835C30.1013 28.557 30.521 28.1373 30.521 27.6195C30.521 27.1018 30.1013 26.682 29.5835 26.682Z" fill="#FCA311"/>
<path d="M29.5835 18.6727H27.5054C26.9876 18.6727 26.5679 19.0924 26.5679 19.6102C26.5679 20.128 26.9876 20.5477 27.5054 20.5477H29.5835C30.1013 20.5477 30.521 20.128 30.521 19.6102C30.521 19.0924 30.1013 18.6727 29.5835 18.6727Z" fill="#FCA311"/>
<path d="M29.5835 22.6774H27.5054C26.9876 22.6774 26.5679 23.0971 26.5679 23.6149C26.5679 24.1327 26.9876 24.5524 27.5054 24.5524H29.5835C30.1013 24.5524 30.521 24.1327 30.521 23.6149C30.521 23.0971 30.1013 22.6774 29.5835 22.6774Z" fill="#FCA311"/>
<path d="M35.0625 33.7069H29.482V31.7512C29.482 31.2335 29.0623 30.8137 28.5445 30.8137C28.0267 30.8137 27.607 31.2335 27.607 31.7512V33.7069H24.4642V15.1734C24.4642 14.7352 24.7513 14.5073 24.8746 14.4297C24.9977 14.3523 25.3264 14.1926 25.7197 14.3813L31.5448 17.1765C32.2008 17.4913 32.6247 18.1654 32.6247 18.8938V33.957C32.6247 34.4748 33.0444 34.8945 33.5622 34.8945C34.08 34.8945 34.4997 34.4748 34.4997 33.957V18.8937C34.4997 17.4485 33.6582 16.1109 32.3559 15.486L26.5309 12.6909C25.6735 12.2794 24.681 12.3362 23.876 12.8428C23.0703 13.3498 22.5893 14.221 22.5893 15.1734V15.9511L15.5098 19.7019C14.2703 20.3587 13.5003 21.6384 13.5003 23.0419V33.7069H12.9375C12.4197 33.7069 12 34.1266 12 34.6444C12 35.1622 12.4197 35.5819 12.9375 35.5819H35.0625C35.5803 35.5819 36 35.1622 36 34.6444C36 34.1266 35.5803 33.7069 35.0625 33.7069ZM15.3753 23.0419C15.3753 22.3345 15.7632 21.6895 16.3876 21.3587L22.5893 18.073V23.7517H21.3496C19.2664 23.7517 17.5715 25.4465 17.5715 27.5297V33.7069H15.3753V23.0419ZM19.4466 27.5297C19.4466 26.4803 20.3003 25.6266 21.3496 25.6266H22.5893V33.7069H19.4466V27.5297Z" fill="#FCA311"/>
</g>
<defs>
<clipPath id="clip0_6_3723">
<rect width="24" height="24" fill="white" transform="translate(12 12)"/>
</clipPath>
</defs>
</svg>
