<svg width="49" height="48" viewBox="0 0 49 48" fill="none" xmlns="http://www.w3.org/2000/svg">
<circle cx="24.375" cy="24" r="24" fill="white"/>
<g clip-path="url(#clip0_6_3848)">
<path d="M36 23.9058V28.0776C35.9505 29.3214 34.1741 29.3205 34.1251 28.0776V26.2256L31.1415 29.2092C30.9657 29.385 30.7272 29.4838 30.4786 29.4838H25.7479L19.5071 35.7247C19.141 36.0908 18.5474 36.0908 18.1813 35.7247C17.8151 35.3585 17.8151 34.765 18.1813 34.3989L24.6968 27.8834C24.8725 27.7076 25.111 27.6088 25.3596 27.6088H30.0903L32.8558 24.8433H30.8439C29.6 24.7938 29.601 23.0174 30.8439 22.9683H35.0625C35.5803 22.9683 36 23.388 36 23.9058ZM35.0625 30.89C34.5448 30.89 34.1251 31.3097 34.1251 31.8275V35.0618C34.1746 36.3056 35.9509 36.3047 36 35.0618V31.8275C36 31.3097 35.5803 30.89 35.0625 30.89ZM31.3126 30.89C30.7949 30.89 30.3752 31.3097 30.3752 31.8275V35.0618C30.4246 36.3056 32.201 36.3047 32.2501 35.0618V31.8275C32.2501 31.3097 31.8304 30.89 31.3126 30.89ZM27.5627 30.89C27.0449 30.89 26.6252 31.3097 26.6252 31.8275V35.0618C26.6747 36.3056 28.4511 36.3047 28.5002 35.0618V31.8275C28.5002 31.3097 28.0805 30.89 27.5627 30.89ZM23.8128 33.7493C23.295 33.7493 22.8753 34.169 22.8753 34.6868V35.0618C22.9248 36.3056 24.7012 36.3047 24.7503 35.0618V34.6868C24.7503 34.169 24.3306 33.7493 23.8128 33.7493ZM21.891 27.8901C22.4087 27.8901 22.8285 27.4704 22.8285 26.9526V26.3768C25.7673 25.2889 25.0576 20.9658 21.8909 20.9059C20.6445 20.855 20.6505 19.0891 21.891 19.0376C22.2674 19.0376 22.5679 19.237 22.7155 19.5848C22.9178 20.0613 23.4682 20.2836 23.9448 20.0813C24.4214 19.879 24.6437 19.3286 24.4414 18.852C24.1276 18.1128 23.5445 17.5722 22.8285 17.3204V16.6872C22.779 15.4433 21.0026 15.4442 20.9535 16.6872V17.3232C18.0189 18.411 18.7188 22.7206 21.891 22.7808C23.1305 22.8321 23.1384 24.6108 21.891 24.6624C21.5264 24.6624 21.1648 24.4245 21.0117 24.0839C20.7995 23.6117 20.2445 23.4009 19.7723 23.6132C19.3001 23.8254 19.0893 24.3803 19.3016 24.8525C19.6215 25.5644 20.2347 26.1113 20.9535 26.371V26.9525C20.9535 27.4704 21.3732 27.8901 21.891 27.8901ZM18.6565 31.0998C19.0334 31.0998 19.389 30.8707 19.532 30.4976C19.7174 30.0142 19.4757 29.472 18.9922 29.2867C10.83 25.9907 13.0221 14.0215 21.8442 13.8748C25.724 13.8748 29.0249 16.6435 29.6929 20.4582C29.7822 20.9681 30.268 21.3092 30.778 21.2199C31.288 21.1306 31.6291 20.6448 31.5397 20.1348C31.1451 17.8815 29.9622 15.8214 28.2087 14.334C21.889 8.93243 11.9723 13.5203 12.0006 21.8434C11.9534 25.8448 14.5791 29.6473 18.3211 31.0374C18.4315 31.0797 18.5449 31.0998 18.6565 31.0998Z" fill="#FCA311"/>
</g>
<defs>
<clipPath id="clip0_6_3848">
<rect width="24" height="24" fill="white" transform="translate(12 12)"/>
</clipPath>
</defs>
</svg>
