<svg width="48" height="48" viewBox="0 0 48 48" fill="none" xmlns="http://www.w3.org/2000/svg">
<circle cx="24" cy="24" r="24" fill="white"/>
<g clip-path="url(#clip0_6_3664)">
<path d="M36 18.0781V12.5H30.375V14.375H32.8929L24.3047 22.9633L17.758 16.4165L13.875 20.4819V12.5H12V36.5H36V34.625H13.875V28.7183L17.4954 24.911L21.252 28.6676L24.3047 25.6149L29.2031 30.5133L34.125 25.5914V27.875H36V22.2969H30.375V24.1719H32.8929L29.2031 27.8617L25.6305 24.2891L34.125 15.7946V18.0781H36ZM21.252 26.016L17.4616 22.2257L13.875 25.9974V23.1965L17.7888 19.0989L22.9789 24.2891L21.252 26.016Z" fill="#FCA311"/>
</g>
<defs>
<clipPath id="clip0_6_3664">
<rect width="24" height="24" fill="white" transform="translate(12 12.5)"/>
</clipPath>
</defs>
</svg>
