<svg width="32" height="33" viewBox="0 0 32 33" fill="none" xmlns="http://www.w3.org/2000/svg">
<circle cx="16" cy="16.5" r="16" fill="#E2E8F0"/>
<g clip-path="url(#clip0_8_1078)">
<path d="M23.01 12.5122C22.0968 12.5122 21.2543 12.2097 20.5778 11.6994C19.8018 11.1144 19.2443 10.2563 19.0475 9.26721C18.9987 9.02283 18.9725 8.77064 18.97 8.51221H16.3615V15.6397L16.3584 19.5438C16.3584 20.5875 15.6787 21.4725 14.7365 21.7838C14.4631 21.8741 14.1678 21.9169 13.8603 21.9C13.4678 21.8785 13.1 21.76 12.7803 21.5688C12.1 21.1619 11.6387 20.4238 11.6262 19.5794C11.6065 18.2597 12.6734 17.1838 13.9922 17.1838C14.2525 17.1838 14.5025 17.2263 14.7365 17.3035V15.3553V14.655C14.4897 14.6185 14.2384 14.5994 13.9843 14.5994C12.5409 14.5994 11.1909 15.1994 10.2259 16.2803C9.49654 17.0972 9.05904 18.1394 8.99154 19.2322C8.9031 20.6678 9.42841 22.0325 10.4472 23.0394C10.5968 23.1872 10.754 23.3244 10.9184 23.451C11.7918 24.1231 12.8597 24.4875 13.9843 24.4875C14.2384 24.4875 14.4897 24.4688 14.7365 24.4322C15.7872 24.2766 16.7565 23.7956 17.5215 23.0394C18.4615 22.1103 18.9809 20.8769 18.9865 19.5641L18.9731 13.7341C19.4215 14.08 19.9118 14.3663 20.4381 14.5885C21.2565 14.9338 22.1243 15.1088 23.0175 15.1085V13.2144V12.5116C23.0181 12.5122 23.0106 12.5122 23.01 12.5122Z" fill="black"/>
</g>
<defs>
<clipPath id="clip0_8_1078">
<rect width="16" height="16" fill="white" transform="translate(8 8.5)"/>
</clipPath>
</defs>
</svg>
