<svg width="48" height="49" viewBox="0 0 48 49" fill="none" xmlns="http://www.w3.org/2000/svg">
<circle cx="24" cy="24.5" r="24" fill="#FEE6BE"/>
<g clip-path="url(#clip0_8_894)">
<path d="M32.733 26.305C32.5492 26.4256 32.3906 26.5703 32.2583 26.732L29.8021 25.8459C29.9025 25.4132 29.9555 24.9627 29.9555 24.5C29.9555 23.1109 29.4773 21.8314 28.6771 20.8172L32.9817 16.5126C33.2572 16.6446 33.5654 16.7188 33.8906 16.7188C35.0537 16.7188 36 15.7725 36 14.6094C36 13.4463 35.0537 12.5 33.8906 12.5C32.7275 12.5 31.7812 13.4463 31.7812 14.6094C31.7812 14.9346 31.8554 15.2428 31.9874 15.5182L27.6828 19.8228C26.8424 19.1596 25.8195 18.718 24.7032 18.5861V16.5978C25.5216 16.3076 26.1094 15.526 26.1094 14.6094C26.1094 13.4463 25.1632 12.5 24 12.5C22.8369 12.5 21.8907 13.4463 21.8907 14.6094C21.8907 15.526 22.4785 16.3076 23.2969 16.5978V18.5862C21.2101 18.8327 19.4505 20.1624 18.5973 21.9959L16.6345 21.3549C16.6269 21.0218 16.5399 20.693 16.3753 20.3924C15.8165 19.3723 14.532 18.9969 13.5119 19.5557C13.0177 19.8264 12.6585 20.2733 12.5005 20.8141C12.3425 21.355 12.4045 21.9249 12.6752 22.419C12.9459 22.9132 13.3928 23.2724 13.9336 23.4304C14.1297 23.4877 14.3295 23.516 14.5282 23.516C14.8777 23.516 15.2236 23.4283 15.5387 23.2557C15.7995 23.1128 16.0222 22.9205 16.198 22.6916L18.1598 23.3323C18.0844 23.71 18.0446 24.1004 18.0446 24.5C18.0446 25.8891 18.5227 27.1686 19.323 28.1828L15.0183 32.4874C14.7429 32.3554 14.4346 32.2812 14.1094 32.2812C12.9463 32.2812 12 33.2275 12 34.3906C12 35.5537 12.9463 36.5 14.1094 36.5C15.2725 36.5 16.2188 35.5537 16.2188 34.3906C16.2188 34.0654 16.1446 33.7572 16.0126 33.4818L20.3172 29.1771C21.3314 29.9774 22.6109 30.4556 24 30.4556C24.4868 30.4556 24.96 30.3964 25.4132 30.2857L26.1405 32.2303C25.7834 32.5284 25.5361 32.9336 25.435 33.3953C25.3146 33.9457 25.4156 34.5101 25.7196 34.9845C26.0235 35.4589 26.494 35.7865 27.0445 35.907C27.1959 35.9402 27.3484 35.9565 27.4998 35.9565C27.8986 35.9565 28.2898 35.8428 28.6336 35.6225C29.1081 35.3185 29.4357 34.848 29.5562 34.2975C29.8049 33.1613 29.0829 32.0346 27.9467 31.7859C27.7839 31.7502 27.6199 31.7344 27.4574 31.7371L26.73 29.792C27.8465 29.2137 28.7577 28.2922 29.3234 27.1682L31.782 28.0552C31.7789 28.4576 31.8902 28.865 32.127 29.2259C32.4362 29.697 32.9103 30.0194 33.462 30.1339C33.606 30.1637 33.7509 30.1785 33.8947 30.1785C34.3015 30.1785 34.6999 30.0603 35.048 29.8318C36.0203 29.1936 36.2921 27.8833 35.6539 26.911C35.0157 25.9386 33.7054 25.6668 32.733 26.305ZM14.863 22.0224C14.6983 22.1126 14.5083 22.1332 14.328 22.0806C14.1477 22.0279 13.9988 21.9082 13.9086 21.7435C13.7223 21.4034 13.8474 20.9753 14.1874 20.789C14.2943 20.7305 14.4099 20.7027 14.524 20.7027C14.7728 20.7027 15.0142 20.8348 15.1419 21.068C15.3281 21.4079 15.203 21.8361 14.863 22.0224ZM28.1825 33.9968C28.1423 34.1803 28.0331 34.3371 27.875 34.4384C27.7168 34.5398 27.5286 34.5733 27.3452 34.5333C27.1618 34.4931 27.0049 34.3839 26.9036 34.2258C26.8023 34.0676 26.7686 33.8795 26.8088 33.696C26.8489 33.5126 26.9582 33.3557 27.1163 33.2544C27.2309 33.181 27.3613 33.1431 27.4943 33.1431C27.5447 33.1431 27.5955 33.1485 27.646 33.1596C28.0247 33.2425 28.2653 33.6181 28.1825 33.9968ZM33.8906 13.9062C34.2783 13.9062 34.5938 14.2217 34.5938 14.6094C34.5938 14.9971 34.2783 15.3125 33.8906 15.3125C33.5029 15.3125 33.1875 14.9971 33.1875 14.6094C33.1875 14.2217 33.5029 13.9062 33.8906 13.9062ZM24 13.9062C24.3877 13.9062 24.7031 14.2217 24.7031 14.6094C24.7031 14.9971 24.3877 15.3125 24 15.3125C23.6123 15.3125 23.2969 14.9971 23.2969 14.6094C23.2969 14.2217 23.6123 13.9062 24 13.9062ZM14.1094 35.0938C13.7217 35.0938 13.4062 34.7783 13.4062 34.3906C13.4062 34.0029 13.7217 33.6875 14.1094 33.6875C14.4971 33.6875 14.8125 34.0029 14.8125 34.3906C14.8125 34.7783 14.4971 35.0938 14.1094 35.0938ZM19.4507 24.5C19.4507 22.2306 21.121 20.3441 23.2969 20.0051V21.1053C22.4785 21.3956 21.8906 22.1771 21.8906 23.0938C21.8906 24.2569 22.8369 25.2031 24 25.2031C24.3877 25.2031 24.7031 25.5185 24.7031 25.9062C24.7031 26.294 24.3877 26.6094 24 26.6094C23.6123 26.6094 23.2969 26.294 23.2969 25.9062H21.8906C21.8906 26.8229 22.4785 27.6044 23.2969 27.8947V28.9949C21.1211 28.6559 19.4507 26.7694 19.4507 24.5ZM24.7031 28.9949V27.8947C25.5215 27.6044 26.1094 26.8229 26.1094 25.9062C26.1094 24.7431 25.1631 23.7969 24 23.7969C23.6123 23.7969 23.2969 23.4815 23.2969 23.0938C23.2969 22.706 23.6123 22.3906 24 22.3906C24.3877 22.3906 24.7031 22.706 24.7031 23.0938H26.1094C26.1094 22.1771 25.5215 21.3956 24.7031 21.1053V20.0051C26.8789 20.3441 28.5493 22.2306 28.5493 24.5C28.5493 26.7694 26.8789 28.6559 24.7031 28.9949ZM34.2764 28.6562C34.1193 28.7593 33.9316 28.7951 33.7477 28.7569C33.5638 28.7188 33.4058 28.6113 33.3027 28.4542C33.09 28.1301 33.1806 27.6934 33.5047 27.4806C33.6233 27.4027 33.7571 27.3655 33.8894 27.3655C34.1186 27.3655 34.3435 27.4771 34.4783 27.6825C34.691 28.0067 34.6005 28.4435 34.2764 28.6562Z" fill="black"/>
</g>
<defs>
<clipPath id="clip0_8_894">
<rect width="24" height="24" fill="white" transform="translate(12 12.5)"/>
</clipPath>
</defs>
</svg>
