<svg width="48" height="48" viewBox="0 0 48 48" fill="none" xmlns="http://www.w3.org/2000/svg">
<circle cx="24" cy="24" r="24" fill="#FEE6BE"/>
<g clip-path="url(#clip0_8_5)">
<path d="M20.9087 32.6683L20.2048 31.9645L21.476 30.6933H30.1401L36 24.8334L35.5024 24.3357C34.1272 22.9605 31.9011 22.9603 30.5256 24.3357L30.0868 24.7746C29.8729 24.3741 29.5337 24.0505 29.1219 23.8559C30.7087 22.7036 31.7426 20.8342 31.7426 18.7275C31.7426 15.2086 28.9008 12.3457 25.4077 12.3457C21.9147 12.3457 19.0728 15.2086 19.0728 18.7275C19.0728 20.2183 19.5991 21.6508 20.5406 22.7816C20.0425 23.0584 19.599 23.4349 19.2453 23.8945L15.69 27.4497L14.9861 26.7458L12 29.7318L17.9226 35.6544L20.9087 32.6683ZM30.3348 18.7274C30.3348 21.2053 28.4962 23.2615 26.1116 23.6041V22.1258C26.9308 21.8352 27.5193 21.0528 27.5193 20.1352C27.5193 18.9709 26.5721 18.0236 25.4077 18.0236C25.0196 18.0236 24.7038 17.7078 24.7038 17.3197C24.7038 16.9316 25.0196 16.6158 25.4077 16.6158C25.7958 16.6158 26.1116 16.9315 26.1116 17.3197H27.5193C27.5193 16.4021 26.9308 15.6198 26.1116 15.3292V13.8043C28.4961 14.1502 30.3348 16.2259 30.3348 18.7274ZM20.4806 18.7274C20.4806 16.226 22.3192 14.1502 24.7038 13.8043V15.3292C23.8846 15.6197 23.2961 16.4021 23.2961 17.3197C23.2961 18.4841 24.2434 19.4313 25.4077 19.4313C25.7958 19.4313 26.1116 19.7471 26.1116 20.1352C26.1116 20.5233 25.7958 20.8391 25.4077 20.8391C25.0196 20.8391 24.7038 20.5233 24.7038 20.1352H23.2961C23.2961 21.0528 23.8846 21.8352 24.7038 22.1258V22.8153C24.0683 22.4487 23.3397 22.2467 22.5922 22.2467C22.3942 22.2467 22.1975 22.2611 22.0035 22.2888C21.0333 21.3608 20.4806 20.0747 20.4806 18.7274ZM20.3398 24.7807C20.8687 24.0756 21.7107 23.6545 22.5922 23.6545C23.4737 23.6545 24.3157 24.0756 24.8446 24.7807L25.0558 25.0623H28.2232C28.6113 25.0623 28.9271 25.3781 28.9271 25.7662C28.9271 26.1543 28.6113 26.47 28.2232 26.47H24V27.8778H28.2232C29.0231 27.8778 29.7204 27.4307 30.0787 26.7734L31.5211 25.3311C32.1827 24.6694 33.1558 24.5499 33.9246 24.918L29.5571 29.2855H20.8929L19.2094 30.969L16.6855 28.4451C16.7168 28.4136 16.2919 28.8397 20.3398 24.7807ZM14.9861 28.7366L18.9179 32.6684L17.9226 33.6636L13.9908 29.7319L14.9861 28.7366Z" fill="black"/>
</g>
<defs>
<clipPath id="clip0_8_5">
<rect width="24" height="24" fill="white" transform="translate(12 12)"/>
</clipPath>
</defs>
</svg>
