<svg width="48" height="48" viewBox="0 0 48 48" fill="none" xmlns="http://www.w3.org/2000/svg">
<circle cx="24" cy="24" r="24" fill="#FEE6BE"/>
<path d="M23.041 12.9376C25.1944 12.6006 27.9618 13.4263 31.2239 15.3868C31.6063 14.8037 32.0056 14.238 32.3663 13.6456C32.5485 13.3458 32.7524 13.214 33.1275 13.228C33.9503 13.2584 34.7755 13.2467 35.5982 13.228C35.9469 13.221 36.0723 13.3353 35.9601 13.726C35.1265 13.726 34.2869 13.7424 33.4496 13.719C33.0877 13.7085 32.8465 13.81 32.6667 14.1191C32.347 14.6556 31.9935 15.1687 31.6316 15.7321C34.5366 18.2652 36.0036 21.4061 35.9637 25.2338H29.1827C29.2309 23.601 28.7219 22.1548 27.4938 20.9909C26.2657 19.8269 24.7577 19.3662 23.041 19.4117V12.9376ZM29.7521 24.7475H35.4317C35.3618 21.2988 33.9756 18.495 31.3481 16.1752L30.5785 17.3124L30.1852 17.0185L30.9259 15.8522C28.837 14.2488 26.2487 13.3753 23.5815 13.3738V18.8834C27.3948 19.4024 28.8123 20.7529 29.7521 24.7475Z" fill="black"/>
<path d="M22.1531 13.8228C22.1531 15.7775 22.1627 17.6785 22.1326 19.5796C22.1326 19.7242 21.8756 19.9295 21.6947 19.9983C18.5653 21.2287 17.2733 24.6436 18.9079 27.4136C19.0756 27.6981 19.2807 27.9617 19.4761 28.2451C18.014 29.6206 16.5507 30.9983 15.0861 32.3785C12.6179 30.1497 11.0435 25.537 12.6541 21.1459C14.413 16.3571 18.8766 14.0467 22.1531 13.8228ZM21.6428 14.4281C18.5279 14.3931 14.4648 17.7182 13.1414 21.3092C11.6564 25.3306 13.0461 29.6925 15.1151 31.6332C16.3279 30.4739 17.5415 29.3131 18.7559 28.1506C16.6677 24.6961 17.6219 21.5529 21.3846 19.5877C21.4483 19.5537 21.5035 19.5066 21.5464 19.4498C21.5893 19.393 21.6189 19.3278 21.6331 19.2588C21.6512 17.6482 21.6428 16.0375 21.6428 14.4281Z" fill="black"/>
<path d="M28.074 24.8431C28.074 27.3121 26.098 29.2225 23.5356 29.2225C22.6424 29.2192 21.7702 28.9603 21.0291 28.4784C20.2879 27.9965 19.711 27.3132 19.3712 26.5146C19.0313 25.7161 18.9437 24.8381 19.1193 23.9915C19.295 23.1448 19.7261 22.3674 20.3583 21.7574C20.9905 21.1474 21.7954 20.732 22.6714 20.5638C23.5475 20.3955 24.4555 20.4819 25.2808 20.8119C26.1062 21.142 26.812 21.701 27.3091 22.4184C27.8062 23.1359 28.0723 23.9795 28.074 24.8431ZM27.5625 24.857C27.5625 22.7111 25.7373 20.9453 23.5429 20.9686C22.4768 20.9697 21.4548 21.3802 20.7018 22.1097C19.9487 22.8393 19.5263 23.8281 19.5274 24.8588C19.5285 25.8894 19.9531 26.8775 20.7077 27.6055C21.4624 28.3335 22.4852 28.7419 23.5513 28.7408C24.0788 28.7416 24.6012 28.6416 25.0887 28.4466C25.5761 28.2516 26.0189 27.9655 26.3916 27.6046C26.7643 27.2438 27.0596 26.8153 27.2605 26.3438C27.4615 25.8723 27.5641 25.367 27.5625 24.857Z" fill="black"/>
<path d="M29.372 34.2459L26.718 29.3743C27.7171 28.6877 28.4749 27.7219 28.8895 26.6067C28.9191 26.5522 28.9616 26.5053 29.0136 26.4698C29.0657 26.4343 29.1257 26.4113 29.1887 26.4026C31.0103 26.3898 32.8331 26.3933 34.738 26.3933C34.1662 29.8152 32.3771 32.3577 29.372 34.2459ZM29.5615 33.5275C31.9827 31.8585 33.5196 29.7125 34.13 26.8796C32.5617 26.8796 31.0622 26.8796 29.5602 26.8878C29.4975 26.8996 29.438 26.9237 29.3853 26.9586C29.3326 26.9935 29.2879 27.0385 29.2538 27.0907C28.682 27.9199 28.1247 28.7585 27.4877 29.7055L29.5615 33.5275Z" fill="black"/>
<path d="M22.9575 35.7621C20.2552 35.5895 17.9486 34.6576 15.9883 32.9548L19.9259 29.1819L22.9575 30.4356V35.7621ZM22.4858 35.2198C22.4858 33.7654 22.4858 32.3542 22.4726 30.943C22.4726 30.8392 22.3157 30.6899 22.1975 30.6432C21.4628 30.354 20.7185 30.0869 19.9995 29.821L16.7254 32.9152C18.3649 34.2214 20.371 35.024 22.4858 35.2198Z" fill="black"/>
<path d="M23.8818 30.0961L25.8796 29.6016C26.8145 31.323 27.7615 33.0643 28.7327 34.8499C27.174 35.587 25.6045 36.0045 23.8818 35.9998V30.0961ZM28.0812 34.7228C27.2114 33.1249 26.4128 31.6612 25.6166 30.201L24.4018 30.5113V35.6115L28.0812 34.7228Z" fill="black"/>
<path d="M35.6778 12.1808V12.4922C34.8188 12.5225 33.949 12.5152 33.0901 12.4907V12.2566L33.0901 12.0093C34.0467 11.9906 34.7211 12.0058 35.6778 12.0058V12.1808Z" fill="black"/>
<path d="M24.5682 24.0093C24.425 23.8964 24.276 23.7905 24.1218 23.6921C23.8805 23.5544 23.6212 23.3165 23.398 23.3422C23.2014 23.3678 22.9082 23.7014 22.9154 23.8938C22.9154 24.1096 23.176 24.3604 23.3871 24.519C23.5983 24.6776 23.8769 24.6846 24.111 24.7989C24.9458 25.2141 24.9928 26.2346 24.2159 26.7489C24.0663 26.8481 23.9638 27.0125 23.8154 27.114C23.7177 27.1804 23.5054 27.2528 23.4656 27.2108C23.0795 26.8212 22.72 26.406 22.3533 25.999L22.5668 25.7657C22.72 25.8684 22.866 25.9827 23.0288 26.0701C23.2568 26.1868 23.5235 26.4095 23.7237 26.3675C23.924 26.3256 24.1918 26.0177 24.2063 25.8206C24.2207 25.6235 23.9819 25.3645 23.7864 25.2176C23.591 25.0706 23.3039 25.0426 23.0626 24.9377C22.8775 24.8614 22.7165 24.7395 22.5955 24.584C22.4746 24.4286 22.3981 24.2451 22.3736 24.0521C22.3492 23.859 22.3777 23.6631 22.4563 23.4841C22.5348 23.305 22.6608 23.1491 22.8213 23.032C23.0132 22.8815 23.1688 22.6902 23.3642 22.5456C23.445 22.4861 23.6465 22.4465 23.6863 22.4896C24.0687 22.906 24.427 23.3422 24.7926 23.7725L24.5682 24.0093Z" fill="black"/>
</svg>
