<svg width="48" height="48" viewBox="0 0 48 48" fill="none" xmlns="http://www.w3.org/2000/svg">
<circle cx="24" cy="24" r="24" fill="#FEE6BE"/>
<g clip-path="url(#clip0_8_283)">
<path d="M34.5874 33.8843C34.5874 33.0645 34.1186 32.3522 33.435 32.0013C33.2842 31.9238 33.1754 31.776 33.1754 31.6065V24.9039C33.2186 21.9298 31.2747 19.0407 28.5001 17.9397C28.3419 17.8769 28.2339 17.7265 28.2339 17.5564V16.004C28.2339 15.8962 28.278 15.7934 28.3527 15.7158C29.1989 14.8374 29.6652 13.7571 29.6458 12.6903L29.6403 12.3927C29.6364 12.1747 29.4585 12 29.2404 12H21.5889C21.3726 12 21.1955 12.1719 21.1891 12.3881L21.1804 12.6823C21.1489 13.7437 21.6153 14.8273 22.473 15.7158C22.5479 15.7934 22.5921 15.8963 22.5921 16.0042V17.5607C22.5921 17.7288 22.4865 17.878 22.3307 17.9414C20.1409 18.8324 18.4991 20.7042 17.8982 22.9842C17.8503 23.1661 17.6887 23.2975 17.5007 23.2975H15.2246C15.0037 23.2975 14.8246 23.4766 14.8246 23.6975V25.7213C14.8246 25.9422 14.6456 26.1213 14.4246 26.1213H13.8126C13.5917 26.1213 13.4126 26.3003 13.4126 26.5213V29.9515C13.4126 30.1724 13.5917 30.3515 13.8126 30.3515H14.4246C14.6456 30.3515 14.8246 30.5306 14.8246 30.7515V31.3698C14.8246 31.5907 14.6456 31.7698 14.4246 31.7698H13.8126C13.5917 31.7698 13.4126 31.9489 13.4126 32.1698V35.6C13.4126 35.821 13.5917 36 13.8126 36L34.1874 35.9994C34.4083 35.9994 34.5874 35.8204 34.5874 35.5994V33.8843ZM27.6126 13.4062C27.8789 13.4062 28.069 13.6626 27.948 13.8999C27.8045 14.1813 27.6104 14.454 27.371 14.7078C27.2992 14.7838 27.1982 14.8241 27.0936 14.8241H23.7332C23.6284 14.8241 23.5271 14.7836 23.4554 14.7073C23.2174 14.4542 23.023 14.1811 22.8788 13.9009C22.7566 13.6636 22.9464 13.4062 23.2134 13.4062L27.6126 13.4062ZM26.8277 17.2482C26.8277 17.4691 26.6486 17.6482 26.4277 17.6482H24.3983C24.1774 17.6482 23.9983 17.4691 23.9983 17.2482V16.6303C23.9983 16.4094 24.1774 16.2303 24.3983 16.2303H26.4277C26.6486 16.2303 26.8277 16.4094 26.8277 16.6303V17.2482ZM16.2308 25.1036C16.2308 24.8827 16.4099 24.7036 16.6308 24.7036H20.0728C20.2937 24.7036 20.4728 24.8827 20.4728 25.1036V26.1186C20.4728 26.1202 20.4715 26.1215 20.4699 26.1215H20.4671C20.467 26.1215 20.467 26.1215 20.467 26.1214C20.467 26.1213 20.4669 26.1212 20.4668 26.1212H16.6308C16.4099 26.1212 16.2308 25.9421 16.2308 25.7212V25.1036ZM14.8188 27.5304C14.8188 27.5288 14.8201 27.5274 14.8217 27.5274H14.8245C14.8246 27.5274 14.8246 27.5275 14.8246 27.5276C14.8246 27.5277 14.8247 27.5278 14.8248 27.5278H18.6608C18.8817 27.5278 19.0608 27.7069 19.0608 27.9278V28.5453C19.0608 28.7663 18.8817 28.9453 18.6608 28.9453H15.2188C14.9979 28.9453 14.8188 28.7663 14.8188 28.5453V27.5304ZM20.0728 30.3517C20.2937 30.3517 20.4728 30.5308 20.4728 30.7517V31.3696C20.4728 31.5905 20.2937 31.7696 20.0728 31.7696H16.6308C16.4099 31.7696 16.2308 31.5905 16.2308 31.3696V30.7517C16.2308 30.5308 16.4099 30.3517 16.6308 30.3517H20.0728ZM19.0608 34.1938C19.0608 34.4147 18.8817 34.5938 18.6608 34.5938H15.2188C14.9979 34.5938 14.8188 34.4147 14.8188 34.1938V33.5759C14.8188 33.355 14.9979 33.1759 15.2188 33.1759H18.6608C18.8817 33.1759 19.0608 33.355 19.0608 33.5759V34.1938ZM33.1812 34.1934C33.1812 34.4143 33.0022 34.5934 32.7813 34.5934L20.867 34.5938C20.6461 34.5938 20.467 34.4147 20.467 34.1938V33.5758C20.467 33.3549 20.6461 33.1758 20.867 33.1758H21.479C21.6999 33.1758 21.879 32.9967 21.879 32.7758V29.3455C21.879 29.1246 21.6999 28.9455 21.479 28.9455H20.867C20.6461 28.9455 20.467 28.7664 20.467 28.5455V27.9278C20.467 27.7069 20.6461 27.5278 20.867 27.5278H21.479C21.6999 27.5278 21.879 27.3487 21.879 27.1278V23.6975C21.879 23.4766 21.6999 23.2975 21.479 23.2975H19.7933C19.5297 23.2975 19.3381 23.0465 19.4289 22.799C20.0747 21.0369 21.5087 19.6451 23.3433 19.0718C23.3807 19.0601 23.4198 19.0544 23.459 19.0544H27.3695C27.4067 19.0544 27.4438 19.0595 27.4795 19.0701C29.9627 19.8079 31.8074 22.2805 31.7692 24.904V32.7754C31.7692 32.9964 31.9483 33.1754 32.1692 33.1754H32.4723C32.8632 33.1754 33.1812 33.4935 33.1812 33.8844V34.1934Z" fill="black"/>
</g>
<defs>
<clipPath id="clip0_8_283">
<rect width="24" height="24" fill="white" transform="translate(12 12)"/>
</clipPath>
</defs>
</svg>
