<svg width="48" height="49" viewBox="0 0 48 49" fill="none" xmlns="http://www.w3.org/2000/svg">
<circle cx="24" cy="24.5" r="24" fill="#FEE6BE"/>
<g clip-path="url(#clip0_8_791)">
<path d="M34.0768 26.3759H32.9512V24.0325C32.9512 22.5082 31.6897 21.268 30.1392 21.268C28.5886 21.268 27.3271 22.5082 27.3271 24.0325V26.3759H26.2031C25.6854 26.3759 25.2657 26.7956 25.2657 27.3133V33.2194C24.583 33.7133 23.83 34.1545 23.0161 34.5346C17.593 32.0006 14.988 26.8126 14.8649 18.2881C19.21 18.0333 21.8236 16.0532 23.0161 14.8656C24.2085 16.0533 26.8222 18.0333 31.1673 18.2881C31.1632 18.5722 31.1565 18.8524 31.147 19.1267C31.1292 19.6441 31.5342 20.0779 32.0516 20.0958C32.5691 20.1129 33.0028 19.7086 33.0206 19.1912C33.0408 18.6042 33.0492 17.9923 33.0457 17.3727C33.0428 16.8571 32.624 16.4406 32.1084 16.4406C29.6894 16.4406 27.5559 15.8487 25.7673 14.6814C24.4562 13.8257 23.8181 12.9551 23.7857 12.9101C23.6112 12.6536 23.3264 12.5 23.0161 12.5C22.7057 12.5 22.4209 12.6536 22.2465 12.9101C22.2141 12.955 21.5759 13.8257 20.2649 14.6814C18.4762 15.8487 16.3428 16.4406 13.9237 16.4406C13.4082 16.4406 12.9893 16.8571 12.9864 17.3726C12.9578 22.3931 13.6967 26.3483 15.2452 29.4645C16.0365 31.0568 17.0594 32.4481 18.2856 33.5998C19.5066 34.7466 20.9724 35.6962 22.6423 36.4222C22.7615 36.4741 22.8888 36.5 23.0161 36.5C23.1433 36.5 23.2707 36.4741 23.3898 36.4223C24.6623 35.869 25.8198 35.1847 26.8302 34.3883C26.8483 34.3741 26.8648 34.3587 26.8816 34.3435H34.0769C34.5946 34.3435 35.0142 33.9238 35.0142 33.4061V27.3133C35.0142 26.7956 34.5945 26.3759 34.0768 26.3759ZM29.2019 24.0325C29.2019 23.5419 29.6224 23.1427 30.1392 23.1427C30.6561 23.1427 31.0766 23.5419 31.0766 24.0325V26.3759H29.2019V24.0325ZM33.1395 32.4687H27.1404V28.2506H33.1395V32.4687Z" fill="black"/>
</g>
<defs>
<clipPath id="clip0_8_791">
<rect width="24" height="24" fill="white" transform="translate(12 12.5)"/>
</clipPath>
</defs>
</svg>
