<svg width="48" height="49" viewBox="0 0 48 49" fill="none" xmlns="http://www.w3.org/2000/svg">
<circle cx="24" cy="24.5" r="24" fill="#FEE6BE"/>
<g clip-path="url(#clip0_8_521)">
<path d="M35.8986 27.5032C35.5463 30.3018 34.3475 32.8754 32.4317 34.9456C32.4302 34.9469 32.429 34.9483 32.4277 34.9498L31.2097 36.2498C31.0251 36.4467 30.7755 36.5463 30.5252 36.5463C30.2956 36.5463 30.0652 36.4624 29.8843 36.2929C29.5066 35.9389 29.4872 35.3455 29.8413 34.9677L31.0571 33.6697C32.7045 31.889 33.7352 29.6758 34.0381 27.2692C34.1027 26.7553 34.572 26.3914 35.0855 26.4559C35.5991 26.5207 35.9633 26.9896 35.8986 27.5032ZM31.5189 28.6046L29.4839 30.8881C29.2986 31.096 29.0417 31.2018 28.7835 31.2018C28.5616 31.2018 28.3387 31.1234 28.16 30.9641C27.7735 30.6195 27.7393 30.027 28.0839 29.6405L30.1242 27.3511C30.1281 27.3467 30.1321 27.3423 30.1361 27.3381C30.2762 27.1867 30.3558 27.001 30.3778 26.81V26.5903C30.3525 26.3766 30.2548 26.1704 30.0847 26.0129C29.7053 25.6619 29.1109 25.685 28.7597 26.0644L25.3168 29.8128L25.42 29.9234C26.1554 30.7179 26.5359 31.7473 26.4943 32.8248C26.4526 33.9026 25.9937 34.8994 25.2021 35.632L24.4836 36.2969C24.3033 36.4639 24.0749 36.5465 23.8472 36.5465C23.5948 36.5465 23.3434 36.4454 23.1587 36.2456C22.8069 35.8657 22.8298 35.2722 23.21 34.9207L23.9277 34.2564C24.3523 33.8634 24.5981 33.3295 24.6204 32.7525C24.6428 32.1754 24.439 31.624 24.0466 31.2002L19.2547 26.0673C19.0817 25.8806 18.8502 25.774 18.5999 25.7643C18.3492 25.7548 18.1106 25.843 17.9268 26.0131C17.7479 26.1785 17.6494 26.3982 17.6307 26.6238L17.6309 26.7818C17.6479 26.9816 17.7278 27.1775 17.8735 27.3361L21.0757 30.7477C21.4302 31.1254 21.4113 31.7187 21.0337 32.0732C20.6562 32.4275 20.0627 32.4086 19.7082 32.0311L16.5037 28.6167C16.5021 28.6151 16.5008 28.6134 16.4991 28.6118C16.0531 28.1298 15.809 27.5324 15.7614 26.9235C15.7607 26.9158 15.7603 26.9082 15.7596 26.9003C15.7519 26.7911 15.7504 26.6815 15.7554 26.5722L15.7524 20.9296C15.751 20.8477 15.7513 20.7657 15.7522 20.6837L15.7508 17.7316C15.7508 17.7223 15.751 17.7129 15.7511 17.7036C15.7581 17.4659 15.6654 17.2378 15.4902 17.0609C15.3095 16.8785 15.057 16.7694 14.7975 16.7619C14.2953 16.7471 13.9009 17.1226 13.8802 17.6371L13.8787 25.5457C13.8787 25.5526 13.8787 25.5596 13.8785 25.5665C13.8099 28.6114 14.8829 31.4891 16.8998 33.6695L18.1158 34.9677C18.4699 35.3455 18.4505 35.9389 18.0726 36.2929C17.8918 36.4624 17.6615 36.5463 17.4317 36.5463C17.1816 36.5463 16.932 36.4469 16.7474 36.2498L15.5294 34.9498C15.5281 34.9483 15.5267 34.9469 15.5254 34.9456C13.177 32.4081 11.9266 29.0664 12.0033 25.5352L12.0048 17.621C12.0048 17.6119 12.005 17.6029 12.0052 17.5937C12.0502 16.0597 13.2558 14.8862 14.7664 14.8862C14.795 14.8862 14.8237 14.8865 14.8525 14.8874C15.599 14.9092 16.2984 15.2125 16.8223 15.7411C16.954 15.8738 17.0702 16.0168 17.1708 16.1681C17.4736 15.7206 17.8206 15.3013 18.2088 14.9186C21.4487 11.7241 26.6833 11.7613 29.8776 15.001C30.2339 15.3624 30.5508 15.7504 30.8284 16.1586C30.9215 16.0156 31.0278 15.8801 31.148 15.7539C31.6595 15.217 32.3546 14.9092 33.1046 14.8874C34.6548 14.8433 35.9536 16.056 35.9986 17.5937C35.999 17.6027 35.999 17.6119 35.999 17.621L36.0001 22.7161C36.0001 23.234 35.5804 23.6538 35.0626 23.654H35.0624C34.5446 23.654 34.1249 23.2343 34.1247 22.7165L34.1238 17.6373C34.1139 17.396 34.0121 17.1739 33.8363 17.0111C33.6549 16.843 33.4163 16.7551 33.1596 16.7619C32.9063 16.7694 32.674 16.8708 32.5053 17.0479C32.3381 17.2231 32.2502 17.456 32.2574 17.7036C32.2578 17.7129 32.2579 17.7223 32.2579 17.7316L32.2532 26.5258C32.2993 27.2639 32.0574 28.0189 31.5189 28.6046ZM29.5758 23.8933C30.9491 21.4289 30.5367 18.3406 28.5422 16.3177C26.0739 13.8141 22.0289 13.7855 19.5255 16.254C17.4912 18.2595 17.0538 21.4205 18.4276 23.8919C18.5087 23.8882 18.5904 23.8873 18.6724 23.8904C19.4233 23.9195 20.1178 24.2392 20.6282 24.7907L22.7304 27.0424C23.5835 27.2147 24.4739 27.2108 25.3252 27.0314L27.3811 24.7933C27.9669 24.1603 28.7766 23.8578 29.5758 23.8933ZM24.3113 19.7573H23.6875C23.5295 19.7573 23.391 19.6064 23.391 19.4345V19.395C23.391 19.2303 23.5185 19.1064 23.6875 19.1064H24.8458C25.3636 19.1064 25.7835 18.6865 25.7835 18.1687C25.7835 17.6509 25.3636 17.231 24.8458 17.231V17.0904C24.8458 16.5726 24.426 16.1529 23.9081 16.1529C23.3903 16.1529 22.9705 16.5726 22.9705 17.0904V17.3528C22.1243 17.6487 21.5159 18.4521 21.5159 19.395V19.4345C21.5159 20.6465 22.49 21.6325 23.6875 21.6325H24.3113C24.4824 21.6325 24.6114 21.7534 24.6114 21.9138V22.2897C24.6114 22.4526 24.4824 22.5757 24.3113 22.5757H22.4079C21.8901 22.5757 21.4703 22.9954 21.4703 23.5134C21.4703 24.0312 21.8901 24.4509 22.4079 24.4509H22.9705V24.5446C22.9705 25.0624 23.3903 25.4823 23.9081 25.4823C24.426 25.4823 24.8458 25.0624 24.8458 24.5446V24.3848C25.7877 24.1475 26.4866 23.2982 26.4866 22.2897V21.9139C26.4866 20.7247 25.5107 19.7573 24.3113 19.7573Z" fill="black"/>
</g>
<defs>
<clipPath id="clip0_8_521">
<rect width="24" height="24" fill="white" transform="translate(12 12.5)"/>
</clipPath>
</defs>
</svg>
