<svg width="30" height="17" viewBox="0 0 30 17" fill="none" xmlns="http://www.w3.org/2000/svg">
    <path d="M15 0C10.7662 0 6.93507 0.709352 4.21234 1.81619C2.85195 2.37266 1.77273 3.02698 1.05844 3.71799C0.344156 4.40899 0 5.1 0 5.80935C0 6.5187 0.344156 7.20971 1.05844 7.90072C1.77273 8.59173 2.85195 9.24604 4.21234 9.80252C6.93507 10.9094 10.7662 11.6187 15 11.6187C19.2338 11.6187 23.0649 10.9094 25.7857 9.80252C27.1494 9.24604 28.2273 8.59173 28.9416 7.90072C29.6558 7.20971 30 6.5187 30 5.80935C30 5.1 29.6558 4.40899 28.9416 3.71799C28.2273 3.02698 27.1494 2.37266 25.7857 1.81619C23.0649 0.709352 19.2338 0 15 0ZM0 8.44496V11.5147C0 11.9 0.344156 12.591 1.05844 13.282C1.77273 13.973 2.85195 14.6273 4.21234 15.1838C6.93507 16.2906 10.7662 17 15 17C19.2338 17 23.0649 16.2906 25.7857 15.1838C27.1494 14.6273 28.2273 13.973 28.9416 13.282C29.6558 12.591 30 11.9 30 11.5147V8.44496C29.9286 8.52446 29.8571 8.59784 29.7792 8.67122C28.9156 9.50288 27.7143 10.2183 26.2532 10.8115C23.3312 12.004 19.3701 12.7194 15 12.7194C10.6299 12.7194 6.66883 12.004 3.74805 10.8115C2.28766 10.2183 1.08507 9.50288 0.222078 8.67122C0.144805 8.59784 0.0714286 8.51835 0 8.44496Z" fill="#F0B90B"/>
    </svg>
    