<svg width="48" height="48" viewBox="0 0 48 48" fill="none" xmlns="http://www.w3.org/2000/svg">
<circle cx="24" cy="24" r="24" fill="#FEE6BE"/>
<path d="M24 14.9091C18.1091 14.9091 12 16.4545 12 19.6364V28.3636C12 31.5455 18.1091 33.0909 24 33.0909C29.8909 33.0909 36 31.5454 36 28.3636V19.6363C36 16.4545 29.8909 14.9091 24 14.9091ZM33.8182 28.3636C33.8182 29.4363 29.091 30.909 24 30.909C18.909 30.909 14.1818 29.4363 14.1818 28.3636V26.8601C16.4834 28.1122 20.2848 28.7272 24 28.7272C27.7152 28.7272 31.5166 28.1122 33.8182 26.8601V28.3636ZM33.8182 23.9999C33.8182 25.0727 29.091 26.5454 24 26.5454C18.909 26.5454 14.1818 25.0727 14.1818 23.9999V22.4965C16.4834 23.7486 20.2848 24.3636 24 24.3636C27.7152 24.3636 31.5166 23.7486 33.8182 22.4965V23.9999ZM24 22.1818C18.9091 22.1818 14.1818 20.709 14.1818 19.6363C14.1818 18.5636 18.909 17.0909 24 17.0909C29.091 17.0909 33.8182 18.5636 33.8182 19.6363C33.8182 20.709 29.0909 22.1818 24 22.1818Z" fill="black"/>
</svg>
