<svg width="48" height="49" viewBox="0 0 48 49" fill="none" xmlns="http://www.w3.org/2000/svg">
<circle cx="24" cy="24.5" r="24" fill="#FEE6BE"/>
<g clip-path="url(#clip0_6_3600)">
<path d="M35.0625 19.8125C35.5803 19.8125 36 19.3928 36 18.875V16.25C36 14.1822 34.3178 12.5 32.25 12.5H15.75C13.6822 12.5 12 14.1822 12 16.25V27.4062C12 27.4222 12.0016 27.4377 12.0024 27.4537C12.0527 29.4779 13.7139 31.1094 15.75 31.1094C15.7657 31.1094 15.7813 31.1077 15.7969 31.107V32.75C15.7969 34.8178 17.4791 36.5 19.5469 36.5H28.5C30.5678 36.5 32.25 34.8178 32.25 32.75V31.1094C34.3178 31.1094 36 29.4272 36 27.3594V23.5625C36 23.0447 35.5803 22.625 35.0625 22.625C34.5447 22.625 34.125 23.0447 34.125 23.5625V24.067C33.5729 23.7469 32.9328 23.5625 32.25 23.5625H24.839V22.625H25.125C26.3915 22.625 27.4219 21.5947 27.4219 20.3281C27.4219 19.6585 27.1337 19.055 26.675 18.6348C26.8229 18.3334 26.9062 17.9948 26.9062 17.637C26.9062 16.4529 25.9962 15.4778 24.839 15.3733V14.375H32.25C33.2838 14.375 34.125 15.2162 34.125 16.25V18.875C34.125 19.3928 34.5447 19.8125 35.0625 19.8125ZM15.75 29.2344C14.7162 29.2344 13.875 28.3932 13.875 27.3594V27.3125C13.875 26.2787 14.7162 25.4375 15.75 25.4375H15.7969V29.2368C15.7813 29.236 15.7657 29.2344 15.75 29.2344ZM28.5 34.625H19.5469C18.5131 34.625 17.6719 33.7838 17.6719 32.75V25.4375H19.4398C19.6921 27.5698 21.6432 29.2344 24.0057 29.2344C26.3681 29.2344 28.3195 27.5698 28.5716 25.4375H30.375V32.75C30.375 33.7838 29.5338 34.625 28.5 34.625ZM26.6717 25.4375C26.4232 26.5319 25.3224 27.3594 24.0057 27.3594C22.689 27.3594 21.5883 26.5319 21.3397 25.4375H26.6717ZM34.125 27.3125V27.3594C34.125 28.3932 33.2838 29.2344 32.25 29.2344V25.4375C33.2838 25.4375 34.125 26.2787 34.125 27.3125ZM25.125 20.75H23.7188V19.9062H24.5513C24.5782 19.9086 24.6053 19.9105 24.6328 19.9105C24.6771 19.9105 24.7211 19.9088 24.7648 19.9062H25.125C25.3577 19.9062 25.5469 20.0956 25.5469 20.3281C25.5469 20.5607 25.3577 20.75 25.125 20.75ZM25.0312 17.637C25.0312 17.8383 24.8811 18.0047 24.687 18.0312H23.7188V17.2386H24.6328C24.8525 17.2386 25.0312 17.4173 25.0312 17.637ZM22.964 15.3636H21.8438C21.3259 15.3636 20.9062 15.7833 20.9062 16.3011C20.9062 16.8187 21.3259 17.2386 21.8438 17.2386V20.75C21.3259 20.75 20.9062 21.1697 20.9062 21.6875C20.9062 22.2053 21.3259 22.625 21.8438 22.625H22.964V23.5625H15.75C15.0672 23.5625 14.4271 23.7469 13.875 24.067V16.25C13.875 15.2162 14.7162 14.375 15.75 14.375H22.964V15.3636ZM24.9844 32.0469C24.9844 32.5647 24.5647 32.9844 24.0469 32.9844C23.5291 32.9844 23.1094 32.5647 23.1094 32.0469C23.1094 31.5291 23.5291 31.1094 24.0469 31.1094C24.5647 31.1094 24.9844 31.5291 24.9844 32.0469Z" fill="black"/>
</g>
<defs>
<clipPath id="clip0_6_3600">
<rect width="24" height="24" fill="white" transform="translate(12 12.5)"/>
</clipPath>
</defs>
</svg>
