<svg width="49" height="48" viewBox="0 0 49 48" fill="none" xmlns="http://www.w3.org/2000/svg">
<circle cx="24.5" cy="24" r="24" fill="#FEE6BE"/>
<g clip-path="url(#clip0_8_2170)">
<path d="M35.4213 32.5355C35.6901 32.1467 35.8481 31.6756 35.8481 31.1682C35.8481 30.0835 35.1278 29.1641 34.1405 28.8625V25.8406H25.2034V23.6138C28.0866 23.2655 30.3283 20.8039 30.3283 17.8283C30.3283 14.6148 27.7138 12.0004 24.5003 12.0004C21.2867 12.0004 18.6723 14.6148 18.6723 17.8283C18.6723 20.8039 20.914 23.2655 23.7972 23.6138V25.8406H14.8601V28.8623C13.8725 29.1638 13.152 30.0833 13.152 31.1683C13.152 31.6757 13.3099 32.1467 13.5788 32.5355C12.9097 33.1083 12.5 33.9578 12.5 34.8665V35.9998H18.6252V34.8665C18.6252 33.9578 18.2155 33.1083 17.5465 32.5355C17.8154 32.1467 17.9733 31.6756 17.9733 31.1682C17.9733 30.0837 17.2533 29.1644 16.2663 28.8626V27.2468H23.7972V28.8624C22.8099 29.1641 22.0897 30.0835 22.0897 31.1682C22.0897 31.6756 22.2476 32.1466 22.5164 32.5354C21.8475 33.1082 21.4377 33.9577 21.4377 34.8665V35.9997H27.5629V34.8665C27.5629 33.9578 27.1532 33.1083 26.4842 32.5355C26.753 32.1467 26.911 31.6756 26.911 31.1682C26.911 30.0835 26.1907 29.1641 25.2034 28.8625V27.2468H32.7343V28.8625C31.747 29.1641 31.0268 30.0835 31.0268 31.1682C31.0268 31.6756 31.1847 32.1467 31.4536 32.5355C30.7846 33.1083 30.3748 33.9578 30.3748 34.8665V35.9998H36.5001V34.8665C36.5 33.9578 36.0903 33.1083 35.4213 32.5355ZM28.9221 17.8283C28.9221 20.0272 27.3086 21.8562 25.2034 22.194V21.2229C26.0218 20.9327 26.6097 20.1512 26.6097 19.2346C26.6097 18.0715 25.6634 17.1252 24.5003 17.1252C24.1126 17.1252 23.7972 16.8098 23.7972 16.4221C23.7972 16.0344 24.1126 15.719 24.5003 15.719C24.888 15.719 25.2034 16.0344 25.2034 16.4221H26.6097C26.6097 15.5055 26.0218 14.724 25.2034 14.4337V13.4627C27.3086 13.8005 28.9221 15.6294 28.9221 17.8283ZM20.0785 17.8283C20.0785 15.6294 21.692 13.8005 23.7972 13.4627V14.4337C22.9788 14.724 22.391 15.5055 22.391 16.4221C22.391 17.5852 23.3372 18.5314 24.5003 18.5314C24.888 18.5314 25.2034 18.8469 25.2034 19.2346C25.2034 19.6222 24.888 19.9377 24.5003 19.9377C24.1126 19.9377 23.7972 19.6222 23.7972 19.2346H22.391C22.391 20.1512 22.9788 20.9327 23.7972 21.2229V22.194C21.692 21.8561 20.0785 20.0272 20.0785 17.8283ZM13.9291 34.5935C14.0113 34.108 14.3091 33.6797 14.7349 33.4325C14.9932 33.5272 15.272 33.5789 15.5626 33.5789C15.8533 33.5789 16.1321 33.5272 16.3903 33.4325C16.8162 33.6796 17.114 34.108 17.1962 34.5935H13.9291ZM16.5671 31.1682C16.5671 31.7221 16.1165 32.1727 15.5626 32.1727C15.0087 32.1727 14.5581 31.7221 14.5581 31.1682C14.5581 30.6144 15.0087 30.1638 15.5626 30.1638C16.1165 30.1638 16.5671 30.6144 16.5671 31.1682ZM22.8668 34.5935C22.9489 34.108 23.2468 33.6797 23.6726 33.4325C23.9309 33.5272 24.2097 33.5789 24.5003 33.5789C24.791 33.5789 25.0698 33.5272 25.328 33.4325C25.7539 33.6796 26.0517 34.108 26.1338 34.5935H22.8668ZM25.5047 31.1682C25.5047 31.7221 25.0541 32.1727 24.5003 32.1727C23.9464 32.1727 23.4958 31.7221 23.4958 31.1682C23.4958 30.6144 23.9464 30.1638 24.5003 30.1638C25.0541 30.1638 25.5047 30.6144 25.5047 31.1682ZM33.4374 30.1638C33.9913 30.1638 34.4419 30.6144 34.4419 31.1682C34.4419 31.7221 33.9913 32.1727 33.4374 32.1727C32.8835 32.1727 32.4329 31.7221 32.4329 31.1682C32.4329 30.6144 32.8835 30.1638 33.4374 30.1638ZM31.8039 34.5935C31.8861 34.108 32.1839 33.6797 32.6097 33.4325C32.868 33.5272 33.1468 33.5789 33.4374 33.5789C33.7281 33.5789 34.0069 33.5272 34.2651 33.4325C34.691 33.6796 34.9888 34.108 35.071 34.5935H31.8039Z" fill="black"/>
</g>
<defs>
<clipPath id="clip0_8_2170">
<rect width="24" height="24" fill="white" transform="translate(12.5 12)"/>
</clipPath>
</defs>
</svg>
