<svg width="48" height="49" viewBox="0 0 48 49" fill="none" xmlns="http://www.w3.org/2000/svg">
<circle cx="24" cy="24.5" r="24" fill="#FEE6BE"/>
<g clip-path="url(#clip0_8_1250)">
<path d="M34.3359 12.5H24.9609C24.0563 12.5 23.3203 13.236 23.3203 14.1406V17.7969H21.4363C20.6659 17.7969 19.9422 18.1371 19.4508 18.7304L17.3521 21.2643C17.0551 20.8404 16.5635 20.5625 16.0078 20.5625H13.6641C12.7594 20.5625 12.0234 21.2985 12.0234 22.2031V31.5547C12.0234 32.4593 12.7594 33.1953 13.6641 33.1953H16.0078C16.7871 33.1953 17.4407 32.649 17.607 31.9194L19.1112 32.755C19.6291 33.0427 20.2159 33.1957 20.8083 33.1974L23.3203 33.2048V34.8594C23.3203 35.764 24.0563 36.5 24.9609 36.5H34.3359C35.2406 36.5 35.9766 35.764 35.9766 34.8594V14.1406C35.9766 13.236 35.2406 12.5 34.3359 12.5ZM16.2422 31.5547C16.2422 31.6839 16.137 31.7891 16.0078 31.7891H13.6641C13.5348 31.7891 13.4297 31.6839 13.4297 31.5547V22.2031C13.4297 22.0739 13.5348 21.9688 13.6641 21.9688H16.0078C16.137 21.9688 16.2422 22.0739 16.2422 22.2031V31.5547ZM24.7266 14.1406C24.7266 14.0114 24.8317 13.9062 24.9609 13.9062H26.8576C26.8583 13.9297 26.8594 13.9531 26.8594 13.9766C26.8594 15.1397 25.9131 16.0859 24.75 16.0859C24.7422 16.0859 24.7344 16.0855 24.7266 16.0854V14.1406ZM20.8124 31.7912C20.457 31.7902 20.1049 31.6984 19.7942 31.5258L17.6484 30.3337V23.111L20.5338 19.6275C20.7572 19.3578 21.0861 19.2031 21.4363 19.2031H23.3203V20.5625H22.6704H22.2891C21.9008 20.5625 21.5859 20.8773 21.5859 21.2656C21.5859 21.6539 21.9008 21.9688 22.2891 21.9688H29.5078C29.8955 21.9688 30.2109 22.2842 30.2109 22.6719C30.2109 23.0596 29.8955 23.375 29.5078 23.375H24.2109C23.8226 23.375 23.5078 23.6898 23.5078 24.0781C23.5078 24.4664 23.8226 24.7812 24.2109 24.7812H29.5078H30.9141C31.3018 24.7812 31.6172 25.0967 31.6172 25.4844C31.6172 25.8721 31.3018 26.1875 30.9141 26.1875H29.5078H24.6797C24.2914 26.1875 23.9766 26.5023 23.9766 26.8906C23.9766 27.2789 24.2914 27.5938 24.6797 27.5938H29.5078C29.8955 27.5938 30.2109 27.9092 30.2109 28.2969C30.2109 28.6846 29.8955 29 29.5078 29H28.1016H24.2109C23.8226 29 23.5078 29.3148 23.5078 29.7031C23.5078 30.0914 23.8226 30.4062 24.2109 30.4062H28.1016C28.4893 30.4062 28.8047 30.7217 28.8047 31.1094C28.8047 31.4971 28.4893 31.8125 28.1036 31.8125L20.8124 31.7912ZM26.9218 35.0938H24.9609C24.8317 35.0938 24.7266 34.9886 24.7266 34.8594V33.2089L25.894 33.2123C26.5101 33.581 26.9235 34.2547 26.9235 35.0235C26.9235 35.0469 26.9226 35.0703 26.9218 35.0938ZM34.5703 34.8594C34.5703 34.9886 34.4652 35.0938 34.3359 35.0938H32.4393C32.4385 35.0703 32.4375 35.0469 32.4375 35.0234C32.4375 33.8603 33.3838 32.9141 34.5469 32.9141C34.5547 32.9141 34.5625 32.9146 34.5703 32.9147V34.8594ZM34.5703 31.5084C34.5625 31.5084 34.5547 31.5078 34.5469 31.5078C32.6084 31.5078 31.0312 33.0849 31.0312 35.0234C31.0312 35.0469 31.0326 35.0703 31.033 35.0938H28.3281C28.3285 35.0703 28.3298 35.0469 28.3298 35.0234C28.3298 34.3637 28.1468 33.746 27.8295 33.218L28.1016 33.2188C29.2647 33.2188 30.2109 32.2725 30.2109 31.1094C30.2109 30.8351 30.1583 30.5728 30.0626 30.3322C30.9574 30.088 31.6172 29.268 31.6172 28.2969C31.6172 28.0226 31.5645 27.7603 31.4689 27.5197C32.3637 27.2755 33.0234 26.4555 33.0234 25.4844C33.0234 24.5132 32.3637 23.6932 31.4689 23.449C31.5646 23.2084 31.6172 22.9461 31.6172 22.6719C31.6172 21.5088 30.6709 20.5625 29.5078 20.5625H24.7266V17.4917C24.7344 17.4917 24.7422 17.4922 24.75 17.4922C26.6885 17.4922 28.2656 15.9151 28.2656 13.9766C28.2656 13.9531 28.2643 13.9297 28.2638 13.9062H31.033C31.0325 13.9297 31.0312 13.9531 31.0312 13.9766C31.0312 15.9151 32.6084 17.4922 34.5469 17.4922C34.5547 17.4922 34.5625 17.4917 34.5703 17.4917V31.5084ZM34.5703 16.0854C34.5625 16.0855 34.5547 16.0859 34.5469 16.0859C33.3838 16.0859 32.4375 15.1397 32.4375 13.9766C32.4375 13.9531 32.4385 13.9297 32.4392 13.9062H34.3359C34.4652 13.9062 34.5703 14.0114 34.5703 14.1406V16.0854Z" fill="black"/>
</g>
<defs>
<clipPath id="clip0_8_1250">
<rect width="24" height="24" fill="white" transform="translate(12 12.5)"/>
</clipPath>
</defs>
</svg>
