<svg width="49" height="48" viewBox="0 0 49 48" fill="none" xmlns="http://www.w3.org/2000/svg">
<circle cx="24.5" cy="24" r="24" fill="#FEE6BE"/>
<g clip-path="url(#clip0_8_2257)">
<path d="M36.5 23.2941V12H32.2647V14.1176H30.8529C29.9807 14.1176 29.1125 13.9982 28.2726 13.7625C28.2726 13.7625 21.7944 12.0756 21.7621 12.068C21.0693 11.9059 20.3243 12.0522 19.7182 12.4693L13.8532 16.5041C13.7797 16.5547 13.5539 16.6949 13.5539 16.6949C12.894 17.1063 12.5 17.8164 12.5 18.5943C12.5 19.1998 12.7375 19.7665 13.1686 20.1902C13.5859 20.6002 14.1554 20.8334 14.7363 20.8334C14.7491 20.8334 14.7618 20.8333 14.7745 20.8331C14.9649 20.8297 15.1572 20.7988 15.3625 20.7384L20.2728 19.294C20.3554 20.3237 21.0855 21.1838 22.1059 21.4244L23.3457 21.7412C22.6367 22.3498 22.1863 23.2515 22.1863 24.2569C22.1863 24.674 22.2644 25.0729 22.4056 25.4409C22.0025 25.3802 21.5897 25.4151 21.2052 25.5432L19.3356 26.1539L19.2269 26.1901C18.1834 26.538 17.5932 26.7344 16.7353 26.7992V24.7059H12.5V36H16.7353V33.8824H18.1471C19.0193 33.8824 19.8875 34.0018 20.7274 34.2375L27.1405 35.9072C27.173 35.9161 27.2056 35.9244 27.2378 35.932C27.4229 35.9752 27.6117 35.9965 27.8006 35.9965C28.3187 35.9965 28.8375 35.8363 29.2818 35.5307L35.1467 31.4959C35.2203 31.4453 35.446 31.3051 35.446 31.3051C36.106 30.8937 36.5 30.1836 36.5 29.4057C36.5 28.8002 36.2625 28.2335 35.8314 27.8098C35.4049 27.3908 34.8182 27.1558 34.2255 27.167C34.0351 27.1703 33.8428 27.2012 33.6375 27.2616L28.7272 28.706C28.6642 27.9215 28.2254 27.2356 27.5686 26.8469C28.3291 26.2389 28.8176 25.3041 28.8176 24.2569C28.8176 23.5369 28.5862 22.8704 28.195 22.3261L29.6645 21.8461L29.7731 21.8099C30.8167 21.462 31.4069 21.2656 32.2648 21.2008V23.2941H36.5ZM33.6765 13.4118H35.0882V21.8824H33.6765V13.4118ZM25.999 22.4192C26.8085 22.6383 27.4059 23.379 27.4059 24.2568C27.4059 25.3067 26.5518 26.1608 25.502 26.1608C25.3712 26.1608 25.2434 26.1475 25.1199 26.1222L24.9472 26.0781C24.1672 25.84 23.598 25.1137 23.598 24.2568C23.598 23.207 24.4521 22.3529 25.502 22.3529C25.6567 22.3529 25.807 22.372 25.9511 22.407L25.999 22.4192ZM15.3235 34.5882H13.9118V26.1176H15.3235V34.5882ZM28.2775 30.3099L34.0359 28.616C34.1169 28.5922 34.189 28.5796 34.2503 28.5785C34.2552 28.5784 34.26 28.5784 34.2649 28.5784C34.4807 28.5784 34.6851 28.6627 34.842 28.8168C35.0008 28.9729 35.0883 29.182 35.0883 29.4057C35.0883 29.693 34.9428 29.9552 34.6992 30.1072L34.6419 30.1427C34.5464 30.202 34.4476 30.2632 34.3466 30.3328L28.4816 34.3676C28.2021 34.5599 27.866 34.629 27.559 34.5572C27.5435 34.5536 27.5281 34.5496 27.5127 34.5454L21.1024 32.8764C20.1403 32.6072 19.1461 32.4706 18.1471 32.4706H16.7353V28.2136C17.8347 28.142 18.5722 27.8965 19.6734 27.5294L21.6477 26.8839C21.843 26.8188 22.0524 26.8061 22.2543 26.8472L26.5666 27.9488C27.0123 28.0523 27.3236 28.4442 27.3236 28.9018C27.3236 29.2051 27.1864 29.4862 26.9473 29.6729C26.7082 29.8596 26.4023 29.9245 26.108 29.8509L22.5536 28.9623L22.2112 30.3319L25.7656 31.2205C25.9599 31.269 26.156 31.2929 26.3507 31.2929C26.8764 31.2929 27.3898 31.1185 27.8162 30.7856C27.9939 30.6468 28.1482 30.4864 28.2775 30.3099ZM29.3266 20.4706L27.3523 21.1161C27.1569 21.1811 26.9475 21.1939 26.7457 21.1528L26.3563 21.0534C26.3368 21.0481 26.3171 21.0432 26.2974 21.0383L22.4485 20.0549L22.4335 20.0512C21.9877 19.9477 21.6765 19.5559 21.6765 19.0983C21.6765 18.7949 21.8136 18.5138 22.0527 18.3272C22.2918 18.1404 22.5976 18.0755 22.892 18.1492L26.4464 19.0378L26.7888 17.6682L23.2344 16.7796C22.5156 16.5999 21.768 16.7583 21.1839 17.2144C21.0061 17.3532 20.8517 17.5136 20.7225 17.6902L14.9641 19.384C14.8831 19.4078 14.811 19.4204 14.7497 19.4215C14.5278 19.4254 14.3185 19.3408 14.158 19.1832C13.9992 19.0271 13.9118 18.818 13.9118 18.5943C13.9118 18.307 14.0572 18.0448 14.3009 17.8928C14.3009 17.8928 14.5524 17.7368 14.6535 17.6672L20.5184 13.6324C20.7979 13.4401 21.1341 13.371 21.4411 13.4428C21.4566 13.4464 27.8976 15.1236 27.8976 15.1236C28.8597 15.3928 29.854 15.5294 30.8529 15.5294H32.2647V19.7864C31.1653 19.858 30.4278 20.1035 29.3266 20.4706Z" fill="black"/>
</g>
<defs>
<clipPath id="clip0_8_2257">
<rect width="24" height="24" fill="white" transform="translate(12.5 12)"/>
</clipPath>
</defs>
</svg>
