<svg width="32" height="33" viewBox="0 0 32 33" fill="none" xmlns="http://www.w3.org/2000/svg">
<circle cx="16" cy="16.5" r="16" fill="#E2E8F0"/>
<path d="M23.3764 11.8365C22.7988 11.1499 21.7325 10.8699 19.6961 10.8699H12.3038C10.2207 10.8699 9.13636 11.168 8.56098 11.8989C8 12.6116 8 13.6617 8 15.115V17.885C8 20.7005 8.6656 22.1301 12.3038 22.1301H19.6961C21.4621 22.1301 22.4407 21.8829 23.0738 21.277C23.723 20.6557 24 19.6413 24 17.885V15.115C24 13.5823 23.9566 12.5261 23.3764 11.8365ZM18.2721 16.8824L14.9153 18.6368C14.8402 18.676 14.7581 18.6955 14.6762 18.6955C14.5834 18.6955 14.4908 18.6705 14.4088 18.6208C14.2543 18.5273 14.1601 18.3599 14.1601 18.1793V14.6818C14.1601 14.5016 14.2541 14.3344 14.4082 14.2408C14.5624 14.1471 14.7541 14.1407 14.9141 14.2238L18.2709 15.9669C18.4417 16.0556 18.5489 16.2319 18.5492 16.4242C18.5494 16.6168 18.4426 16.7933 18.2721 16.8824Z" fill="black"/>
</svg>
