<svg width="76" height="66" viewBox="0 0 76 66" fill="none" xmlns="http://www.w3.org/2000/svg">
<rect width="76" height="66" rx="8" fill="#1B2028"/>
<path d="M38.0316 45.5055C34.3425 45.5055 30.6533 44.9197 27.1541 43.748C25.8241 43.2889 24.8108 42.3547 24.3675 41.1355C23.9083 39.9164 24.0666 38.5705 24.795 37.3672L26.6158 34.343C26.9958 33.7097 27.3441 32.443 27.3441 31.6989V27.123C27.3441 21.233 32.1416 16.4355 38.0316 16.4355C43.9216 16.4355 48.7191 21.233 48.7191 27.123V31.6989C48.7191 32.4272 49.0675 33.7097 49.4475 34.3589L51.2525 37.3672C51.9333 38.5072 52.06 39.8847 51.6008 41.1355C51.1416 42.3864 50.1441 43.3364 48.8933 43.748C45.41 44.9197 41.7208 45.5055 38.0316 45.5055ZM38.0316 18.8105C33.4558 18.8105 29.7191 22.5314 29.7191 27.123V31.6989C29.7191 32.8547 29.2441 34.5647 28.6583 35.5622L26.8375 38.5864C26.4891 39.1722 26.3941 39.7897 26.6 40.3122C26.79 40.8505 27.265 41.2622 27.9141 41.4839C34.5325 43.7005 41.5466 43.7005 48.165 41.4839C48.735 41.2939 49.1783 40.8664 49.3841 40.2964C49.59 39.7264 49.5425 39.1089 49.2258 38.5864L47.405 35.5622C46.8033 34.533 46.3441 32.8389 46.3441 31.683V27.123C46.3441 22.5314 42.6233 18.8105 38.0316 18.8105Z" fill="#9E9E9E"/>
<path d="M40.9768 19.2382C40.866 19.2382 40.7551 19.2223 40.6443 19.1907C40.1851 19.064 39.7418 18.969 39.3143 18.9057C37.9685 18.7315 36.6701 18.8265 35.451 19.1907C35.0076 19.3332 34.5326 19.1907 34.2318 18.8582C33.931 18.5257 33.836 18.0507 34.0101 17.6232C34.6593 15.9607 36.2426 14.8682 38.0476 14.8682C39.8526 14.8682 41.436 15.9448 42.0851 17.6232C42.2435 18.0507 42.1643 18.5257 41.8635 18.8582C41.626 19.1115 41.2935 19.2382 40.9768 19.2382Z" fill="#9E9E9E"/>
<path d="M38.0317 49.1162C36.4642 49.1162 34.9442 48.4829 33.8359 47.3745C32.7276 46.2662 32.0942 44.7462 32.0942 43.1787H34.4692C34.4692 44.1129 34.8492 45.0312 35.5142 45.6962C36.1792 46.3612 37.0976 46.7412 38.0317 46.7412C39.9951 46.7412 41.5942 45.142 41.5942 43.1787H43.9692C43.9692 46.4562 41.3092 49.1162 38.0317 49.1162Z" fill="#9E9E9E"/>
<circle cx="45.9165" cy="20.917" r="3.95833" fill="#F46D22" stroke="white" stroke-width="1.58333"/>
</svg>
