<svg width="40" height="14" viewBox="0 0 40 14" fill="none" xmlns="http://www.w3.org/2000/svg">
<path d="M1 3.92469V10.6419L5.9899 13.1368M1 3.92469L5.9899 6.41964M1 3.92469L5.9899 1.0459L11.3636 3.92469M5.9899 13.1368L11.3636 10.6419V9.1065M5.9899 13.1368V6.41964M5.9899 6.41964L11.3636 3.92469M11.3636 3.92469V5.84388" stroke="#5E6673"/>
<path d="M9.25244 7.57129H16.9292" stroke="#5E6673"/>
<path d="M16.7373 7.57129H17.3131" stroke="#5E6673"/>
<path d="M15.5859 5.65191V3.73272M15.5859 3.73272L20.3839 1.42969L24.99 3.73272M15.5859 3.73272L20.3839 5.65191M24.99 3.73272L20.3839 5.65191M24.99 3.73272V5.65191M20.3839 5.65191V12.561M20.3839 12.561L15.5859 10.8337V8.91454M20.3839 12.561L24.99 10.8337V8.91454" stroke="#5E6673"/>
<path d="M23.4546 7.37891H31.1314" stroke="#5E6673"/>
<path d="M29.5962 5.84383V3.92464M29.5962 3.92464L34.5861 1.42969L39.0002 3.92464M29.5962 3.92464L34.5861 5.84383M39.0002 3.92464L34.5861 5.84383M39.0002 3.92464V10.6418L34.5861 12.9448M34.5861 5.84383V12.9448M34.5861 12.9448L29.5962 10.6418V8.72262" stroke="#5E6673"/>
</svg>
