<svg width="16" height="16" viewBox="0 0 16 16" fill="none" xmlns="http://www.w3.org/2000/svg">
<path d="M7.97755 0.424817C3.83755 0.439817 0.48505 3.80732 0.50005 7.94732C0.51505 12.0873 3.88255 15.4398 8.02255 15.4248C12.1625 15.4098 15.515 12.0423 15.5 7.90232C15.4851 3.76232 12.1175 0.417317 7.97755 0.424817ZM9.69505 7.99982C10.2801 8.20232 11.0676 8.63732 11.0676 9.97982C11.0676 11.1348 10.16 12.0648 9.05005 12.0648H8.56255V12.4998C8.56255 12.8073 8.30755 13.0623 8.00005 13.0623C7.69255 13.0623 7.43755 12.8073 7.43755 12.4998V12.0648H7.16755C5.93755 12.0648 4.94005 11.0298 4.94005 9.75482C4.94005 9.44732 5.19505 9.19232 5.50255 9.19232C5.81005 9.19232 6.06505 9.44732 6.06505 9.75482C6.06505 10.4073 6.56005 10.9398 7.16755 10.9398H7.43755V8.40482L6.30505 7.99982C5.72005 7.79732 4.93255 7.36232 4.93255 6.01982C4.93255 4.86482 5.84005 3.93482 6.95005 3.93482H7.43755V3.49982C7.43755 3.19232 7.69255 2.93732 8.00005 2.93732C8.30755 2.93732 8.56255 3.19232 8.56255 3.49982V3.93482H8.83255C10.0625 3.93482 11.0601 4.96982 11.0601 6.24482C11.0601 6.55232 10.805 6.80732 10.4976 6.80732C10.1901 6.80732 9.93505 6.55232 9.93505 6.24482C9.93505 5.59232 9.44005 5.05982 8.83255 5.05982H8.56255V7.59482L9.69505 7.99982Z" fill="#FFC01E"/>
</svg>
