<svg width="23" height="22" viewBox="0 0 23 22" fill="none" xmlns="http://www.w3.org/2000/svg">
<mask id="mask0_137_7248" style="mask-type:luminance" maskUnits="userSpaceOnUse" x="0" y="0" width="23" height="22">
<path d="M11.5 22C17.8513 22 23 17.0751 23 11C23 4.92487 17.8513 0 11.5 0C5.14873 0 0 4.92487 0 11C0 17.0751 5.14873 22 11.5 22Z" fill="white"/>
</mask>
<g mask="url(#mask0_137_7248)">
<path d="M11.5 0H23V2.75L21.5625 4.125L23 5.5V8.25L21.5625 9.625L23 11V13.75L21.5625 15.125L23 16.5V19.25L11.5 20.625L0 19.25V16.5L1.4375 15.125L0 13.75V11L11.5 0Z" fill="#EEEEEE"/>
<path d="M10.0625 2.75H23V5.5H10.0625V2.75ZM10.0625 8.25H23V11H11.5L10.0625 8.25ZM0 13.75H23V16.5H0V13.75ZM0 19.25H23V22H0V19.25Z" fill="#D80027"/>
<path d="M0 0H11.5V11H0V0Z" fill="#0052B4"/>
<path d="M8.40039 10.4414L10.9609 8.67969H7.81641L10.377 10.4414L9.38867 7.5625L8.40039 10.4414ZM4.76172 10.4414L7.32227 8.67969H4.17773L6.73828 10.4414L5.75 7.5625L4.76172 10.4414ZM1.12305 10.4414L3.68359 8.67969H0.539062L3.09961 10.4414L2.11133 7.5625L1.12305 10.4414ZM8.40039 6.96094L10.9609 5.19922H7.81641L10.377 6.96094L9.38867 4.08203L8.40039 6.96094ZM4.76172 6.96094L7.32227 5.19922H4.17773L6.73828 6.96094L5.75 4.08203L4.76172 6.96094ZM1.12305 6.96094L3.68359 5.19922H0.539062L3.09961 6.96094L2.11133 4.08203L1.12305 6.96094ZM8.40039 3.4375L10.9609 1.67578H7.81641L10.377 3.4375L9.38867 0.558594L8.40039 3.4375ZM4.76172 3.4375L7.32227 1.67578H4.17773L6.73828 3.4375L5.75 0.558594L4.76172 3.4375ZM1.12305 3.4375L3.68359 1.67578H0.539062L3.09961 3.4375L2.11133 0.558594L1.12305 3.4375Z" fill="#EEEEEE"/>
</g>
</svg>
