<svg width="20" height="5" viewBox="0 0 20 5" fill="none" xmlns="http://www.w3.org/2000/svg">
<path fill-rule="evenodd" clip-rule="evenodd" d="M10.001 0.862069C11.1054 0.862069 12.001 1.78849 12.001 2.93103C12.001 4.07358 11.1054 5 10.001 5C8.89652 5 8.00098 4.07358 8.00098 2.93103C8.00098 1.78849 8.89652 0.862069 10.001 0.862069Z" fill="#4D4D4D"/>
<path fill-rule="evenodd" clip-rule="evenodd" d="M2 0.862069C3.10446 0.862069 4 1.78849 4 2.93103C4 4.07358 3.10446 5 2 5C0.895543 5 0 4.07358 0 2.93103C0 1.78849 0.895543 0.862069 2 0.862069Z" fill="#4D4D4D"/>
<path fill-rule="evenodd" clip-rule="evenodd" d="M18 0.862069C19.1045 0.862069 20 1.78849 20 2.93103C20 4.07358 19.1045 5 18 5C16.8955 5 16 4.07358 16 2.93103C16 1.78849 16.8955 0.862069 18 0.862069Z" fill="#4D4D4D"/>
</svg>
