<svg width="28" height="28" viewBox="0 0 28 28" fill="none" xmlns="http://www.w3.org/2000/svg">
<path d="M11.5 8.5C11.5 8.10444 11.6173 7.71776 11.8371 7.38886C12.0568 7.05996 12.3692 6.80362 12.7346 6.65224C13.1001 6.50087 13.5022 6.46126 13.8902 6.53843C14.2781 6.6156 14.6345 6.80608 14.9142 7.08579C15.1939 7.36549 15.3844 7.72186 15.4616 8.10982C15.5387 8.49778 15.4991 8.89991 15.3478 9.26537C15.1964 9.63082 14.94 9.94318 14.6111 10.1629C14.2822 10.3827 13.8956 10.5 13.5 10.5C12.9696 10.5 12.4609 10.2893 12.0858 9.91421C11.7107 9.53914 11.5 9.03043 11.5 8.5ZM27.5 14C27.5 16.67 26.7082 19.2801 25.2248 21.5002C23.7414 23.7203 21.633 25.4506 19.1662 26.4724C16.6994 27.4942 13.985 27.7615 11.3663 27.2406C8.74754 26.7197 6.34207 25.434 4.45406 23.5459C2.56606 21.6579 1.28031 19.2525 0.759405 16.6337C0.238504 14.015 0.505849 11.3006 1.52763 8.83377C2.54942 6.36697 4.27974 4.25856 6.49981 2.77516C8.71987 1.29176 11.33 0.5 14 0.5C17.5792 0.50397 21.0107 1.92756 23.5416 4.45844C26.0724 6.98932 27.496 10.4208 27.5 14ZM24.5 14C24.5 11.9233 23.8842 9.89323 22.7304 8.16651C21.5767 6.4398 19.9368 5.09399 18.0182 4.29926C16.0996 3.50454 13.9884 3.29661 11.9516 3.70175C9.91476 4.1069 8.04384 5.10693 6.57538 6.57538C5.10693 8.04383 4.10691 9.91475 3.70176 11.9516C3.29662 13.9884 3.50455 16.0996 4.29927 18.0182C5.09399 19.9368 6.4398 21.5767 8.16652 22.7304C9.89324 23.8842 11.9233 24.5 14 24.5C16.7839 24.497 19.4529 23.3898 21.4213 21.4213C23.3898 19.4528 24.497 16.7839 24.5 14ZM15.5 18.585V14.5C15.5 13.837 15.2366 13.2011 14.7678 12.7322C14.2989 12.2634 13.663 12 13 12C12.6458 11.9995 12.3028 12.1243 12.0318 12.3525C11.7608 12.5806 11.5792 12.8973 11.5194 13.2464C11.4595 13.5956 11.5251 13.9546 11.7046 14.26C11.8841 14.5654 12.1658 14.7974 12.5 14.915V19C12.5 19.663 12.7634 20.2989 13.2322 20.7678C13.7011 21.2366 14.337 21.5 15 21.5C15.3542 21.5005 15.6972 21.3757 15.9682 21.1475C16.2392 20.9194 16.4208 20.6027 16.4806 20.2536C16.5405 19.9044 16.4749 19.5454 16.2954 19.24C16.116 18.9346 15.8342 18.7026 15.5 18.585Z" fill="#B7C1DA"/>
</svg>
