<svg width="16" height="16" viewBox="0 0 16 16" fill="none" xmlns="http://www.w3.org/2000/svg">
<path d="M7.33317 8.00033C7.33317 8.36852 7.63165 8.66699 7.99984 8.66699C8.36803 8.66699 8.6665 8.36852 8.6665 8.00033C8.6665 7.63214 8.36803 7.33366 7.99984 7.33366C7.63165 7.33366 7.33317 7.63214 7.33317 8.00033Z" stroke="#7F7F7F" stroke-width="2" stroke-linecap="round" stroke-linejoin="round"/>
<path d="M7.33317 12.667C7.33317 13.0352 7.63165 13.3337 7.99984 13.3337C8.36803 13.3337 8.6665 13.0352 8.6665 12.667C8.6665 12.2988 8.36803 12.0003 7.99984 12.0003C7.63165 12.0003 7.33317 12.2988 7.33317 12.667Z" stroke="#7F7F7F" stroke-width="2" stroke-linecap="round" stroke-linejoin="round"/>
<path d="M7.33317 3.33366C7.33317 3.70185 7.63165 4.00033 7.99984 4.00033C8.36803 4.00033 8.6665 3.70185 8.6665 3.33366C8.6665 2.96547 8.36803 2.66699 7.99984 2.66699C7.63165 2.66699 7.33317 2.96547 7.33317 3.33366Z" stroke="#7F7F7F" stroke-width="2" stroke-linecap="round" stroke-linejoin="round"/>
</svg>
